999
dxfrw 0.6.3
  0
SECTION
  2
HEADER
  9
$ACADVER
  1
AC1021
  9
$DWGCODEPAGE
  3
ANSI_1252
  9
$INSBASE
 10
0
 20
0
 30
0
  9
$EXTMIN
 10
-26.61525668630341
 20
301.7088885825186
 30
0
  9
$EXTMAX
 10
832.7896168865376
 20
542.3218773946578
 30
0
  9
$LIMMIN
 10
0
 20
0
  9
$LIMMAX
 10
420
 20
297
  9
$ORTHOMODE
 70
    0
  9
$REGENMODE
 70
    1
  9
$FILLMODE
 70
    1
  9
$QTEXTMODE
 70
    0
  9
$MIRRTEXT
 70
    0
  9
$LTSCALE
 40
1
  9
$ATTMODE
 70
    0
  9
$TEXTSIZE
 40
2.5
  9
$TRACEWID
 40
15.68
  9
$TEXTSTYLE
  7
STANDARD
  9
$CLAYER
  8
kóty
  9
$CELTYPE
  6
BYLAYER
  9
$CECOLOR
 62
  256
  9
$CELTSCALE
 40
1
  9
$DISPSILH
 70
    0
  9
$DIMSCALE
 40
2
  9
$DIMASZ
 40
2.5
  9
$DIMEXO
 40
0.625
  9
$DIMDLI
 40
3.75
  9
$DIMRND
 40
0
  9
$DIMDLE
 40
0
  9
$DIMEXE
 40
1.25
  9
$DIMTP
 40
0
  9
$DIMTM
 40
0
  9
$DIMTXT
 40
2.5
  9
$DIMCEN
 40
2.5
  9
$DIMTSZ
 40
1
  9
$DIMTOL
 70
    0
  9
$DIMLIM
 70
    0
  9
$DIMTIH
 70
    0
  9
$DIMTOH
 70
    0
  9
$DIMSE1
 70
    0
  9
$DIMSE2
 70
    0
  9
$DIMTAD
 70
    1
  9
$DIMZIN
 70
    1
  9
$DIMBLK
  1

  9
$DIMASO
 70
    1
  9
$DIMSHO
 70
    1
  9
$DIMPOST
  1

  9
$DIMAPOST
  1

  9
$DIMALT
 70
    0
  9
$DIMALTD
 70
    3
  9
$DIMALTF
 40
0.03937
  9
$DIMLFAC
 40
1
  9
$DIMTOFL
 70
    1
  9
$DIMTVP
 40
0
  9
$DIMTIX
 70
    0
  9
$DIMSOXD
 70
    0
  9
$DIMSAH
 70
    0
  9
$DIMBLK1
  1

  9
$DIMBLK2
  1

  9
$DIMSTYLE
  2
STANDARD
  9
$DIMCLRD
 70
    0
  9
$DIMCLRE
 70
    0
  9
$DIMCLRT
 70
    0
  9
$DIMTFAC
 40
1
  9
$DIMGAP
 40
0.625
  9
$DIMJUST
 70
    0
  9
$DIMSD1
 70
    0
  9
$DIMSD2
 70
    0
  9
$DIMTOLJ
 70
    0
  9
$DIMTZIN
 70
    8
  9
$DIMALTZ
 70
    0
  9
$DIMALTTZ
 70
    0
  9
$DIMUPT
 70
    0
  9
$DIMDEC
 70
    0
  9
$DIMTDEC
 70
    2
  9
$DIMALTU
 70
    2
  9
$DIMALTTD
 70
    3
  9
$DIMTXSTY
  7
STANDARD
  9
$DIMAUNIT
 70
    0
  9
$DIMADEC
 70
    2
  9
$DIMALTRND
 40
0
  9
$DIMAZIN
 70
    0
  9
$DIMDSEP
 70
   44
  9
$DIMATFIT
 70
    3
  9
$DIMFRAC
 70
    0
  9
$DIMLDRBLK
  1
STANDARD
  9
$DIMLUNIT
 70
    2
  9
$DIMLWD
 70
   -2
  9
$DIMLWE
 70
   -2
  9
$DIMTMOVE
 70
    0
  9
$DIMFXL
 40
1
  9
$DIMFXLON
 70
    0
  9
$DIMJOGANG
 40
0.7854
  9
$DIMTFILL
 70
    0
  9
$DIMTFILLCLR
 70
    0
  9
$DIMARCSYM
 70
    0
  9
$DIMLTYPE
  6

  9
$DIMLTEX1
  6

  9
$DIMLTEX2
  6

  9
$LUNITS
 70
    2
  9
$LUPREC
 70
    0
  9
$SKETCHINC
 40
1
  9
$FILLETRAD
 40
0
  9
$AUNITS
 70
    0
  9
$AUPREC
 70
    2
  9
$MENU
  1
.
  9
$ELEVATION
 40
0
  9
$PELEVATION
 40
0
  9
$THICKNESS
 40
0
  9
$LIMCHECK
 70
    0
  9
$CHAMFERA
 40
0
  9
$CHAMFERB
 40
0
  9
$CHAMFERC
 40
0
  9
$CHAMFERD
 40
0
  9
$SKPOLY
 70
    0
  9
$USRTIMER
 70
    1
  9
$ANGBASE
 50
0
  9
$ANGDIR
 70
    0
  9
$PDMODE
 70
   34
  9
$PDSIZE
 40
0
  9
$PLINEWID
 40
0
  9
$SPLFRAME
 70
    0
  9
$SPLINETYPE
 70
    2
  9
$SPLINESEGS
 70
    8
  9
$HANDSEED
  5
20000
  9
$SURFTAB1
 70
    6
  9
$SURFTAB2
 70
    6
  9
$SURFTYPE
 70
    6
  9
$SURFU
 70
    6
  9
$SURFV
 70
    6
  9
$UCSBASE
  2

  9
$UCSNAME
  2

  9
$UCSORG
 10
0
 20
0
 30
0
  9
$UCSXDIR
 10
1
 20
0
 30
0
  9
$UCSYDIR
 10
0
 20
1
 30
0
  9
$UCSORTHOREF
  2

  9
$UCSORTHOVIEW
 70
    0
  9
$UCSORGTOP
 10
0
 20
0
 30
0
  9
$UCSORGBOTTOM
 10
0
 20
0
 30
0
  9
$UCSORGLEFT
 10
0
 20
0
 30
0
  9
$UCSORGRIGHT
 10
0
 20
0
 30
0
  9
$UCSORGFRONT
 10
0
 20
0
 30
0
  9
$UCSORGBACK
 10
0
 20
0
 30
0
  9
$PUCSBASE
  2

  9
$PUCSNAME
  2

  9
$PUCSORG
 10
0
 20
0
 30
0
  9
$PUCSXDIR
 10
1
 20
0
 30
0
  9
$PUCSYDIR
 10
0
 20
1
 30
0
  9
$PUCSORTHOREF
  2

  9
$PUCSORTHOVIEW
 70
    0
  9
$PUCSORGTOP
 10
0
 20
0
 30
0
  9
$PUCSORGBOTTOM
 10
0
 20
0
 30
0
  9
$PUCSORGLEFT
 10
0
 20
0
 30
0
  9
$PUCSORGRIGHT
 10
0
 20
0
 30
0
  9
$PUCSORGFRONT
 10
0
 20
0
 30
0
  9
$PUCSORGBACK
 10
0
 20
0
 30
0
  9
$USERI1
 70
    0
  9
$USERI2
 70
    0
  9
$USERI3
 70
    0
  9
$USERI4
 70
    0
  9
$USERI5
 70
    0
  9
$USERR1
 40
0
  9
$USERR2
 40
0
  9
$USERR3
 40
0
  9
$USERR4
 40
0
  9
$USERR5
 40
0
  9
$WORLDVIEW
 70
    1
  9
$SHADEDGE
 70
    3
  9
$SHADEDIF
 70
   70
  9
$TILEMODE
 70
    1
  9
$MAXACTVP
 70
   64
  9
$PINSBASE
 10
0
 20
0
 30
0
  9
$PLIMCHECK
 70
    0
  9
$PEXTMIN
 10
0
 20
0
 30
0
  9
$PEXTMAX
 10
0
 20
0
 30
0
  9
$GRIDUNIT
 10
0
 20
0
  9
$PLIMMIN
 10
0
 20
0
  9
$PLIMMAX
 10
297
 20
210
  9
$UNITMODE
 70
    0
  9
$VISRETAIN
 70
    1
  9
$PLINEGEN
 70
    0
  9
$PSLTSCALE
 70
    1
  9
$TREEDEPTH
 70
 3020
  9
$CMLSTYLE
  2
Standard
  9
$CMLJUST
 70
    0
  9
$CMLSCALE
 40
20
  9
$PROXYGRAPHICS
 70
    1
  9
$MEASUREMENT
 70
    1
  9
$CELWEIGHT
370
   -1
  9
$ENDCAPS
280
    0
  9
$JOINSTYLE
280
    0
  9
$LWDISPLAY
290
    0
  9
$INSUNITS
 70
    0
  9
$HYPERLINKBASE
  1

  9
$STYLESHEET
  1

  9
$XEDIT
290
    1
  9
$CEPSNTYPE
380
    0
  9
$PSTYLEMODE
290
    1
  9
$EXTNAMES
290
    1
  9
$PSVPSCALE
 40
1
  9
$OLESTARTUP
290
    0
  9
$SORTENTS
280
  127
  9
$INDEXCTL
280
    0
  9
$HIDETEXT
280
    1
  9
$XCLIPFRAME
290
    0
  9
$HALOGAP
280
    0
  9
$OBSCOLOR
 70
  257
  9
$OBSLTYPE
280
    0
  9
$INTERSECTIONDISPLAY
280
    0
  9
$INTERSECTIONCOLOR
 70
  257
  9
$DIMASSOC
280
    1
  9
$PROJECTNAME
  1

  9
$CAMERADISPLAY
290
    0
  9
$LENSLENGTH
 40
50
  9
$CAMERAHEIGHT
 40
0
  9
$STEPSPERSEC
 40
2
  9
$STEPSIZE
 40
50
  9
$3DDWFPREC
 40
2
  9
$PSOLWIDTH
 40
5
  9
$PSOLHEIGHT
 40
80
  9
$LOFTANG1
 40
1.570796326794897
  9
$LOFTANG2
 40
1.570796326794897
  9
$LOFTMAG1
 40
0
  9
$LOFTMAG2
 40
0
  9
$LOFTPARAM
 70
    7
  9
$LOFTNORMALS
280
    1
  9
$LATITUDE
 40
1
  9
$LONGITUDE
 40
1
  9
$NORTHDIRECTION
 40
0
  9
$TIMEZONE
 70
-8000
  9
$LIGHTGLYPHDISPLAY
280
    1
  9
$TILEMODELIGHTSYNCH
280
    1
  9
$SOLIDHIST
280
    1
  9
$SHOWHIST
280
    1
  9
$DWFFRAME
280
    2
  9
$DGNFRAME
280
    0
  9
$REALWORLDSCALE
290
    1
  9
$INTERFERECOLOR
 62
    1
  9
$CSHADOW
280
    0
  9
$SHADOWPLANELOCATION
 40
0
  0
ENDSEC
  0
SECTION
  2
CLASSES
  0
ENDSEC
  0
SECTION
  2
TABLES
  0
TABLE
  2
VPORT
  5
8
330
0
100
AcDbSymbolTable
 70
    1
  0
VPORT
  5
31
330
2
100
AcDbSymbolTableRecord
100
AcDbViewportTableRecord
  2
*ACTIVE
 70
    0
 10
0
 20
0
 11
1
 21
1
 12
443.1288147393011
 22
310.5397307474097
 13
0
 23
0
 14
10
 24
10
 15
10
 25
10
 16
0
 26
0
 36
1
 17
0
 27
0
 37
0
 40
405.1649261898141
 41
2.419743178170144
 42
50
 43
0
 44
0
 50
0
 51
0
 71
    0
 72
  100
 73
    1
 74
    3
 75
    0
 76
    1
 77
    0
 78
    0
281
    0
 65
    1
110
0
120
0
130
0
111
1
121
0
131
0
112
0
122
1
132
0
 79
    0
146
0
348
10020
 60
    7
 61
    5
292
1
282
    1
141
0
142
0
 63
  250
421
3358443
  0
ENDTAB
  0
TABLE
  2
LTYPE
  5
5
330
0
100
AcDbSymbolTable
 70
    4
  0
LTYPE
  5
14
330
5
100
AcDbSymbolTableRecord
100
AcDbLinetypeTableRecord
  2
ByBlock
 70
    0
  3

 72
   65
 73
    0
 40
0
  0
LTYPE
  5
15
330
5
100
AcDbSymbolTableRecord
100
AcDbLinetypeTableRecord
  2
ByLayer
 70
    0
  3

 72
   65
 73
    0
 40
0
  0
LTYPE
  5
16
330
5
100
AcDbSymbolTableRecord
100
AcDbLinetypeTableRecord
  2
Continuous
 70
    0
  3
Solid line
 72
   65
 73
    0
 40
0
  0
LTYPE
  5
32
330
5
100
AcDbSymbolTableRecord
100
AcDbLinetypeTableRecord
  2
DOT
 70
    0
  3
Dot . . . . . . . . . . . . . . . . . . . . . .
 72
   65
 73
    2
 40
6.35
 49
0
 74
    0
 49
-6.35
 74
    0
  0
LTYPE
  5
33
330
5
100
AcDbSymbolTableRecord
100
AcDbLinetypeTableRecord
  2
DOTTINY
 70
    0
  3
Dot (.15x) .....................................
 72
   65
 73
    2
 40
0.9525
 49
0
 74
    0
 49
-0.9525
 74
    0
  0
LTYPE
  5
34
330
5
100
AcDbSymbolTableRecord
100
AcDbLinetypeTableRecord
  2
DOT2
 70
    0
  3
Dot (.5x) .....................................
 72
   65
 73
    2
 40
3.175
 49
0
 74
    0
 49
-3.175
 74
    0
  0
LTYPE
  5
35
330
5
100
AcDbSymbolTableRecord
100
AcDbLinetypeTableRecord
  2
DOTX2
 70
    0
  3
Dot (2x) .  .  .  .  .  .  .  .  .  .  .  .  .
 72
   65
 73
    2
 40
12.7
 49
0
 74
    0
 49
-12.7
 74
    0
  0
LTYPE
  5
36
330
5
100
AcDbSymbolTableRecord
100
AcDbLinetypeTableRecord
  2
DASHED
 70
    0
  3
Dashed _ _ _ _ _ _ _ _ _ _ _ _ _ _ _ _ _
 72
   65
 73
    2
 40
19.05
 49
12.7
 74
    0
 49
-6.35
 74
    0
  0
LTYPE
  5
37
330
5
100
AcDbSymbolTableRecord
100
AcDbLinetypeTableRecord
  2
DASHEDTINY
 70
    0
  3
Dashed (.15x) _ _ _ _ _ _ _ _ _ _ _ _ _ _ _ _ _
 72
   65
 73
    2
 40
2.8575
 49
1.905
 74
    0
 49
-0.9525
 74
    0
  0
LTYPE
  5
38
330
5
100
AcDbSymbolTableRecord
100
AcDbLinetypeTableRecord
  2
DASHED2
 70
    0
  3
Dashed (.5x) _ _ _ _ _ _ _ _ _ _ _ _ _ _ _ _ _
 72
   65
 73
    2
 40
9.524999999999999
 49
6.35
 74
    0
 49
-3.175
 74
    0
  0
LTYPE
  5
39
330
5
100
AcDbSymbolTableRecord
100
AcDbLinetypeTableRecord
  2
DASHEDX2
 70
    0
  3
Dashed (2x) ____  ____  ____  ____  ____  ___
 72
   65
 73
    2
 40
38.09999999999999
 49
25.4
 74
    0
 49
-12.7
 74
    0
  0
LTYPE
  5
3A
330
5
100
AcDbSymbolTableRecord
100
AcDbLinetypeTableRecord
  2
DASHDOT
 70
    0
  3
Dash dot __ . __ . __ . __ . __ . __ . __ . __
 72
   65
 73
    4
 40
25.4
 49
12.7
 74
    0
 49
-6.35
 74
    0
 49
0
 74
    0
 49
-6.35
 74
    0
  0
LTYPE
  5
3B
330
5
100
AcDbSymbolTableRecord
100
AcDbLinetypeTableRecord
  2
DASHDOTTINY
 70
    0
  3
Dash dot (.15x) _._._._._._._._._._._._._._._.
 72
   65
 73
    4
 40
3.81
 49
1.905
 74
    0
 49
-0.9525
 74
    0
 49
0
 74
    0
 49
-0.9525
 74
    0
  0
LTYPE
  5
3C
330
5
100
AcDbSymbolTableRecord
100
AcDbLinetypeTableRecord
  2
DASHDOT2
 70
    0
  3
Dash dot (.5x) _._._._._._._._._._._._._._._.
 72
   65
 73
    4
 40
12.7
 49
6.35
 74
    0
 49
-3.175
 74
    0
 49
0
 74
    0
 49
-3.175
 74
    0
  0
LTYPE
  5
3D
330
5
100
AcDbSymbolTableRecord
100
AcDbLinetypeTableRecord
  2
DASHDOTX2
 70
    0
  3
Dash dot (2x) ____  .  ____  .  ____  .  ___
 72
   65
 73
    4
 40
50.8
 49
25.4
 74
    0
 49
-12.7
 74
    0
 49
0
 74
    0
 49
-12.7
 74
    0
  0
LTYPE
  5
3E
330
5
100
AcDbSymbolTableRecord
100
AcDbLinetypeTableRecord
  2
DIVIDE
 70
    0
  3
Divide ____ . . ____ . . ____ . . ____ . . ____
 72
   65
 73
    6
 40
31.75
 49
12.7
 74
    0
 49
-6.35
 74
    0
 49
0
 74
    0
 49
-6.35
 74
    0
 49
0
 74
    0
 49
-6.35
 74
    0
  0
LTYPE
  5
3F
330
5
100
AcDbSymbolTableRecord
100
AcDbLinetypeTableRecord
  2
DIVIDETINY
 70
    0
  3
Divide (.15x) __..__..__..__..__..__..__..__.._
 72
   65
 73
    6
 40
4.7625
 49
1.905
 74
    0
 49
-0.9525
 74
    0
 49
0
 74
    0
 49
-0.9525
 74
    0
 49
0
 74
    0
 49
-0.9525
 74
    0
  0
LTYPE
  5
40
330
5
100
AcDbSymbolTableRecord
100
AcDbLinetypeTableRecord
  2
DIVIDE2
 70
    0
  3
Divide (.5x) __..__..__..__..__..__..__..__.._
 72
   65
 73
    6
 40
15.875
 49
6.35
 74
    0
 49
-3.175
 74
    0
 49
0
 74
    0
 49
-3.175
 74
    0
 49
0
 74
    0
 49
-3.175
 74
    0
  0
LTYPE
  5
41
330
5
100
AcDbSymbolTableRecord
100
AcDbLinetypeTableRecord
  2
DIVIDEX2
 70
    0
  3
Divide (2x) ________  .  .  ________  .  .  _
 72
   65
 73
    6
 40
63.5
 49
25.4
 74
    0
 49
-12.7
 74
    0
 49
0
 74
    0
 49
-12.7
 74
    0
 49
0
 74
    0
 49
-12.7
 74
    0
  0
LTYPE
  5
42
330
5
100
AcDbSymbolTableRecord
100
AcDbLinetypeTableRecord
  2
BORDER
 70
    0
  3
Border __ __ . __ __ . __ __ . __ __ . __ __ .
 72
   65
 73
    6
 40
44.45
 49
12.7
 74
    0
 49
-6.35
 74
    0
 49
12.7
 74
    0
 49
-6.35
 74
    0
 49
0
 74
    0
 49
-6.35
 74
    0
  0
LTYPE
  5
43
330
5
100
AcDbSymbolTableRecord
100
AcDbLinetypeTableRecord
  2
BORDERTINY
 70
    0
  3
Border (.15x) __.__.__.__.__.__.__.__.__.__.__.
 72
   65
 73
    6
 40
6.6675
 49
1.905
 74
    0
 49
-0.9525
 74
    0
 49
1.905
 74
    0
 49
-0.9525
 74
    0
 49
0
 74
    0
 49
-0.9525
 74
    0
  0
LTYPE
  5
44
330
5
100
AcDbSymbolTableRecord
100
AcDbLinetypeTableRecord
  2
BORDER2
 70
    0
  3
Border (.5x) __.__.__.__.__.__.__.__.__.__.__.
 72
   65
 73
    6
 40
22.225
 49
6.35
 74
    0
 49
-3.175
 74
    0
 49
6.35
 74
    0
 49
-3.175
 74
    0
 49
0
 74
    0
 49
-3.175
 74
    0
  0
LTYPE
  5
45
330
5
100
AcDbSymbolTableRecord
100
AcDbLinetypeTableRecord
  2
BORDERX2
 70
    0
  3
Border (2x) ____  ____  .  ____  ____  .  ___
 72
   65
 73
    6
 40
88.89999999999999
 49
25.4
 74
    0
 49
-12.7
 74
    0
 49
25.4
 74
    0
 49
-12.7
 74
    0
 49
0
 74
    0
 49
-12.7
 74
    0
  0
LTYPE
  5
46
330
5
100
AcDbSymbolTableRecord
100
AcDbLinetypeTableRecord
  2
CENTER
 70
    0
  3
Center ____ _ ____ _ ____ _ ____ _ ____ _ ____
 72
   65
 73
    4
 40
50.8
 49
31.75
 74
    0
 49
-6.35
 74
    0
 49
6.35
 74
    0
 49
-6.35
 74
    0
  0
LTYPE
  5
47
330
5
100
AcDbSymbolTableRecord
100
AcDbLinetypeTableRecord
  2
CENTERTINY
 70
    0
  3
Center (.15x) ___ _ ___ _ ___ _ ___ _ ___ _ ___
 72
   65
 73
    4
 40
7.619999999999999
 49
4.7625
 74
    0
 49
-0.9525
 74
    0
 49
0.9525
 74
    0
 49
-0.9525
 74
    0
  0
LTYPE
  5
48
330
5
100
AcDbSymbolTableRecord
100
AcDbLinetypeTableRecord
  2
CENTER2
 70
    0
  3
Center (.5x) ___ _ ___ _ ___ _ ___ _ ___ _ ___
 72
   65
 73
    4
 40
28.575
 49
19.05
 74
    0
 49
-3.175
 74
    0
 49
3.175
 74
    0
 49
-3.175
 74
    0
  0
LTYPE
  5
49
330
5
100
AcDbSymbolTableRecord
100
AcDbLinetypeTableRecord
  2
CENTERX2
 70
    0
  3
Center (2x) ________  __  ________  __  _____
 72
   65
 73
    4
 40
101.6
 49
63.5
 74
    0
 49
-12.7
 74
    0
 49
12.7
 74
    0
 49
-12.7
 74
    0
  0
ENDTAB
  0
TABLE
  2
LAYER
  5
2
330
0
100
AcDbSymbolTable
 70
    1
  0
LAYER
  5
10
330
2
100
AcDbSymbolTableRecord
100
AcDbLayerTableRecord
  2
0
 70
    0
 62
    7
  6
CONTINUOUS
370
   35
390
F
  0
LAYER
  5
4A
330
2
100
AcDbSymbolTableRecord
100
AcDbLayerTableRecord
  2
kóty
 70
    0
 62
    4
  6
CONTINUOUS
370
   25
390
F
  0
ENDTAB
  0
TABLE
  2
STYLE
  5
3
330
0
100
AcDbSymbolTable
 70
    3
  0
STYLE
  5
4B
330
2
100
AcDbSymbolTableRecord
100
AcDbTextStyleTableRecord
  2
Standard
 70
    0
 40
0
 41
1
 50
0
 71
    0
 42
1
  3
txt
  4

  0
ENDTAB
  0
TABLE
  2
VIEW
  5
6
330
0
100
AcDbSymbolTable
 70
    0
  0
ENDTAB
  0
TABLE
  2
UCS
  5
7
330
0
100
AcDbSymbolTable
 70
    0
  0
ENDTAB
  0
TABLE
  2
APPID
  5
9
330
0
100
AcDbSymbolTable
 70
    1
  0
APPID
  5
12
330
9
100
AcDbSymbolTableRecord
100
AcDbRegAppTableRecord
  2
ACAD
 70
    0
  0
APPID
  5
4C
330
9
100
AcDbSymbolTableRecord
100
AcDbRegAppTableRecord
  2
LibreCad
 70
    0
  0
ENDTAB
  0
TABLE
  2
DIMSTYLE
  5
A
330
0
100
AcDbSymbolTable
 70
    1
100
AcDbDimStyleTable
 71
    1
  0
DIMSTYLE
105
4D
330
A
100
AcDbSymbolTableRecord
100
AcDbDimStyleTableRecord
  2
Standard
 70
    0
 40
2
 41
2.5
 42
0.625
 43
0.38
 44
1.25
 45
0
 46
0
 47
0
 48
0
 49
1
140
2.5
141
0.09
142
1
143
25.4
144
1
145
0
146
1
147
0.625
148
0
 71
    0
 72
    0
 73
    0
 74
    1
 75
    0
 76
    0
 77
    0
 78
    1
 79
    0
170
    0
171
    2
172
    0
173
    0
174
    0
175
    0
176
    0
177
    0
178
    0
179
    2
271
    0
272
    4
273
    2
274
    2
275
    0
276
    0
277
    2
278
    0
279
    0
280
    0
281
    0
282
    0
283
    1
284
    0
285
    0
286
    0
288
    0
289
    3
340
standard
341

371
   -2
372
   -2
  0
ENDTAB
  0
TABLE
  2
BLOCK_RECORD
  5
1
330
0
100
AcDbSymbolTable
 70
    2
  0
BLOCK_RECORD
  5
1F
330
1
100
AcDbSymbolTableRecord
100
AcDbBlockTableRecord
  2
*Model_Space
 70
    0
280
    1
281
    0
  0
BLOCK_RECORD
  5
1E
330
1
100
AcDbSymbolTableRecord
100
AcDbBlockTableRecord
  2
*Paper_Space
 70
    0
280
    1
281
    0
  0
BLOCK_RECORD
  5
4E
330
1
100
AcDbSymbolTableRecord
100
AcDbBlockTableRecord
  2
*D6
 70
    0
280
    1
281
    0
  0
BLOCK_RECORD
  5
51
330
1
100
AcDbSymbolTableRecord
100
AcDbBlockTableRecord
  2
*D22
 70
    0
280
    1
281
    0
  0
BLOCK_RECORD
  5
54
330
1
100
AcDbSymbolTableRecord
100
AcDbBlockTableRecord
  2
*D25
 70
    0
280
    1
281
    0
  0
BLOCK_RECORD
  5
57
330
1
100
AcDbSymbolTableRecord
100
AcDbBlockTableRecord
  2
*D12
 70
    0
280
    1
281
    0
  0
BLOCK_RECORD
  5
5A
330
1
100
AcDbSymbolTableRecord
100
AcDbBlockTableRecord
  2
*D20
 70
    0
280
    1
281
    0
  0
BLOCK_RECORD
  5
5D
330
1
100
AcDbSymbolTableRecord
100
AcDbBlockTableRecord
  2
*D24
 70
    0
280
    1
281
    0
  0
BLOCK_RECORD
  5
60
330
1
100
AcDbSymbolTableRecord
100
AcDbBlockTableRecord
  2
*D32
 70
    0
280
    1
281
    0
  0
BLOCK_RECORD
  5
63
330
1
100
AcDbSymbolTableRecord
100
AcDbBlockTableRecord
  2
*D14
 70
    0
280
    1
281
    0
  0
BLOCK_RECORD
  5
66
330
1
100
AcDbSymbolTableRecord
100
AcDbBlockTableRecord
  2
*D19
 70
    0
280
    1
281
    0
  0
BLOCK_RECORD
  5
69
330
1
100
AcDbSymbolTableRecord
100
AcDbBlockTableRecord
  2
*D5
 70
    0
280
    1
281
    0
  0
BLOCK_RECORD
  5
6C
330
1
100
AcDbSymbolTableRecord
100
AcDbBlockTableRecord
  2
*D10
 70
    0
280
    1
281
    0
  0
BLOCK_RECORD
  5
6F
330
1
100
AcDbSymbolTableRecord
100
AcDbBlockTableRecord
  2
*D31
 70
    0
280
    1
281
    0
  0
BLOCK_RECORD
  5
72
330
1
100
AcDbSymbolTableRecord
100
AcDbBlockTableRecord
  2
*D30
 70
    0
280
    1
281
    0
  0
BLOCK_RECORD
  5
75
330
1
100
AcDbSymbolTableRecord
100
AcDbBlockTableRecord
  2
*D21
 70
    0
280
    1
281
    0
  0
BLOCK_RECORD
  5
78
330
1
100
AcDbSymbolTableRecord
100
AcDbBlockTableRecord
  2
*D28
 70
    0
280
    1
281
    0
  0
BLOCK_RECORD
  5
7B
330
1
100
AcDbSymbolTableRecord
100
AcDbBlockTableRecord
  2
*D9
 70
    0
280
    1
281
    0
  0
BLOCK_RECORD
  5
7E
330
1
100
AcDbSymbolTableRecord
100
AcDbBlockTableRecord
  2
*D11
 70
    0
280
    1
281
    0
  0
BLOCK_RECORD
  5
81
330
1
100
AcDbSymbolTableRecord
100
AcDbBlockTableRecord
  2
*D15
 70
    0
280
    1
281
    0
  0
BLOCK_RECORD
  5
84
330
1
100
AcDbSymbolTableRecord
100
AcDbBlockTableRecord
  2
*D7
 70
    0
280
    1
281
    0
  0
BLOCK_RECORD
  5
87
330
1
100
AcDbSymbolTableRecord
100
AcDbBlockTableRecord
  2
*D17
 70
    0
280
    1
281
    0
  0
BLOCK_RECORD
  5
8A
330
1
100
AcDbSymbolTableRecord
100
AcDbBlockTableRecord
  2
*D3
 70
    0
280
    1
281
    0
  0
BLOCK_RECORD
  5
8D
330
1
100
AcDbSymbolTableRecord
100
AcDbBlockTableRecord
  2
*D29
 70
    0
280
    1
281
    0
  0
BLOCK_RECORD
  5
90
330
1
100
AcDbSymbolTableRecord
100
AcDbBlockTableRecord
  2
*D33
 70
    0
280
    1
281
    0
  0
BLOCK_RECORD
  5
93
330
1
100
AcDbSymbolTableRecord
100
AcDbBlockTableRecord
  2
*D1
 70
    0
280
    1
281
    0
  0
BLOCK_RECORD
  5
96
330
1
100
AcDbSymbolTableRecord
100
AcDbBlockTableRecord
  2
*D2
 70
    0
280
    1
281
    0
  0
BLOCK_RECORD
  5
99
330
1
100
AcDbSymbolTableRecord
100
AcDbBlockTableRecord
  2
*D4
 70
    0
280
    1
281
    0
  0
BLOCK_RECORD
  5
9C
330
1
100
AcDbSymbolTableRecord
100
AcDbBlockTableRecord
  2
*D26
 70
    0
280
    1
281
    0
  0
BLOCK_RECORD
  5
9F
330
1
100
AcDbSymbolTableRecord
100
AcDbBlockTableRecord
  2
*D27
 70
    0
280
    1
281
    0
  0
BLOCK_RECORD
  5
A2
330
1
100
AcDbSymbolTableRecord
100
AcDbBlockTableRecord
  2
*D13
 70
    0
280
    1
281
    0
  0
BLOCK_RECORD
  5
A5
330
1
100
AcDbSymbolTableRecord
100
AcDbBlockTableRecord
  2
*D18
 70
    0
280
    1
281
    0
  0
BLOCK_RECORD
  5
A8
330
1
100
AcDbSymbolTableRecord
100
AcDbBlockTableRecord
  2
*D23
 70
    0
280
    1
281
    0
  0
BLOCK_RECORD
  5
AB
330
1
100
AcDbSymbolTableRecord
100
AcDbBlockTableRecord
  2
*D16
 70
    0
280
    1
281
    0
  0
BLOCK_RECORD
  5
AE
330
1
100
AcDbSymbolTableRecord
100
AcDbBlockTableRecord
  2
*D8
 70
    0
280
    1
281
    0
  0
ENDTAB
  0
ENDSEC
  0
SECTION
  2
BLOCKS
  0
BLOCK
  5
20
330
1F
100
AcDbEntity
  8
0
100
AcDbBlockBegin
  2
*Model_Space
 70
    0
 10
0
 20
0
 30
0
  3
*Model_Space
  1

  0
ENDBLK
  5
21
330
1F
100
AcDbEntity
  8
0
100
AcDbBlockEnd
  0
BLOCK
  5
1C
330
1B
100
AcDbEntity
  8
0
100
AcDbBlockBegin
  2
*Paper_Space
 70
    0
 10
0
 20
0
 30
0
  3
*Paper_Space
  1

  0
ENDBLK
  5
1D
330
1F
100
AcDbEntity
  8
0
100
AcDbBlockEnd
  0
BLOCK
  5
4F
330
4E
100
AcDbEntity
  8
0
100
AcDbBlockBegin
  2
*D6
 70
    1
 10
0
 20
0
  3
*D6
  1

  0
LINE
  5
B1
100
AcDbEntity
  8
kóty
  6
ByBlock
 62
    0
370
   -2
100
AcDbLine
 10
-20.3652566863034
 20
500
 11
-20.36525668630341
 21
390
  0
LINE
  5
B2
100
AcDbEntity
  8
kóty
  6
ByBlock
 62
    0
370
   -2
100
AcDbLine
 10
-18.95104312393031
 20
498.5857864376269
 11
-21.7794702486765
 21
501.4142135623731
  0
LINE
  5
B3
100
AcDbEntity
  8
kóty
  6
ByBlock
 62
    0
370
   -2
100
AcDbLine
 10
-18.95104312393032
 20
388.5857864376269
 11
-21.77947024867651
 21
391.4142135623731
  0
MTEXT
  5
B4
100
AcDbEntity
  8
kóty
  6
CONTINUOUS
 62
    0
370
   -2
100
AcDbMText
 10
-24.11525668630341
 20
445
 30
0
 40
5
 41
7.777777777777779
 71
    5
 72
    1
  1
110
  7
standard
210
0
220
0
230
1
 50
90
 73
    2
 44
1
  0
LINE
  5
B5
100
AcDbEntity
  8
kóty
  6
ByBlock
 62
    0
370
   -2
100
AcDbLine
 10
16.75
 20
500
 11
-22.8652566863034
 21
500
  0
LINE
  5
B6
100
AcDbEntity
  8
kóty
  6
ByBlock
 62
    0
370
   -2
100
AcDbLine
 10
16.75
 20
390
 11
-22.86525668630341
 21
390
  0
ENDBLK
  5
50
330
4E
100
AcDbEntity
  8
0
100
AcDbBlockEnd
  0
BLOCK
  5
52
330
51
100
AcDbEntity
  8
0
100
AcDbBlockBegin
  2
*D22
 70
    1
 10
0
 20
0
  3
*D22
  1

  0
LINE
  5
B7
100
AcDbEntity
  8
kóty
  6
ByBlock
 62
    0
370
   -2
100
AcDbLine
 10
418.7652023737388
 20
438.5556504761463
 11
431.2944044293462
 21
438.5556504761463
  0
LINE
  5
B8
100
AcDbEntity
  8
kóty
  6
ByBlock
 62
    0
370
   -2
100
AcDbLine
 10
418.7652023737388
 20
318.9693885825188
 11
431.2944044293462
 21
318.9693885825188
  0
LINE
  5
B9
100
AcDbEntity
  8
kóty
  6
ByBlock
 62
    0
370
   -2
100
AcDbLine
 10
428.7944044293462
 20
438.5556504761463
 11
428.7944044293462
 21
318.9693885825188
  0
LINE
  5
BA
100
AcDbEntity
  8
kóty
  6
ByBlock
 62
    0
370
   -2
100
AcDbLine
 10
430.2086179917193
 20
437.1414369137732
 11
427.3801908669731
 21
439.9698640385194
  0
LINE
  5
BB
100
AcDbEntity
  8
kóty
  6
ByBlock
 62
    0
370
   -2
100
AcDbLine
 10
430.2086179917193
 20
317.5551750201457
 11
427.3801908669731
 21
320.3836021448919
  0
MTEXT
  5
BC
100
AcDbEntity
  8
kóty
  6
CONTINUOUS
 62
    0
370
   -2
100
AcDbMText
 10
425.0444044293462
 20
378.7625195293325
 30
0
 40
5
 41
8.888888888888889
 71
    5
 72
    1
  1
120
  7
standard
210
0
220
0
230
1
 50
90
 73
    2
 44
1
  0
ENDBLK
  5
53
330
51
100
AcDbEntity
  8
0
100
AcDbBlockEnd
  0
BLOCK
  5
55
330
54
100
AcDbEntity
  8
0
100
AcDbBlockBegin
  2
*D25
 70
    1
 10
0
 20
0
  3
*D25
  1

  0
LINE
  5
BD
100
AcDbEntity
  8
kóty
  6
ByBlock
 62
    0
370
   -2
100
AcDbLine
 10
390.4990395261456
 20
448.3887295967587
 11
399.3464915259321
 21
445.1685204197374
  0
LINE
  5
BE
100
AcDbEntity
  8
kóty
  6
ByBlock
 62
    0
370
   -2
100
AcDbLine
 10
405.9594878491545
 20
490.8659622588707
 11
414.806939848941
 21
487.6457530818495
  0
LINE
  5
BF
100
AcDbEntity
  8
kóty
  6
ByBlock
 62
    0
370
   -2
100
AcDbLine
 10
396.9972599739673
 20
446.0235707780516
 11
412.4577082969763
 21
488.5008034401636
  0
LINE
  5
C0
100
AcDbEntity
  8
kóty
  6
ByBlock
 62
    0
370
   -2
100
AcDbLine
 10
396.152023450486
 20
447.8361863521249
 11
397.8424964974487
 21
444.2109552039783
  0
LINE
  5
C1
100
AcDbEntity
  8
kóty
  6
ByBlock
 62
    0
370
   -2
100
AcDbLine
 10
411.6124717734949
 20
490.3134190142369
 11
413.3029448204576
 21
486.6881878660903
  0
MTEXT
  5
C2
100
AcDbEntity
  8
kóty
  6
CONTINUOUS
 62
    0
370
   -2
100
AcDbMText
 10
401.2036368075246
 20
468.5447626465788
 30
0
 40
5
 41
6.666666666666977
 71
    5
 72
    1
  1
45
  7
standard
210
0
220
0
230
1
 50
70
 73
    2
 44
1
  0
ENDBLK
  5
56
330
54
100
AcDbEntity
  8
0
100
AcDbBlockEnd
  0
BLOCK
  5
58
330
57
100
AcDbEntity
  8
0
100
AcDbBlockBegin
  2
*D12
 70
    1
 10
0
 20
0
  3
*D12
  1

  0
LINE
  5
C3
100
AcDbEntity
  8
kóty
  6
ByBlock
 62
    0
370
   -2
100
AcDbLine
 10
161
 20
508.8885752256505
 11
179
 21
508.8885752256505
  0
LINE
  5
C4
100
AcDbEntity
  8
kóty
  6
ByBlock
 62
    0
370
   -2
100
AcDbLine
 10
162.4142135623731
 20
510.3027887880236
 11
159.5857864376269
 21
507.4743616632774
  0
LINE
  5
C5
100
AcDbEntity
  8
kóty
  6
ByBlock
 62
    0
370
   -2
100
AcDbLine
 10
180.4142135623731
 20
510.3027887880236
 11
177.5857864376269
 21
507.4743616632774
  0
MTEXT
  5
C6
100
AcDbEntity
  8
kóty
  6
CONTINUOUS
 62
    0
370
   -2
100
AcDbMText
 10
170
 20
512.6385752256505
 30
0
 40
5
 41
5
 71
    5
 72
    1
  1
18
  7
standard
210
0
220
0
230
1
 50
0
 73
    2
 44
1
  0
LINE
  5
C7
100
AcDbEntity
  8
kóty
  6
ByBlock
 62
    0
370
   -2
100
AcDbLine
 10
161
 20
501.25
 11
161
 21
511.3885752256505
  0
LINE
  5
C8
100
AcDbEntity
  8
kóty
  6
ByBlock
 62
    0
370
   -2
100
AcDbLine
 10
179
 20
501.25
 11
179
 21
511.3885752256505
  0
ENDBLK
  5
59
330
57
100
AcDbEntity
  8
0
100
AcDbBlockEnd
  0
BLOCK
  5
5B
330
5A
100
AcDbEntity
  8
0
100
AcDbBlockBegin
  2
*D20
 70
    1
 10
0
 20
0
  3
*D20
  1

  0
LINE
  5
C9
100
AcDbEntity
  8
kóty
  6
ByBlock
 62
    0
370
   -2
100
AcDbLine
 10
223.8298586946877
 20
319.3969137616759
 11
213.4062982242788
 21
323.1907795079786
  0
LINE
  5
CA
100
AcDbEntity
  8
kóty
  6
ByBlock
 62
    0
370
   -2
100
AcDbLine
 10
300.2440680107399
 20
529.3432283830084
 11
289.820507540331
 21
533.1370941293111
  0
LINE
  5
CB
100
AcDbEntity
  8
kóty
  6
ByBlock
 62
    0
370
   -2
100
AcDbLine
 10
215.7555297762436
 20
322.3357291496644
 11
292.1697390922957
 21
532.2820437709969
  0
LINE
  5
CC
100
AcDbEntity
  8
kóty
  6
ByBlock
 62
    0
370
   -2
100
AcDbLine
 10
214.9102932527622
 20
324.1483447237377
 11
216.600766299725
 21
320.5231135755911
  0
LINE
  5
CD
100
AcDbEntity
  8
kóty
  6
ByBlock
 62
    0
370
   -2
100
AcDbLine
 10
291.3245025688144
 20
534.0946593450702
 11
293.0149756157771
 21
530.4694281969236
  0
MTEXT
  5
CE
100
AcDbEntity
  8
kóty
  6
CONTINUOUS
 62
    0
370
   -2
100
AcDbMText
 10
250.4387871063225
 20
428.5914619978019
 30
0
 40
5
 41
10.00000000000031
 71
    5
 72
    1
  1
223
  7
standard
210
0
220
0
230
1
 50
70
 73
    2
 44
1
  0
ENDBLK
  5
5C
330
5A
100
AcDbEntity
  8
0
100
AcDbBlockEnd
  0
BLOCK
  5
5E
330
5D
100
AcDbEntity
  8
0
100
AcDbBlockBegin
  2
*D24
 70
    1
 10
0
 20
0
  3
*D24
  1

  0
LINE
  5
CF
100
AcDbEntity
  8
kóty
  6
ByBlock
 62
    0
370
   -2
100
AcDbLine
 10
373.9893626172957
 20
311.3014871243058
 11
417.5152023737388
 21
311.3014871243058
  0
LINE
  5
D0
100
AcDbEntity
  8
kóty
  6
ByBlock
 62
    0
370
   -2
100
AcDbLine
 10
375.4035761796688
 20
312.7157006866789
 11
372.5751490549226
 21
309.8872735619327
  0
LINE
  5
D1
100
AcDbEntity
  8
kóty
  6
ByBlock
 62
    0
370
   -2
100
AcDbLine
 10
418.9294159361119
 20
312.7157006866789
 11
416.1009888113657
 21
309.8872735619327
  0
MTEXT
  5
D2
100
AcDbEntity
  8
kóty
  6
CONTINUOUS
 62
    0
370
   -2
100
AcDbMText
 10
395.7522824955172
 20
315.0514871243058
 30
0
 40
5
 41
7.222222222222222
 71
    5
 72
    1
  1
44
  7
standard
210
0
220
0
230
1
 50
0
 73
    2
 44
1
  0
LINE
  5
D3
100
AcDbEntity
  8
kóty
  6
ByBlock
 62
    0
370
   -2
100
AcDbLine
 10
373.9893626172957
 20
317.7193885825188
 11
373.9893626172957
 21
308.8014871243058
  0
LINE
  5
D4
100
AcDbEntity
  8
kóty
  6
ByBlock
 62
    0
370
   -2
100
AcDbLine
 10
417.5152023737388
 20
317.7193885825188
 11
417.5152023737388
 21
308.8014871243058
  0
ENDBLK
  5
5F
330
5D
100
AcDbEntity
  8
0
100
AcDbBlockEnd
  0
BLOCK
  5
61
330
60
100
AcDbEntity
  8
0
100
AcDbBlockBegin
  2
*D32
 70
    1
 10
0
 20
0
  3
*D32
  1

  0
LINE
  5
D5
100
AcDbEntity
  8
kóty
  6
ByBlock
 62
    0
370
   -2
100
AcDbLine
 10
608.1794604943559
 20
331.5743183817136
 11
714.6340380865604
 21
331.5743183817136
  0
LINE
  5
D6
100
AcDbEntity
  8
kóty
  6
ByBlock
 62
    0
370
   -2
100
AcDbLine
 10
609.593674056729
 20
332.9885319440867
 11
606.7652469319828
 21
330.1601048193405
  0
LINE
  5
D7
100
AcDbEntity
  8
kóty
  6
ByBlock
 62
    0
370
   -2
100
AcDbLine
 10
716.0482516489335
 20
332.9885319440867
 11
713.2198245241873
 21
330.1601048193405
  0
MTEXT
  5
D8
100
AcDbEntity
  8
kóty
  6
CONTINUOUS
 62
    0
370
   -2
100
AcDbMText
 10
661.4067492904582
 20
335.3243183817136
 30
0
 40
5
 41
8.888888888889198
 71
    5
 72
    1
  1
106
  7
standard
210
0
220
0
230
1
 50
0
 73
    2
 44
1
  0
LINE
  5
D9
100
AcDbEntity
  8
kóty
  6
ByBlock
 62
    0
370
   -2
100
AcDbLine
 10
608.1794604943559
 20
453.0401055507832
 11
608.1794604943559
 21
329.0743183817136
  0
LINE
  5
DA
100
AcDbEntity
  8
kóty
  6
ByBlock
 62
    0
370
   -2
100
AcDbLine
 10
714.6340380865604
 20
388.0401055507832
 11
714.6340380865604
 21
329.0743183817136
  0
ENDBLK
  5
62
330
60
100
AcDbEntity
  8
0
100
AcDbBlockEnd
  0
BLOCK
  5
64
330
63
100
AcDbEntity
  8
0
100
AcDbBlockBegin
  2
*D14
 70
    1
 10
0
 20
0
  3
*D14
  1

  0
LINE
  5
DB
100
AcDbEntity
  8
kóty
  6
ByBlock
 62
    0
370
   -2
100
AcDbLine
 10
57.10537264418481
 20
450
 11
57.10537264418481
 21
425
  0
LINE
  5
DC
100
AcDbEntity
  8
kóty
  6
ByBlock
 62
    0
370
   -2
100
AcDbLine
 10
58.5195862065579
 20
448.5857864376269
 11
55.69115908181172
 21
451.4142135623731
  0
LINE
  5
DD
100
AcDbEntity
  8
kóty
  6
ByBlock
 62
    0
370
   -2
100
AcDbLine
 10
58.5195862065579
 20
423.5857864376269
 11
55.69115908181172
 21
426.4142135623731
  0
MTEXT
  5
DE
100
AcDbEntity
  8
kóty
  6
CONTINUOUS
 62
    0
370
   -2
100
AcDbMText
 10
53.35537264418481
 20
437.5
 30
0
 40
5
 41
6.111111111111422
 71
    5
 72
    1
  1
25
  7
standard
210
0
220
0
230
1
 50
90
 73
    2
 44
1
  0
LINE
  5
DF
100
AcDbEntity
  8
kóty
  6
ByBlock
 62
    0
370
   -2
100
AcDbLine
 10
62.75
 20
450
 11
54.60537264418481
 21
450
  0
LINE
  5
E0
100
AcDbEntity
  8
kóty
  6
ByBlock
 62
    0
370
   -2
100
AcDbLine
 10
62.75
 20
425
 11
54.60537264418481
 21
425
  0
ENDBLK
  5
65
330
63
100
AcDbEntity
  8
0
100
AcDbBlockEnd
  0
BLOCK
  5
67
330
66
100
AcDbEntity
  8
0
100
AcDbBlockBegin
  2
*D19
 70
    1
 10
0
 20
0
  3
*D19
  1

  0
LINE
  5
E1
100
AcDbEntity
  8
kóty
  6
ByBlock
 62
    0
370
   -2
100
AcDbLine
 10
301.8462089658793
 20
530.0903189798337
 11
306.2981321475635
 21
542.3218773946578
  0
LINE
  5
E2
100
AcDbEntity
  8
kóty
  6
ByBlock
 62
    0
370
   -2
100
AcDbLine
 10
405.2123972523292
 20
492.4681032140101
 11
409.6643204340134
 21
504.6996616288342
  0
LINE
  5
E3
100
AcDbEntity
  8
kóty
  6
ByBlock
 62
    0
370
   -2
100
AcDbLine
 10
305.4430817892494
 20
539.9726458426931
 11
408.8092700756993
 21
502.3504300768694
  0
LINE
  5
E4
100
AcDbEntity
  8
kóty
  6
ByBlock
 62
    0
370
   -2
100
AcDbLine
 10
307.2556973633227
 20
540.8178823661744
 11
303.6304662151761
 21
539.1274093192117
  0
LINE
  5
E5
100
AcDbEntity
  8
kóty
  6
ByBlock
 62
    0
370
   -2
100
AcDbLine
 10
410.6218856497725
 20
503.1956666003508
 11
406.996654501626
 21
501.505193553388
  0
MTEXT
  5
E6
100
AcDbEntity
  8
kóty
  6
CONTINUOUS
 62
    0
370
   -2
100
AcDbMText
 10
358.4087514699456
 20
524.6853852877284
 30
0
 40
5
 41
7.777777777777779
 71
    5
 72
    1
  1
110
  7
standard
210
0
220
0
230
1
 50
340
 73
    2
 44
1
  0
ENDBLK
  5
68
330
66
100
AcDbEntity
  8
0
100
AcDbBlockEnd
  0
BLOCK
  5
6A
330
69
100
AcDbEntity
  8
0
100
AcDbBlockBegin
  2
*D5
 70
    1
 10
0
 20
0
  3
*D5
  1

  0
LINE
  5
E7
100
AcDbEntity
  8
kóty
  6
ByBlock
 62
    0
370
   -2
100
AcDbLine
 10
-9.835493285998808
 20
405
 11
-9.835493285998808
 21
380
  0
LINE
  5
E8
100
AcDbEntity
  8
kóty
  6
ByBlock
 62
    0
370
   -2
100
AcDbLine
 10
-11.2497068483719
 20
396.4142135623731
 11
-8.421279723625714
 21
393.5857864376269
  0
LINE
  5
E9
100
AcDbEntity
  8
kóty
  6
ByBlock
 62
    0
370
   -2
100
AcDbLine
 10
-11.2497068483719
 20
391.4142135623731
 11
-8.421279723625714
 21
388.5857864376269
  0
MTEXT
  5
EA
100
AcDbEntity
  8
kóty
  6
CONTINUOUS
 62
    0
370
   -2
100
AcDbMText
 10
-13.58549328599881
 20
392.5
 30
0
 40
5
 41
2.222222222222532
 71
    5
 72
    1
  1
5
  7
standard
210
0
220
0
230
1
 50
90
 73
    2
 44
1
  0
LINE
  5
EB
100
AcDbEntity
  8
kóty
  6
ByBlock
 62
    0
370
   -2
100
AcDbLine
 10
16.75
 20
395
 11
-12.33549328599881
 21
395
  0
LINE
  5
EC
100
AcDbEntity
  8
kóty
  6
ByBlock
 62
    0
370
   -2
100
AcDbLine
 10
16.75
 20
390
 11
-12.33549328599881
 21
390
  0
ENDBLK
  5
6B
330
69
100
AcDbEntity
  8
0
100
AcDbBlockEnd
  0
BLOCK
  5
6D
330
6C
100
AcDbEntity
  8
0
100
AcDbBlockBegin
  2
*D10
 70
    1
 10
0
 20
0
  3
*D10
  1

  0
LINE
  5
ED
100
AcDbEntity
  8
kóty
  6
ByBlock
 62
    0
370
   -2
100
AcDbLine
 10
31
 20
508.9043597981143
 11
56
 21
508.9043597981143
  0
LINE
  5
EE
100
AcDbEntity
  8
kóty
  6
ByBlock
 62
    0
370
   -2
100
AcDbLine
 10
39.58578643762691
 20
507.4901462357412
 11
42.41421356237309
 21
510.3185733604874
  0
LINE
  5
EF
100
AcDbEntity
  8
kóty
  6
ByBlock
 62
    0
370
   -2
100
AcDbLine
 10
44.58578643762691
 20
507.4901462357412
 11
47.41421356237309
 21
510.3185733604874
  0
MTEXT
  5
F0
100
AcDbEntity
  8
kóty
  6
CONTINUOUS
 62
    0
370
   -2
100
AcDbMText
 10
43.5
 20
512.6543597981142
 30
0
 40
5
 41
2.222222222222532
 71
    5
 72
    1
  1
5
  7
standard
210
0
220
0
230
1
 50
0
 73
    2
 44
1
  0
LINE
  5
F1
100
AcDbEntity
  8
kóty
  6
ByBlock
 62
    0
370
   -2
100
AcDbLine
 10
41
 20
501.25
 11
41
 21
511.4043597981143
  0
LINE
  5
F2
100
AcDbEntity
  8
kóty
  6
ByBlock
 62
    0
370
   -2
100
AcDbLine
 10
46
 20
501.25
 11
46
 21
511.4043597981143
  0
ENDBLK
  5
6E
330
6C
100
AcDbEntity
  8
0
100
AcDbBlockEnd
  0
BLOCK
  5
70
330
6F
100
AcDbEntity
  8
0
100
AcDbBlockBegin
  2
*D31
 70
    1
 10
0
 20
0
  3
*D31
  1

  0
LINE
  5
F3
100
AcDbEntity
  8
kóty
  6
ByBlock
 62
    0
370
   -2
100
AcDbLine
 10
587.7308707124141
 20
454.2901055507832
 11
587.7308707124141
 21
389.2901055507832
  0
LINE
  5
F4
100
AcDbEntity
  8
kóty
  6
ByBlock
 62
    0
370
   -2
100
AcDbLine
 10
589.1450842747872
 20
452.8758919884101
 11
586.316657150041
 21
455.7043191131563
  0
LINE
  5
F5
100
AcDbEntity
  8
kóty
  6
ByBlock
 62
    0
370
   -2
100
AcDbLine
 10
589.1450842747872
 20
387.8758919884101
 11
586.316657150041
 21
390.7043191131563
  0
MTEXT
  5
F6
100
AcDbEntity
  8
kóty
  6
CONTINUOUS
 62
    0
370
   -2
100
AcDbMText
 10
583.9808707124141
 20
421.7901055507832
 30
0
 40
5
 41
6.111111111111732
 71
    5
 72
    1
  1
65
  7
standard
210
0
220
0
230
1
 50
90
 73
    2
 44
1
  0
LINE
  5
F7
100
AcDbEntity
  8
kóty
  6
ByBlock
 62
    0
370
   -2
100
AcDbLine
 10
606.9294604943559
 20
454.2901055507832
 11
585.2308707124141
 21
454.2901055507832
  0
LINE
  5
F8
100
AcDbEntity
  8
kóty
  6
ByBlock
 62
    0
370
   -2
100
AcDbLine
 10
713.3840380865604
 20
389.2901055507832
 11
585.2308707124141
 21
389.2901055507832
  0
ENDBLK
  5
71
330
6F
100
AcDbEntity
  8
0
100
AcDbBlockEnd
  0
BLOCK
  5
73
330
72
100
AcDbEntity
  8
0
100
AcDbBlockBegin
  2
*D30
 70
    1
 10
0
 20
0
  3
*D30
  1

  0
LINE
  5
F9
100
AcDbEntity
  8
kóty
  6
ByBlock
 62
    0
370
   -2
100
AcDbLine
 10
699.6344619959654
 20
389.4028756818024
 11
729.6336141771554
 21
389.1773354197641
  0
LINE
  5
FA
100
AcDbEntity
  8
kóty
  6
ByBlock
 62
    0
370
   -2
100
AcDbLine
 10
708.2093737239697
 20
387.9241540685597
 11
711.0589850554211
 21
390.7312371203528
  0
LINE
  5
FB
100
AcDbEntity
  8
kóty
  6
ByBlock
 62
    0
370
   -2
100
AcDbLine
 10
718.2090911176997
 20
387.8489739812136
 11
721.058702449151
 21
390.6560570330067
  0
MTEXT
  5
FC
100
AcDbEntity
  8
kóty
  6
CONTINUOUS
 62
    0
370
   -2
100
AcDbMText
 10
714.6622306193152
 20
393.0399995734319
 30
0
 40
5
 41
5
 71
    5
 72
    1
  1
10
  7
standard
210
0
220
0
230
1
 50
359.5692457713619
 73
    2
 44
1
  0
ENDBLK
  5
74
330
72
100
AcDbEntity
  8
0
100
AcDbBlockEnd
  0
BLOCK
  5
76
330
75
100
AcDbEntity
  8
0
100
AcDbBlockBegin
  2
*D21
 70
    1
 10
0
 20
0
  3
*D21
  1

  0
LINE
  5
FD
100
AcDbEntity
  8
kóty
  6
ByBlock
 62
    0
370
   -2
100
AcDbLine
 10
403.6102562971898
 20
491.7210126171848
 11
386.7535963504228
 21
497.8563350869553
  0
LINE
  5
FE
100
AcDbEntity
  8
kóty
  6
ByBlock
 62
    0
370
   -2
100
AcDbLine
 10
340.889413667038
 20
319.3969137616759
 11
324.0327537202709
 21
325.5322362314464
  0
LINE
  5
FF
100
AcDbEntity
  8
kóty
  6
ByBlock
 62
    0
370
   -2
100
AcDbLine
 10
389.1028279023875
 20
497.0012847286412
 11
326.3819852722356
 21
324.6771858731323
  0
LINE
  5
100
100
AcDbEntity
  8
kóty
  6
ByBlock
 62
    0
370
   -2
100
AcDbLine
 10
389.9480644258689
 20
495.1886691545679
 11
388.2575913789061
 21
498.8139003027144
  0
LINE
  5
101
100
AcDbEntity
  8
kóty
  6
ByBlock
 62
    0
370
   -2
100
AcDbLine
 10
327.227221795717
 20
322.864570299059
 11
325.5367487487542
 21
326.4898014472055
  0
MTEXT
  5
102
100
AcDbEntity
  8
kóty
  6
CONTINUOUS
 62
    0
370
   -2
100
AcDbMText
 10
354.2185592593644
 20
412.1218108383579
 30
0
 40
5
 41
8.888888888889198
 71
    5
 72
    1
  1
183
  7
standard
210
0
220
0
230
1
 50
69.99999999999997
 73
    2
 44
1
  0
ENDBLK
  5
77
330
75
100
AcDbEntity
  8
0
100
AcDbBlockEnd
  0
BLOCK
  5
79
330
78
100
AcDbEntity
  8
0
100
AcDbBlockBegin
  2
*D28
 70
    1
 10
0
 20
0
  3
*D28
  1

  0
LINE
  5
103
100
AcDbEntity
  8
kóty
  6
ByBlock
 62
    0
370
   -2
100
AcDbLine
 10
607.327440409935
 20
453.3754680402124
 11
593.8251535217769
 21
438.8808589433015
  0
LINE
  5
104
100
AcDbEntity
  8
kóty
  6
ByBlock
 62
    0
370
   -2
100
AcDbLine
 10
716.1664495725855
 20
351.987737159621
 11
702.6641626844274
 21
337.4931280627101
  0
LINE
  5
105
100
AcDbEntity
  8
kóty
  6
ByBlock
 62
    0
370
   -2
100
AcDbLine
 10
595.5291936906189
 20
440.7101339644433
 11
704.3682028532694
 21
339.3224030838519
  0
LINE
  5
106
100
AcDbEntity
  8
kóty
  6
ByBlock
 62
    0
370
   -2
100
AcDbLine
 10
597.5279385953444
 20
440.780977495085
 11
593.5304487858933
 21
440.6392904338016
  0
LINE
  5
107
100
AcDbEntity
  8
kóty
  6
ByBlock
 62
    0
370
   -2
100
AcDbLine
 10
706.3669477579949
 20
339.3932466144936
 11
702.3694579485439
 21
339.2515595532102
  0
MTEXT
  5
108
100
AcDbEntity
  8
kóty
  6
CONTINUOUS
 62
    0
370
   -2
100
AcDbMText
 10
652.5047585252071
 20
392.7601810558602
 30
0
 40
5
 41
9.444444444444445
 71
    5
 72
    1
  1
149
  7
standard
210
0
220
0
230
1
 50
317.0299423020535
 73
    2
 44
1
  0
ENDBLK
  5
7A
330
78
100
AcDbEntity
  8
0
100
AcDbBlockEnd
  0
BLOCK
  5
7C
330
7B
100
AcDbEntity
  8
0
100
AcDbBlockBegin
  2
*D9
 70
    1
 10
0
 20
0
  3
*D9
  1

  0
LINE
  5
109
100
AcDbEntity
  8
kóty
  6
ByBlock
 62
    0
370
   -2
100
AcDbLine
 10
23
 20
508.9043597981143
 11
41
 21
508.9043597981143
  0
LINE
  5
10A
100
AcDbEntity
  8
kóty
  6
ByBlock
 62
    0
370
   -2
100
AcDbLine
 10
24.4142135623731
 20
510.3185733604874
 11
21.5857864376269
 21
507.4901462357412
  0
LINE
  5
10B
100
AcDbEntity
  8
kóty
  6
ByBlock
 62
    0
370
   -2
100
AcDbLine
 10
42.41421356237309
 20
510.3185733604874
 11
39.58578643762691
 21
507.4901462357412
  0
MTEXT
  5
10C
100
AcDbEntity
  8
kóty
  6
CONTINUOUS
 62
    0
370
   -2
100
AcDbMText
 10
32
 20
512.6543597981142
 30
0
 40
5
 41
5
 71
    5
 72
    1
  1
18
  7
standard
210
0
220
0
230
1
 50
0
 73
    2
 44
1
  0
LINE
  5
10D
100
AcDbEntity
  8
kóty
  6
ByBlock
 62
    0
370
   -2
100
AcDbLine
 10
23
 20
501.25
 11
23
 21
511.4043597981143
  0
LINE
  5
10E
100
AcDbEntity
  8
kóty
  6
ByBlock
 62
    0
370
   -2
100
AcDbLine
 10
41
 20
501.25
 11
41
 21
511.4043597981143
  0
ENDBLK
  5
7D
330
7B
100
AcDbEntity
  8
0
100
AcDbBlockEnd
  0
BLOCK
  5
7F
330
7E
100
AcDbEntity
  8
0
100
AcDbBlockBegin
  2
*D11
 70
    1
 10
0
 20
0
  3
*D11
  1

  0
LINE
  5
10F
100
AcDbEntity
  8
kóty
  6
ByBlock
 62
    0
370
   -2
100
AcDbLine
 10
146
 20
508.8885752256505
 11
171
 21
508.8885752256505
  0
LINE
  5
110
100
AcDbEntity
  8
kóty
  6
ByBlock
 62
    0
370
   -2
100
AcDbLine
 10
154.5857864376269
 20
507.4743616632774
 11
157.4142135623731
 21
510.3027887880236
  0
LINE
  5
111
100
AcDbEntity
  8
kóty
  6
ByBlock
 62
    0
370
   -2
100
AcDbLine
 10
159.5857864376269
 20
507.4743616632774
 11
162.4142135623731
 21
510.3027887880236
  0
MTEXT
  5
112
100
AcDbEntity
  8
kóty
  6
CONTINUOUS
 62
    0
370
   -2
100
AcDbMText
 10
158.5
 20
512.6385752256505
 30
0
 40
5
 41
2.222222222222532
 71
    5
 72
    1
  1
5
  7
standard
210
0
220
0
230
1
 50
0
 73
    2
 44
1
  0
LINE
  5
113
100
AcDbEntity
  8
kóty
  6
ByBlock
 62
    0
370
   -2
100
AcDbLine
 10
156
 20
501.25
 11
156
 21
511.3885752256505
  0
LINE
  5
114
100
AcDbEntity
  8
kóty
  6
ByBlock
 62
    0
370
   -2
100
AcDbLine
 10
161
 20
501.25
 11
161
 21
511.3885752256505
  0
ENDBLK
  5
80
330
7E
100
AcDbEntity
  8
0
100
AcDbBlockEnd
  0
BLOCK
  5
82
330
81
100
AcDbEntity
  8
0
100
AcDbBlockBegin
  2
*D15
 70
    1
 10
0
 20
0
  3
*D15
  1

  0
LINE
  5
115
100
AcDbEntity
  8
kóty
  6
ByBlock
 62
    0
370
   -2
100
AcDbLine
 10
79.92962033112389
 20
450
 11
79.92962033112389
 21
435
  0
LINE
  5
116
100
AcDbEntity
  8
kóty
  6
ByBlock
 62
    0
370
   -2
100
AcDbLine
 10
81.34383389349698
 20
448.5857864376269
 11
78.51540676875079
 21
451.4142135623731
  0
LINE
  5
117
100
AcDbEntity
  8
kóty
  6
ByBlock
 62
    0
370
   -2
100
AcDbLine
 10
81.34383389349698
 20
433.5857864376269
 11
78.51540676875079
 21
436.4142135623731
  0
MTEXT
  5
118
100
AcDbEntity
  8
kóty
  6
CONTINUOUS
 62
    0
370
   -2
100
AcDbMText
 10
76.17962033112389
 20
442.5
 30
0
 40
5
 41
5.000000000000311
 71
    5
 72
    1
  1
15
  7
standard
210
0
220
0
230
1
 50
90
 73
    2
 44
1
  0
LINE
  5
119
100
AcDbEntity
  8
kóty
  6
ByBlock
 62
    0
370
   -2
100
AcDbLine
 10
85.75
 20
450
 11
77.42962033112389
 21
450
  0
LINE
  5
11A
100
AcDbEntity
  8
kóty
  6
ByBlock
 62
    0
370
   -2
100
AcDbLine
 10
85.75
 20
435
 11
77.42962033112389
 21
435
  0
ENDBLK
  5
83
330
81
100
AcDbEntity
  8
0
100
AcDbBlockEnd
  0
BLOCK
  5
85
330
84
100
AcDbEntity
  8
0
100
AcDbBlockBegin
  2
*D7
 70
    1
 10
0
 20
0
  3
*D7
  1

  0
LINE
  5
11B
100
AcDbEntity
  8
kóty
  6
ByBlock
 62
    0
370
   -2
100
AcDbLine
 10
0
 20
509.0157054718678
 11
18
 21
509.0157054718678
  0
LINE
  5
11C
100
AcDbEntity
  8
kóty
  6
ByBlock
 62
    0
370
   -2
100
AcDbLine
 10
1.414213562373095
 20
510.4299190342409
 11
-1.414213562373095
 21
507.6014919094947
  0
LINE
  5
11D
100
AcDbEntity
  8
kóty
  6
ByBlock
 62
    0
370
   -2
100
AcDbLine
 10
19.4142135623731
 20
510.4299190342409
 11
16.5857864376269
 21
507.6014919094947
  0
MTEXT
  5
11E
100
AcDbEntity
  8
kóty
  6
CONTINUOUS
 62
    0
370
   -2
100
AcDbMText
 10
9
 20
512.7657054718677
 30
0
 40
5
 41
5
 71
    5
 72
    1
  1
18
  7
standard
210
0
220
0
230
1
 50
0
 73
    2
 44
1
  0
LINE
  5
11F
100
AcDbEntity
  8
kóty
  6
ByBlock
 62
    0
370
   -2
100
AcDbLine
 10
7.654042494670958e-17
 20
501.2499999999999
 11
1.530808498934192e-16
 21
511.5157054718678
  0
LINE
  5
120
100
AcDbEntity
  8
kóty
  6
ByBlock
 62
    0
370
   -2
100
AcDbLine
 10
18
 20
501.25
 11
18
 21
511.5157054718678
  0
ENDBLK
  5
86
330
84
100
AcDbEntity
  8
0
100
AcDbBlockEnd
  0
BLOCK
  5
88
330
87
100
AcDbEntity
  8
0
100
AcDbBlockBegin
  2
*D17
 70
    1
 10
0
 20
0
  3
*D17
  1

  0
LINE
  5
121
100
AcDbEntity
  8
kóty
  6
ByBlock
 62
    0
370
   -2
100
AcDbLine
 10
225.0044744706701
 20
304.2088885825186
 11
417.5152023737388
 21
304.2088885825186
  0
LINE
  5
122
100
AcDbEntity
  8
kóty
  6
ByBlock
 62
    0
370
   -2
100
AcDbLine
 10
226.4186880330432
 20
305.6231021448917
 11
223.590260908297
 21
302.7946750201455
  0
LINE
  5
123
100
AcDbEntity
  8
kóty
  6
ByBlock
 62
    0
370
   -2
100
AcDbLine
 10
418.9294159361119
 20
305.6231021448917
 11
416.1009888113657
 21
302.7946750201455
  0
MTEXT
  5
124
100
AcDbEntity
  8
kóty
  6
CONTINUOUS
 62
    0
370
   -2
100
AcDbMText
 10
321.2598384222044
 20
307.9588885825186
 30
0
 40
5
 41
8.888888888889198
 71
    5
 72
    1
  1
193
  7
standard
210
0
220
0
230
1
 50
0
 73
    2
 44
1
  0
LINE
  5
125
100
AcDbEntity
  8
kóty
  6
ByBlock
 62
    0
370
   -2
100
AcDbLine
 10
225.0044744706701
 20
317.7193885825188
 11
225.0044744706701
 21
301.7088885825186
  0
LINE
  5
126
100
AcDbEntity
  8
kóty
  6
ByBlock
 62
    0
370
   -2
100
AcDbLine
 10
417.5152023737388
 20
317.7193885825188
 11
417.5152023737388
 21
301.7088885825186
  0
ENDBLK
  5
89
330
87
100
AcDbEntity
  8
0
100
AcDbBlockEnd
  0
BLOCK
  5
8B
330
8A
100
AcDbEntity
  8
0
100
AcDbBlockBegin
  2
*D3
 70
    1
 10
0
 20
0
  3
*D3
  1

  0
LINE
  5
127
100
AcDbEntity
  8
kóty
  6
ByBlock
 62
    0
370
   -2
100
AcDbLine
 10
-9.835493285998808
 20
445
 11
-9.835493285998808
 21
415
  0
LINE
  5
128
100
AcDbEntity
  8
kóty
  6
ByBlock
 62
    0
370
   -2
100
AcDbLine
 10
-11.2497068483719
 20
436.4142135623731
 11
-8.421279723625714
 21
433.5857864376269
  0
LINE
  5
129
100
AcDbEntity
  8
kóty
  6
ByBlock
 62
    0
370
   -2
100
AcDbLine
 10
-11.2497068483719
 20
426.4142135623731
 11
-8.421279723625714
 21
423.5857864376269
  0
MTEXT
  5
12A
100
AcDbEntity
  8
kóty
  6
CONTINUOUS
 62
    0
370
   -2
100
AcDbMText
 10
-13.58549328599881
 20
430
 30
0
 40
5
 41
5
 71
    5
 72
    1
  1
10
  7
standard
210
0
220
0
230
1
 50
90
 73
    2
 44
1
  0
LINE
  5
12B
100
AcDbEntity
  8
kóty
  6
ByBlock
 62
    0
370
   -2
100
AcDbLine
 10
16.75
 20
435
 11
-12.33549328599881
 21
435
  0
LINE
  5
12C
100
AcDbEntity
  8
kóty
  6
ByBlock
 62
    0
370
   -2
100
AcDbLine
 10
16.75
 20
425
 11
-12.33549328599881
 21
425
  0
ENDBLK
  5
8C
330
8A
100
AcDbEntity
  8
0
100
AcDbBlockEnd
  0
BLOCK
  5
8E
330
8D
100
AcDbEntity
  8
0
100
AcDbBlockBegin
  2
*D29
 70
    1
 10
0
 20
0
  3
*D29
  1

  0
LINE
  5
12D
100
AcDbEntity
  8
kóty
  6
ByBlock
 62
    0
370
   -2
100
AcDbLine
 10
717.9825609548517
 20
352.1067441218723
 11
736.7625767464684
 21
336.6082593879806
  0
LINE
  5
12E
100
AcDbEntity
  8
kóty
  6
ByBlock
 62
    0
370
   -2
100
AcDbLine
 10
801.6542796952699
 20
453.4944750024637
 11
820.4342954868866
 21
437.995990268572
  0
LINE
  5
12F
100
AcDbEntity
  8
kóty
  6
ByBlock
 62
    0
370
   -2
100
AcDbLine
 10
734.8343941507779
 20
338.1995204846195
 11
818.5061128911962
 21
439.5872513652109
  0
LINE
  5
130
100
AcDbEntity
  8
kóty
  6
ByBlock
 62
    0
370
   -2
100
AcDbLine
 10
734.6438025694124
 20
340.1904184852998
 11
735.0249857321435
 21
336.2086224839393
  0
LINE
  5
131
100
AcDbEntity
  8
kóty
  6
ByBlock
 62
    0
370
   -2
100
AcDbLine
 10
818.3155213098306
 20
441.5781493658912
 11
818.6967044725617
 21
437.5963533645307
  0
MTEXT
  5
132
100
AcDbEntity
  8
kóty
  6
CONTINUOUS
 62
    0
370
   -2
100
AcDbMText
 10
773.7779796274515
 20
391.2802775698735
 30
0
 40
5
 41
7.777777777778088
 71
    5
 72
    1
  1
131
  7
standard
210
0
220
0
230
1
 50
50.46834460921485
 73
    2
 44
1
  0
ENDBLK
  5
8F
330
8D
100
AcDbEntity
  8
0
100
AcDbBlockEnd
  0
BLOCK
  5
91
330
90
100
AcDbEntity
  8
0
100
AcDbBlockBegin
  2
*D33
 70
    1
 10
0
 20
0
  3
*D33
  1

  0
LINE
  5
133
100
AcDbEntity
  8
kóty
  6
ByBlock
 62
    0
370
   -2
100
AcDbLine
 10
714.6340380865604
 20
389.2901055507832
 11
723.1123948747265
 21
365.7716560659094
  0
MTEXT
  5
134
100
AcDbEntity
  8
kóty
  6
CONTINUOUS
 62
    0
370
   -2
100
AcDbMText
 10
722.4009839033745
 20
378.8026343265712
 30
0
 40
5
 41
6.111111111111422
 71
    5
 72
    1
  1
25
  7
standard
210
0
220
0
230
1
 50
289.8241379985294
 73
    2
 44
1
  0
ENDBLK
  5
92
330
90
100
AcDbEntity
  8
0
100
AcDbBlockEnd
  0
BLOCK
  5
94
330
93
100
AcDbEntity
  8
0
100
AcDbBlockBegin
  2
*D1
 70
    1
 10
0
 20
0
  3
*D1
  1

  0
LINE
  5
135
100
AcDbEntity
  8
kóty
  6
ByBlock
 62
    0
370
   -2
100
AcDbLine
 10
-9.835493285998808
 20
510
 11
-9.835493285998808
 21
480
  0
LINE
  5
136
100
AcDbEntity
  8
kóty
  6
ByBlock
 62
    0
370
   -2
100
AcDbLine
 10
-11.2497068483719
 20
501.4142135623731
 11
-8.421279723625714
 21
498.5857864376269
  0
LINE
  5
137
100
AcDbEntity
  8
kóty
  6
ByBlock
 62
    0
370
   -2
100
AcDbLine
 10
-11.2497068483719
 20
491.4142135623731
 11
-8.421279723625714
 21
488.5857864376269
  0
MTEXT
  5
138
100
AcDbEntity
  8
kóty
  6
CONTINUOUS
 62
    0
370
   -2
100
AcDbMText
 10
-13.58549328599881
 20
495
 30
0
 40
5
 41
5
 71
    5
 72
    1
  1
10
  7
standard
210
0
220
0
230
1
 50
90
 73
    2
 44
1
  0
LINE
  5
139
100
AcDbEntity
  8
kóty
  6
ByBlock
 62
    0
370
   -2
100
AcDbLine
 10
16.75
 20
500
 11
-12.33549328599881
 21
500
  0
LINE
  5
13A
100
AcDbEntity
  8
kóty
  6
ByBlock
 62
    0
370
   -2
100
AcDbLine
 10
16.75
 20
490
 11
-12.33549328599881
 21
490
  0
ENDBLK
  5
95
330
93
100
AcDbEntity
  8
0
100
AcDbBlockEnd
  0
BLOCK
  5
97
330
96
100
AcDbEntity
  8
0
100
AcDbBlockBegin
  2
*D2
 70
    1
 10
0
 20
0
  3
*D2
  1

  0
LINE
  5
13B
100
AcDbEntity
  8
kóty
  6
ByBlock
 62
    0
370
   -2
100
AcDbLine
 10
-9.835493285998805
 20
490
 11
-9.835493285998808
 21
435
  0
LINE
  5
13C
100
AcDbEntity
  8
kóty
  6
ByBlock
 62
    0
370
   -2
100
AcDbLine
 10
-8.421279723625709
 20
488.5857864376269
 11
-11.2497068483719
 21
491.4142135623731
  0
LINE
  5
13D
100
AcDbEntity
  8
kóty
  6
ByBlock
 62
    0
370
   -2
100
AcDbLine
 10
-8.421279723625712
 20
433.5857864376269
 11
-11.2497068483719
 21
436.4142135623731
  0
MTEXT
  5
13E
100
AcDbEntity
  8
kóty
  6
CONTINUOUS
 62
    0
370
   -2
100
AcDbMText
 10
-13.58549328599881
 20
462.5
 30
0
 40
5
 41
6.111111111111732
 71
    5
 72
    1
  1
55
  7
standard
210
0
220
0
230
1
 50
90
 73
    2
 44
1
  0
LINE
  5
13F
100
AcDbEntity
  8
kóty
  6
ByBlock
 62
    0
370
   -2
100
AcDbLine
 10
16.75
 20
490
 11
-12.3354932859988
 21
490
  0
LINE
  5
140
100
AcDbEntity
  8
kóty
  6
ByBlock
 62
    0
370
   -2
100
AcDbLine
 10
16.75
 20
435
 11
-12.33549328599881
 21
435
  0
ENDBLK
  5
98
330
96
100
AcDbEntity
  8
0
100
AcDbBlockEnd
  0
BLOCK
  5
9A
330
99
100
AcDbEntity
  8
0
100
AcDbBlockBegin
  2
*D4
 70
    1
 10
0
 20
0
  3
*D4
  1

  0
LINE
  5
141
100
AcDbEntity
  8
kóty
  6
ByBlock
 62
    0
370
   -2
100
AcDbLine
 10
-9.719781600281168
 20
425
 11
-9.71978160028117
 21
395
  0
LINE
  5
142
100
AcDbEntity
  8
kóty
  6
ByBlock
 62
    0
370
   -2
100
AcDbLine
 10
-8.305568037908074
 20
423.5857864376269
 11
-11.13399516265426
 21
426.4142135623731
  0
LINE
  5
143
100
AcDbEntity
  8
kóty
  6
ByBlock
 62
    0
370
   -2
100
AcDbLine
 10
-8.305568037908074
 20
393.5857864376269
 11
-11.13399516265427
 21
396.4142135623731
  0
MTEXT
  5
144
100
AcDbEntity
  8
kóty
  6
CONTINUOUS
 62
    0
370
   -2
100
AcDbMText
 10
-13.46978160028117
 20
410
 30
0
 40
5
 41
6.111111111111422
 71
    5
 72
    1
  1
30
  7
standard
210
0
220
0
230
1
 50
90
 73
    2
 44
1
  0
LINE
  5
145
100
AcDbEntity
  8
kóty
  6
ByBlock
 62
    0
370
   -2
100
AcDbLine
 10
16.75
 20
425
 11
-12.21978160028117
 21
425
  0
LINE
  5
146
100
AcDbEntity
  8
kóty
  6
ByBlock
 62
    0
370
   -2
100
AcDbLine
 10
16.75
 20
395
 11
-12.21978160028117
 21
395
  0
ENDBLK
  5
9B
330
99
100
AcDbEntity
  8
0
100
AcDbBlockEnd
  0
BLOCK
  5
9D
330
9C
100
AcDbEntity
  8
0
100
AcDbBlockBegin
  2
*D26
 70
    1
 10
0
 20
0
  3
*D26
  1

  0
LINE
  5
147
100
AcDbEntity
  8
kóty
  6
ByBlock
 62
    0
370
   -2
100
AcDbLine
 10
830.2896168865376
 20
352.9023746701918
 11
830.2896168865376
 21
454.2901055507832
  0
LINE
  5
148
100
AcDbEntity
  8
kóty
  6
ByBlock
 62
    0
370
   -2
100
AcDbLine
 10
828.8754033241645
 20
354.3165882325649
 11
831.7038304489107
 21
351.4881611078187
  0
LINE
  5
149
100
AcDbEntity
  8
kóty
  6
ByBlock
 62
    0
370
   -2
100
AcDbLine
 10
828.8754033241645
 20
455.7043191131563
 11
831.7038304489107
 21
452.8758919884101
  0
MTEXT
  5
14A
100
AcDbEntity
  8
kóty
  6
CONTINUOUS
 62
    0
370
   -2
100
AcDbMText
 10
826.5396168865376
 20
403.5962401104875
 30
0
 40
5
 41
7.777777777777779
 71
    5
 72
    1
  1
101
  7
standard
210
0
220
0
230
1
 50
90
 73
    2
 44
1
  0
LINE
  5
14B
100
AcDbEntity
  8
kóty
  6
ByBlock
 62
    0
370
   -2
100
AcDbLine
 10
718.2684696570064
 20
352.9023746701918
 11
832.7896168865376
 21
352.9023746701918
  0
LINE
  5
14C
100
AcDbEntity
  8
kóty
  6
ByBlock
 62
    0
370
   -2
100
AcDbLine
 10
801.9401883974247
 20
454.2901055507832
 11
832.7896168865376
 21
454.2901055507832
  0
ENDBLK
  5
9E
330
9C
100
AcDbEntity
  8
0
100
AcDbBlockEnd
  0
BLOCK
  5
A0
330
9F
100
AcDbEntity
  8
0
100
AcDbBlockBegin
  2
*D27
 70
    1
 10
0
 20
0
  3
*D27
  1

  0
LINE
  5
14D
100
AcDbEntity
  8
kóty
  6
ByBlock
 62
    0
370
   -2
100
AcDbLine
 10
608.1794604943559
 20
455.5401055507832
 11
608.1794604943559
 21
471.8979590048329
  0
LINE
  5
14E
100
AcDbEntity
  8
kóty
  6
ByBlock
 62
    0
370
   -2
100
AcDbLine
 10
800.6901883974247
 20
455.5401055507832
 11
800.6901883974247
 21
471.8979590048329
  0
LINE
  5
14F
100
AcDbEntity
  8
kóty
  6
ByBlock
 62
    0
370
   -2
100
AcDbLine
 10
608.1794604943559
 20
469.3979590048329
 11
800.6901883974247
 21
469.3979590048329
  0
LINE
  5
150
100
AcDbEntity
  8
kóty
  6
ByBlock
 62
    0
370
   -2
100
AcDbLine
 10
609.593674056729
 20
470.812172567206
 11
606.7652469319828
 21
467.9837454424598
  0
LINE
  5
151
100
AcDbEntity
  8
kóty
  6
ByBlock
 62
    0
370
   -2
100
AcDbLine
 10
802.1044019597978
 20
470.812172567206
 11
799.2759748350516
 21
467.9837454424598
  0
MTEXT
  5
152
100
AcDbEntity
  8
kóty
  6
CONTINUOUS
 62
    0
370
   -2
100
AcDbMText
 10
704.4348244458904
 20
473.147959004833
 30
0
 40
5
 41
8.888888888889198
 71
    5
 72
    1
  1
193
  7
standard
210
0
220
0
230
1
 50
0
 73
    2
 44
1
  0
ENDBLK
  5
A1
330
9F
100
AcDbEntity
  8
0
100
AcDbBlockEnd
  0
BLOCK
  5
A3
330
A2
100
AcDbEntity
  8
0
100
AcDbBlockBegin
  2
*D13
 70
    1
 10
0
 20
0
  3
*D13
  1

  0
LINE
  5
153
100
AcDbEntity
  8
kóty
  6
ByBlock
 62
    0
370
   -2
100
AcDbLine
 10
0
 20
518.3739813216932
 11
179
 21
518.3739813216932
  0
LINE
  5
154
100
AcDbEntity
  8
kóty
  6
ByBlock
 62
    0
370
   -2
100
AcDbLine
 10
1.414213562373095
 20
519.7881948840663
 11
-1.414213562373095
 21
516.9597677593201
  0
LINE
  5
155
100
AcDbEntity
  8
kóty
  6
ByBlock
 62
    0
370
   -2
100
AcDbLine
 10
180.4142135623731
 20
519.7881948840663
 11
177.5857864376269
 21
516.9597677593201
  0
MTEXT
  5
156
100
AcDbEntity
  8
kóty
  6
CONTINUOUS
 62
    0
370
   -2
100
AcDbMText
 10
89.5
 20
522.1239813216932
 30
0
 40
5
 41
8.888888888888889
 71
    5
 72
    1
  1
179
  7
standard
210
0
220
0
230
1
 50
0
 73
    2
 44
1
  0
LINE
  5
157
100
AcDbEntity
  8
kóty
  6
ByBlock
 62
    0
370
   -2
100
AcDbLine
 10
7.654042494670958e-17
 20
501.2499999999999
 11
1.530808498934192e-16
 21
520.8739813216932
  0
LINE
  5
158
100
AcDbEntity
  8
kóty
  6
ByBlock
 62
    0
370
   -2
100
AcDbLine
 10
179
 20
501.25
 11
179
 21
520.8739813216932
  0
ENDBLK
  5
A4
330
A2
100
AcDbEntity
  8
0
100
AcDbBlockEnd
  0
BLOCK
  5
A6
330
A5
100
AcDbEntity
  8
0
100
AcDbBlockBegin
  2
*D18
 70
    1
 10
0
 20
0
  3
*D18
  1

  0
LINE
  5
159
100
AcDbEntity
  8
kóty
  6
ByBlock
 62
    0
370
   -2
100
AcDbLine
 10
389.7519489293203
 20
449.9908705518981
 11
394.1703310286051
 21
462.1302756002055
  0
LINE
  5
15A
100
AcDbEntity
  8
kóty
  6
ByBlock
 62
    0
370
   -2
100
AcDbLine
 10
417.9427275528959
 20
439.7302662521286
 11
422.3611096521807
 21
451.8696713004359
  0
LINE
  5
15B
100
AcDbEntity
  8
kóty
  6
ByBlock
 62
    0
370
   -2
100
AcDbLine
 10
393.3152806702909
 20
459.7810440482407
 11
421.5060592938665
 21
449.5204397484712
  0
LINE
  5
15C
100
AcDbEntity
  8
kóty
  6
ByBlock
 62
    0
370
   -2
100
AcDbLine
 10
395.1278962443642
 20
460.6262805717221
 11
391.5026650962176
 21
458.9358075247594
  0
LINE
  5
15D
100
AcDbEntity
  8
kóty
  6
ByBlock
 62
    0
370
   -2
100
AcDbLine
 10
423.3186748679398
 20
450.3656762719526
 11
419.6934437197933
 21
448.6752032249898
  0
MTEXT
  5
15E
100
AcDbEntity
  8
kóty
  6
CONTINUOUS
 62
    0
370
   -2
100
AcDbMText
 10
408.69324551955
 20
458.1745892263031
 30
0
 40
5
 41
6.111111111111422
 71
    5
 72
    1
  1
30
  7
standard
210
0
220
0
230
1
 50
339.9999999999998
 73
    2
 44
1
  0
ENDBLK
  5
A7
330
A5
100
AcDbEntity
  8
0
100
AcDbBlockEnd
  0
BLOCK
  5
A9
330
A8
100
AcDbEntity
  8
0
100
AcDbBlockBegin
  2
*D23
 70
    1
 10
0
 20
0
  3
*D23
  1

  0
LINE
  5
15F
100
AcDbEntity
  8
kóty
  6
ByBlock
 62
    0
370
   -2
100
AcDbLine
 10
390.4990395261456
 20
448.3887295967587
 11
399.9397096824424
 21
444.9526066683414
  0
LINE
  5
160
100
AcDbEntity
  8
kóty
  6
ByBlock
 62
    0
370
   -2
100
AcDbLine
 10
343.2386452190026
 20
318.5418634033617
 11
352.6793153752994
 21
315.1057404749444
  0
LINE
  5
161
100
AcDbEntity
  8
kóty
  6
ByBlock
 62
    0
370
   -2
100
AcDbLine
 10
397.5904781304777
 20
445.8076570266555
 11
350.3300838233347
 21
315.9607908332586
  0
LINE
  5
162
100
AcDbEntity
  8
kóty
  6
ByBlock
 62
    0
370
   -2
100
AcDbLine
 10
398.4357146539591
 20
443.9950414525823
 11
396.7452416069963
 21
447.6202726007288
  0
LINE
  5
163
100
AcDbEntity
  8
kóty
  6
ByBlock
 62
    0
370
   -2
100
AcDbLine
 10
351.1753203468161
 20
314.1481752591853
 11
349.4848472998533
 21
317.7734064073318
  0
MTEXT
  5
164
100
AcDbEntity
  8
kóty
  6
CONTINUOUS
 62
    0
370
   -2
100
AcDbMText
 10
370.436433648959
 20
382.1667994674283
 30
0
 40
5
 41
8.888888888889198
 71
    5
 72
    1
  1
138
  7
standard
210
0
220
0
230
1
 50
69.99999999999997
 73
    2
 44
1
  0
ENDBLK
  5
AA
330
A8
100
AcDbEntity
  8
0
100
AcDbBlockEnd
  0
BLOCK
  5
AC
330
AB
100
AcDbEntity
  8
0
100
AcDbBlockBegin
  2
*D16
 70
    1
 10
0
 20
0
  3
*D16
  1

  0
LINE
  5
165
100
AcDbEntity
  8
kóty
  6
ByBlock
 62
    0
370
   -2
100
AcDbLine
 10
103.0223885790858
 20
460
 11
103.0223885790858
 21
435
  0
LINE
  5
166
100
AcDbEntity
  8
kóty
  6
ByBlock
 62
    0
370
   -2
100
AcDbLine
 10
104.4366021414589
 20
458.5857864376269
 11
101.6081750167127
 21
461.4142135623731
  0
LINE
  5
167
100
AcDbEntity
  8
kóty
  6
ByBlock
 62
    0
370
   -2
100
AcDbLine
 10
104.4366021414589
 20
433.5857864376269
 11
101.6081750167127
 21
436.4142135623731
  0
MTEXT
  5
168
100
AcDbEntity
  8
kóty
  6
CONTINUOUS
 62
    0
370
   -2
100
AcDbMText
 10
99.27238857908577
 20
447.5
 30
0
 40
5
 41
6.111111111111422
 71
    5
 72
    1
  1
25
  7
standard
210
0
220
0
230
1
 50
90
 73
    2
 44
1
  0
LINE
  5
169
100
AcDbEntity
  8
kóty
  6
ByBlock
 62
    0
370
   -2
100
AcDbLine
 10
108.75
 20
460
 11
100.5223885790858
 21
460
  0
LINE
  5
16A
100
AcDbEntity
  8
kóty
  6
ByBlock
 62
    0
370
   -2
100
AcDbLine
 10
108.75
 20
435
 11
100.5223885790858
 21
435
  0
ENDBLK
  5
AD
330
AB
100
AcDbEntity
  8
0
100
AcDbBlockEnd
  0
BLOCK
  5
AF
330
AE
100
AcDbEntity
  8
0
100
AcDbBlockBegin
  2
*D8
 70
    1
 10
0
 20
0
  3
*D8
  1

  0
LINE
  5
16B
100
AcDbEntity
  8
kóty
  6
ByBlock
 62
    0
370
   -2
100
AcDbLine
 10
8
 20
508.8999937861501
 11
33
 21
508.8999937861501
  0
LINE
  5
16C
100
AcDbEntity
  8
kóty
  6
ByBlock
 62
    0
370
   -2
100
AcDbLine
 10
16.5857864376269
 20
507.485780223777
 11
19.4142135623731
 21
510.3142073485232
  0
LINE
  5
16D
100
AcDbEntity
  8
kóty
  6
ByBlock
 62
    0
370
   -2
100
AcDbLine
 10
21.5857864376269
 20
507.485780223777
 11
24.4142135623731
 21
510.3142073485232
  0
MTEXT
  5
16E
100
AcDbEntity
  8
kóty
  6
CONTINUOUS
 62
    0
370
   -2
100
AcDbMText
 10
20.5
 20
512.6499937861502
 30
0
 40
5
 41
2.222222222222532
 71
    5
 72
    1
  1
5
  7
standard
210
0
220
0
230
1
 50
0
 73
    2
 44
1
  0
LINE
  5
16F
100
AcDbEntity
  8
kóty
  6
ByBlock
 62
    0
370
   -2
100
AcDbLine
 10
18
 20
501.25
 11
18
 21
511.3999937861501
  0
LINE
  5
170
100
AcDbEntity
  8
kóty
  6
ByBlock
 62
    0
370
   -2
100
AcDbLine
 10
23
 20
501.25
 11
23
 21
511.3999937861501
  0
ENDBLK
  5
B0
330
AE
100
AcDbEntity
  8
0
100
AcDbBlockEnd
  0
ENDSEC
  0
SECTION
  2
ENTITIES
  0
LWPOLYLINE
  5
171
100
AcDbEntity
  8
0
  6
ByLayer
 62
  256
370
   -1
100
AcDbPolyline
 90
    4
 70
    1
 43
0
 10
18
 20
490
 10
23
 20
490
 10
23
 20
435
 10
18
 20
435
  0
LWPOLYLINE
  5
172
100
AcDbEntity
  8
0
  6
ByLayer
 62
  256
370
   -1
100
AcDbPolyline
 90
    4
 70
    1
 43
0
 10
64
 20
490
 10
69
 20
490
 10
69
 20
450
 10
64
 20
450
  0
LWPOLYLINE
  5
173
100
AcDbEntity
  8
0
  6
ByLayer
 62
  256
370
   -1
100
AcDbPolyline
 90
    4
 70
    1
 43
0
 10
87
 20
490
 10
92
 20
490
 10
92
 20
450
 10
87
 20
450
  0
LWPOLYLINE
  5
174
100
AcDbEntity
  8
0
  6
ByLayer
 62
  256
370
   -1
100
AcDbPolyline
 90
    4
 70
    1
 43
0
 10
41
 20
490
 10
46
 20
490
 10
46
 20
435
 10
41
 20
435
  0
LWPOLYLINE
  5
175
100
AcDbEntity
  8
0
  6
ByLayer
 62
  256
370
   -1
100
AcDbPolyline
 90
    4
 70
    1
 43
0
 10
110
 20
490
 10
115
 20
490
 10
115
 20
460
 10
110
 20
460
  0
LWPOLYLINE
  5
176
100
AcDbEntity
  8
0
  6
ByLayer
 62
  256
370
   -1
100
AcDbPolyline
 90
    4
 70
    1
 43
0
 10
133
 20
490
 10
138
 20
490
 10
138
 20
460
 10
133
 20
460
  0
LWPOLYLINE
  5
177
100
AcDbEntity
  8
0
  6
ByLayer
 62
  256
370
   -1
100
AcDbPolyline
 90
    4
 70
    1
 43
0
 10
156
 20
490
 10
161
 20
490
 10
161
 20
460
 10
156
 20
460
  0
LWPOLYLINE
  5
178
100
AcDbEntity
  8
0
  6
ByLayer
 62
  256
370
   -1
100
AcDbPolyline
 90
    4
 70
    1
 43
0
 10
18
 20
425
 10
23
 20
425
 10
23
 20
395
 10
18
 20
395
  0
LWPOLYLINE
  5
179
100
AcDbEntity
  8
0
  6
ByLayer
 62
  256
370
   -1
100
AcDbPolyline
 90
    4
 70
    1
 43
0
 10
41
 20
425
 10
46
 20
425
 10
46
 20
395
 10
41
 20
395
  0
LWPOLYLINE
  5
17A
100
AcDbEntity
  8
0
  6
ByLayer
 62
  256
370
   -1
100
AcDbPolyline
 90
    4
 70
    1
 43
0
 10
64
 20
425
 10
69
 20
425
 10
69
 20
395
 10
64
 20
395
  0
LWPOLYLINE
  5
17B
100
AcDbEntity
  8
0
  6
ByLayer
 62
  256
370
   -1
100
AcDbPolyline
 90
    4
 70
    1
 43
0
 10
87
 20
395
 10
92
 20
395
 10
92
 20
435
 10
87
 20
435
  0
LWPOLYLINE
  5
17C
100
AcDbEntity
  8
0
  6
ByLayer
 62
  256
370
   -1
100
AcDbPolyline
 90
    4
 70
    1
 43
0
 10
110
 20
395
 10
115
 20
395
 10
115
 20
435
 10
110
 20
435
  0
LWPOLYLINE
  5
17D
100
AcDbEntity
  8
0
  6
ByLayer
 62
  256
370
   -1
100
AcDbPolyline
 90
    4
 70
    1
 43
0
 10
133
 20
395
 10
138
 20
395
 10
138
 20
435
 10
133
 20
435
  0
LWPOLYLINE
  5
17E
100
AcDbEntity
  8
0
  6
ByLayer
 62
  256
370
   -1
100
AcDbPolyline
 90
    4
 70
    1
 43
0
 10
156
 20
395
 10
161
 20
395
 10
161
 20
435
 10
156
 20
435
  0
LINE
  5
17F
100
AcDbEntity
  8
0
  6
ByLayer
 62
  256
370
   -1
100
AcDbLine
 10
18
 20
500
 11
0
 21
500
  0
LINE
  5
180
100
AcDbEntity
  8
0
  6
ByLayer
 62
  256
370
   -1
100
AcDbLine
 10
23
 20
500
 11
18
 21
500
  0
LINE
  5
181
100
AcDbEntity
  8
0
  6
ByLayer
 62
  256
370
   -1
100
AcDbLine
 10
41
 20
500
 11
23
 21
500
  0
LINE
  5
182
100
AcDbEntity
  8
0
  6
ByLayer
 62
  256
370
   -1
100
AcDbLine
 10
46
 20
500
 11
41
 21
500
  0
LINE
  5
183
100
AcDbEntity
  8
0
  6
ByLayer
 62
  256
370
   -1
100
AcDbLine
 10
64
 20
500
 11
46
 21
500
  0
LINE
  5
184
100
AcDbEntity
  8
0
  6
ByLayer
 62
  256
370
   -1
100
AcDbLine
 10
69
 20
500
 11
64
 21
500
  0
LINE
  5
185
100
AcDbEntity
  8
0
  6
ByLayer
 62
  256
370
   -1
100
AcDbLine
 10
87
 20
500
 11
69
 21
500
  0
LINE
  5
186
100
AcDbEntity
  8
0
  6
ByLayer
 62
  256
370
   -1
100
AcDbLine
 10
92
 20
500
 11
87
 21
500
  0
LINE
  5
187
100
AcDbEntity
  8
0
  6
ByLayer
 62
  256
370
   -1
100
AcDbLine
 10
110
 20
500
 11
92
 21
500
  0
LINE
  5
188
100
AcDbEntity
  8
0
  6
ByLayer
 62
  256
370
   -1
100
AcDbLine
 10
115
 20
500
 11
110
 21
500
  0
LINE
  5
189
100
AcDbEntity
  8
0
  6
ByLayer
 62
  256
370
   -1
100
AcDbLine
 10
133
 20
500
 11
115
 21
500
  0
LINE
  5
18A
100
AcDbEntity
  8
0
  6
ByLayer
 62
  256
370
   -1
100
AcDbLine
 10
138
 20
500
 11
133
 21
500
  0
LINE
  5
18B
100
AcDbEntity
  8
0
  6
ByLayer
 62
  256
370
   -1
100
AcDbLine
 10
156
 20
500
 11
138
 21
500
  0
LINE
  5
18C
100
AcDbEntity
  8
0
  6
ByLayer
 62
  256
370
   -1
100
AcDbLine
 10
161
 20
500
 11
156
 21
500
  0
LINE
  5
18D
100
AcDbEntity
  8
0
  6
ByLayer
 62
  256
370
   -1
100
AcDbLine
 10
179
 20
500
 11
161
 21
500
  0
LINE
  5
18E
100
AcDbEntity
  8
0
  6
ByLayer
 62
  256
370
   -1
100
AcDbLine
 10
0
 20
390
 11
179
 21
390
  0
DIMENSION
  5
18F
100
AcDbEntity
  8
kóty
  6
ByLayer
 62
  256
370
   -1
100
AcDbDimension
  2
*D1
 10
-9.835493285998808
 20
490
 30
0
 11
-13.58549328599881
 21
495
 31
0
 70
   32
 71
    5
  3
Standard
 53
0
210
0
220
0
230
1
100
AcDbAlignedDimension
 13
18
 23
500
 33
0
 14
18
 24
490
 34
0
 50
90
100
AcDbRotatedDimension
  0
DIMENSION
  5
190
100
AcDbEntity
  8
kóty
  6
ByLayer
 62
  256
370
   -1
100
AcDbDimension
  2
*D2
 10
-9.835493285998808
 20
435
 30
0
 11
-13.58549328599881
 21
462.5
 31
0
 70
   32
 71
    5
  3
Standard
 53
0
210
0
220
0
230
1
100
AcDbAlignedDimension
 13
18
 23
490
 33
0
 14
18
 24
435
 34
0
 50
90
100
AcDbRotatedDimension
  0
DIMENSION
  5
191
100
AcDbEntity
  8
kóty
  6
ByLayer
 62
  256
370
   -1
100
AcDbDimension
  2
*D3
 10
-9.835493285998808
 20
425
 30
0
 11
-13.58549328599881
 21
430
 31
0
 70
   32
 71
    5
  3
Standard
 53
0
210
0
220
0
230
1
100
AcDbAlignedDimension
 13
18
 23
435
 33
0
 14
18
 24
425
 34
0
 50
90
100
AcDbRotatedDimension
  0
DIMENSION
  5
192
100
AcDbEntity
  8
kóty
  6
ByLayer
 62
  256
370
   -1
100
AcDbDimension
  2
*D4
 10
-9.71978160028117
 20
395
 30
0
 11
-13.46978160028117
 21
410
 31
0
 70
   32
 71
    5
  3
Standard
 53
0
210
0
220
0
230
1
100
AcDbAlignedDimension
 13
18
 23
425
 33
0
 14
18
 24
395
 34
0
 50
90
100
AcDbRotatedDimension
  0
DIMENSION
  5
193
100
AcDbEntity
  8
kóty
  6
ByLayer
 62
  256
370
   -1
100
AcDbDimension
  2
*D5
 10
-9.835493285998808
 20
390
 30
0
 11
-13.58549328599881
 21
392.5
 31
0
 70
   32
 71
    5
  3
Standard
 53
0
210
0
220
0
230
1
100
AcDbAlignedDimension
 13
18
 23
395
 33
0
 14
18
 24
390
 34
0
 50
90
100
AcDbRotatedDimension
  0
DIMENSION
  5
194
100
AcDbEntity
  8
kóty
  6
ByLayer
 62
  256
370
   -1
100
AcDbDimension
  2
*D6
 10
-20.36525668630341
 20
390
 30
0
 11
-24.11525668630341
 21
445
 31
0
 70
   32
 71
    5
  3
Standard
 53
0
210
0
220
0
230
1
100
AcDbAlignedDimension
 13
18
 23
500
 33
0
 14
18
 24
390
 34
0
 50
90
100
AcDbRotatedDimension
  0
DIMENSION
  5
195
100
AcDbEntity
  8
kóty
  6
ByLayer
 62
  256
370
   -1
100
AcDbDimension
  2
*D7
 10
18
 20
509.0157054718678
 30
0
 11
9
 21
512.7657054718677
 31
0
 70
   32
 71
    5
  3
Standard
 53
0
210
0
220
0
230
1
100
AcDbAlignedDimension
 13
0
 23
499.9999999999999
 33
0
 14
18
 24
500
 34
0
100
AcDbRotatedDimension
  0
DIMENSION
  5
196
100
AcDbEntity
  8
kóty
  6
ByLayer
 62
  256
370
   -1
100
AcDbDimension
  2
*D8
 10
23
 20
508.8999937861501
 30
0
 11
20.5
 21
512.6499937861502
 31
0
 70
   32
 71
    5
  3
Standard
 53
0
210
0
220
0
230
1
100
AcDbAlignedDimension
 13
18
 23
500
 33
0
 14
23
 24
500
 34
0
100
AcDbRotatedDimension
  0
DIMENSION
  5
197
100
AcDbEntity
  8
kóty
  6
ByLayer
 62
  256
370
   -1
100
AcDbDimension
  2
*D9
 10
41
 20
508.9043597981143
 30
0
 11
32
 21
512.6543597981142
 31
0
 70
   32
 71
    5
  3
Standard
 53
0
210
0
220
0
230
1
100
AcDbAlignedDimension
 13
23
 23
500
 33
0
 14
41
 24
500
 34
0
100
AcDbRotatedDimension
  0
DIMENSION
  5
198
100
AcDbEntity
  8
kóty
  6
ByLayer
 62
  256
370
   -1
100
AcDbDimension
  2
*D10
 10
46
 20
508.9043597981143
 30
0
 11
43.5
 21
512.6543597981142
 31
0
 70
   32
 71
    5
  3
Standard
 53
0
210
0
220
0
230
1
100
AcDbAlignedDimension
 13
41
 23
500
 33
0
 14
46
 24
500
 34
0
100
AcDbRotatedDimension
  0
DIMENSION
  5
199
100
AcDbEntity
  8
kóty
  6
ByLayer
 62
  256
370
   -1
100
AcDbDimension
  2
*D11
 10
161
 20
508.8885752256505
 30
0
 11
158.5
 21
512.6385752256505
 31
0
 70
   32
 71
    5
  3
Standard
 53
0
210
0
220
0
230
1
100
AcDbAlignedDimension
 13
156
 23
500
 33
0
 14
161
 24
500
 34
0
100
AcDbRotatedDimension
  0
DIMENSION
  5
19A
100
AcDbEntity
  8
kóty
  6
ByLayer
 62
  256
370
   -1
100
AcDbDimension
  2
*D12
 10
179
 20
508.8885752256505
 30
0
 11
170
 21
512.6385752256505
 31
0
 70
   32
 71
    5
  3
Standard
 53
0
210
0
220
0
230
1
100
AcDbAlignedDimension
 13
161
 23
500
 33
0
 14
179
 24
500
 34
0
100
AcDbRotatedDimension
  0
DIMENSION
  5
19B
100
AcDbEntity
  8
kóty
  6
ByLayer
 62
  256
370
   -1
100
AcDbDimension
  2
*D13
 10
179
 20
518.3739813216932
 30
0
 11
89.5
 21
522.1239813216932
 31
0
 70
   32
 71
    5
  3
Standard
 53
0
210
0
220
0
230
1
100
AcDbAlignedDimension
 13
0
 23
499.9999999999999
 33
0
 14
179
 24
500
 34
0
100
AcDbRotatedDimension
  0
DIMENSION
  5
19C
100
AcDbEntity
  8
kóty
  6
ByLayer
 62
  256
370
   -1
100
AcDbDimension
  2
*D14
 10
57.10537264418481
 20
425
 30
0
 11
53.35537264418481
 21
437.5
 31
0
 70
   32
 71
    5
  3
Standard
 53
0
210
0
220
0
230
1
100
AcDbAlignedDimension
 13
64
 23
450
 33
0
 14
64
 24
425
 34
0
 50
90
100
AcDbRotatedDimension
  0
DIMENSION
  5
19D
100
AcDbEntity
  8
kóty
  6
ByLayer
 62
  256
370
   -1
100
AcDbDimension
  2
*D15
 10
79.92962033112389
 20
435
 30
0
 11
76.17962033112389
 21
442.5
 31
0
 70
   32
 71
    5
  3
Standard
 53
0
210
0
220
0
230
1
100
AcDbAlignedDimension
 13
87
 23
450
 33
0
 14
87
 24
435
 34
0
 50
90
100
AcDbRotatedDimension
  0
DIMENSION
  5
19E
100
AcDbEntity
  8
kóty
  6
ByLayer
 62
  256
370
   -1
100
AcDbDimension
  2
*D16
 10
103.0223885790858
 20
435
 30
0
 11
99.27238857908577
 21
447.5
 31
0
 70
   32
 71
    5
  3
Standard
 53
0
210
0
220
0
230
1
100
AcDbAlignedDimension
 13
110
 23
460
 33
0
 14
110
 24
435
 34
0
 50
90
100
AcDbRotatedDimension
  0
LINE
  5
19F
100
AcDbEntity
  8
0
  6
ByLayer
 62
  256
370
   -1
100
AcDbLine
 10
0
 20
360
 11
179
 21
360
  0
LINE
  5
1A0
100
AcDbEntity
  8
0
  6
ByLayer
 62
  256
370
   -1
100
AcDbLine
 10
0
 20
500
 11
0
 21
319
  0
LINE
  5
1A1
100
AcDbEntity
  8
0
  6
ByLayer
 62
  256
370
   -1
100
AcDbLine
 10
179
 20
319
 11
179
 21
500
  0
LINE
  5
1A2
100
AcDbEntity
  8
0
  6
ByLayer
 62
  256
370
   -1
100
AcDbLine
 10
0
 20
319
 11
179
 21
319
  0
LINE
  5
1A3
100
AcDbEntity
  8
0
  6
ByLayer
 62
  256
370
   -1
100
AcDbLine
 10
18
 20
500
 11
18
 21
360
  0
LINE
  5
1A4
100
AcDbEntity
  8
0
  6
ByLayer
 62
  256
370
   -1
100
AcDbLine
 10
23
 20
500
 11
23
 21
360
  0
LINE
  5
1A5
100
AcDbEntity
  8
0
  6
ByLayer
 62
  256
370
   -1
100
AcDbLine
 10
41
 20
500
 11
41
 21
360
  0
LINE
  5
1A6
100
AcDbEntity
  8
0
  6
ByLayer
 62
  256
370
   -1
100
AcDbLine
 10
46
 20
500
 11
46
 21
360
  0
LINE
  5
1A7
100
AcDbEntity
  8
0
  6
ByLayer
 62
  256
370
   -1
100
AcDbLine
 10
64
 20
500
 11
64
 21
360
  0
LINE
  5
1A8
100
AcDbEntity
  8
0
  6
ByLayer
 62
  256
370
   -1
100
AcDbLine
 10
69
 20
500
 11
69
 21
360
  0
LINE
  5
1A9
100
AcDbEntity
  8
0
  6
ByLayer
 62
  256
370
   -1
100
AcDbLine
 10
87
 20
500
 11
87
 21
360
  0
LINE
  5
1AA
100
AcDbEntity
  8
0
  6
ByLayer
 62
  256
370
   -1
100
AcDbLine
 10
92
 20
500
 11
92
 21
360
  0
LINE
  5
1AB
100
AcDbEntity
  8
0
  6
ByLayer
 62
  256
370
   -1
100
AcDbLine
 10
110
 20
500
 11
110
 21
360
  0
LINE
  5
1AC
100
AcDbEntity
  8
0
  6
ByLayer
 62
  256
370
   -1
100
AcDbLine
 10
115
 20
500
 11
115
 21
360
  0
LINE
  5
1AD
100
AcDbEntity
  8
0
  6
ByLayer
 62
  256
370
   -1
100
AcDbLine
 10
133
 20
500
 11
133
 21
360
  0
LINE
  5
1AE
100
AcDbEntity
  8
0
  6
ByLayer
 62
  256
370
   -1
100
AcDbLine
 10
138
 20
500
 11
138
 21
360
  0
LINE
  5
1AF
100
AcDbEntity
  8
0
  6
ByLayer
 62
  256
370
   -1
100
AcDbLine
 10
156
 20
500
 11
156
 21
360
  0
LINE
  5
1B0
100
AcDbEntity
  8
0
  6
ByLayer
 62
  256
370
   -1
100
AcDbLine
 10
161
 20
500
 11
161
 21
360
  0
LINE
  5
1B1
100
AcDbEntity
  8
0
  6
ByLayer
 62
  256
370
   -1
100
AcDbLine
 10
235.0044744706701
 20
318.9693885825188
 11
310.2489060023172
 21
525.7017651554186
  0
LINE
  5
1B2
100
AcDbEntity
  8
0
  6
ByLayer
 62
  256
370
   -1
100
AcDbLine
 10
225.0044744706701
 20
318.9693885825188
 11
301.4186837867222
 21
528.9157032038513
  0
LINE
  5
1B3
100
AcDbEntity
  8
0
  6
ByLayer
 62
  256
370
   -1
100
AcDbLine
 10
404.7848720731721
 20
491.2934874380278
 11
301.4186837867222
 21
528.9157032038513
  0
LINE
  5
1B4
100
AcDbEntity
  8
0
  6
ByLayer
 62
  256
370
   -1
100
AcDbLine
 10
336.7431405806342
 20
318.9693885825188
 11
400.0864089692368
 21
493.0035881546582
  0
LINE
  5
1B5
100
AcDbEntity
  8
0
  6
ByLayer
 62
  256
370
   -1
100
AcDbLine
 10
342.0640294430203
 20
318.9693885825188
 11
404.7848720731722
 21
491.2934874380277
  0
LINE
  5
1B6
100
AcDbEntity
  8
0
  6
ByLayer
 62
  256
370
   -1
100
AcDbLine
 10
417.5152023737388
 20
318.9693885825188
 11
417.5152023737388
 21
438.5556504761463
  0
LINE
  5
1B7
100
AcDbEntity
  8
0
  6
ByLayer
 62
  256
370
   -1
100
AcDbLine
 10
225.0044744706701
 20
318.9693885825188
 11
417.5152023737388
 21
318.9693885825188
  0
LINE
  5
1B8
100
AcDbEntity
  8
0
  6
ByLayer
 62
  256
370
   -1
100
AcDbLine
 10
417.5152023737388
 20
438.5556504761463
 11
389.3244237501632
 21
448.8162547759158
  0
LINE
  5
1B9
100
AcDbEntity
  8
0
  6
ByLayer
 62
  256
370
   -1
100
AcDbLine
 10
373.9893626172957
 20
318.9693885825188
 11
417.5152023737388
 21
438.5556504761463
  0
DIMENSION
  5
1BA
100
AcDbEntity
  8
kóty
  6
ByLayer
 62
  256
370
   -1
100
AcDbDimension
  2
*D17
 10
417.5152023737388
 20
304.2088885825186
 30
0
 11
321.2598384222044
 21
307.9588885825186
 31
0
 70
   32
 71
    5
  3
Standard
 53
0
210
0
220
0
230
1
100
AcDbAlignedDimension
 13
225.0044744706701
 23
318.9693885825188
 33
0
 14
417.5152023737388
 24
318.9693885825188
 34
0
100
AcDbRotatedDimension
  0
DIMENSION
  5
1BB
100
AcDbEntity
  8
kóty
  6
ByLayer
 62
  256
370
   -1
100
AcDbDimension
  2
*D18
 10
421.5060592938665
 20
449.5204397484712
 30
0
 11
408.69324551955
 21
458.1745892263031
 31
0
 70
   33
 71
    5
  3
Standard
 53
0
210
0
220
0
230
1
100
AcDbAlignedDimension
 13
389.3244237501632
 23
448.8162547759158
 33
0
 14
417.5152023737388
 24
438.5556504761462
 34
0
  0
DIMENSION
  5
1BC
100
AcDbEntity
  8
kóty
  6
ByLayer
 62
  256
370
   -1
100
AcDbDimension
  2
*D19
 10
408.8092700756993
 20
502.3504300768694
 30
0
 11
358.4087514699456
 21
524.6853852877284
 31
0
 70
   33
 71
    5
  3
Standard
 53
0
210
0
220
0
230
1
100
AcDbAlignedDimension
 13
301.4186837867222
 23
528.9157032038513
 33
0
 14
404.7848720731721
 24
491.2934874380277
 34
0
  0
DIMENSION
  5
1BD
100
AcDbEntity
  8
kóty
  6
ByLayer
 62
  256
370
   -1
100
AcDbDimension
  2
*D20
 10
292.1697390922957
 20
532.2820437709969
 30
0
 11
250.4387871063225
 21
428.5914619978019
 31
0
 70
   33
 71
    5
  3
Standard
 53
0
210
0
220
0
230
1
100
AcDbAlignedDimension
 13
225.0044744706701
 23
318.9693885825188
 33
0
 14
301.4186837867222
 24
528.9157032038513
 34
0
  0
DIMENSION
  5
1BE
100
AcDbEntity
  8
kóty
  6
ByLayer
 62
  256
370
   -1
100
AcDbDimension
  2
*D21
 10
326.3819852722356
 20
324.6771858731323
 30
0
 11
354.2185592593644
 21
412.1218108383579
 31
0
 70
   33
 71
    5
  3
Standard
 53
0
210
0
220
0
230
1
100
AcDbAlignedDimension
 13
404.7848720731722
 23
491.2934874380277
 33
0
 14
342.0640294430203
 24
318.9693885825188
 34
0
  0
DIMENSION
  5
1BF
100
AcDbEntity
  8
kóty
  6
ByLayer
 62
  256
370
   -1
100
AcDbDimension
  2
*D22
 10
428.7944044293462
 20
318.9693885825188
 30
0
 11
425.0444044293462
 21
378.7625195293325
 31
0
 70
   33
 71
    5
  3
Standard
 53
0
210
0
220
0
230
1
100
AcDbAlignedDimension
 13
417.5152023737388
 23
438.5556504761463
 33
0
 14
417.5152023737388
 24
318.9693885825188
 34
0
  0
DIMENSION
  5
1C0
100
AcDbEntity
  8
kóty
  6
ByLayer
 62
  256
370
   -1
100
AcDbDimension
  2
*D23
 10
350.3300838233347
 20
315.9607908332586
 30
0
 11
370.436433648959
 21
382.1667994674283
 31
0
 70
   33
 71
    5
  3
Standard
 53
0
210
0
220
0
230
1
100
AcDbAlignedDimension
 13
389.3244237501632
 23
448.8162547759158
 33
0
 14
342.0640294430202
 24
318.9693885825188
 34
0
  0
DIMENSION
  5
1C1
100
AcDbEntity
  8
kóty
  6
ByLayer
 62
  256
370
   -1
100
AcDbDimension
  2
*D24
 10
417.5152023737388
 20
311.3014871243058
 30
0
 11
395.7522824955172
 21
315.0514871243058
 31
0
 70
   32
 71
    5
  3
Standard
 53
0
210
0
220
0
230
1
100
AcDbAlignedDimension
 13
373.9893626172957
 23
318.9693885825188
 33
0
 14
417.5152023737388
 24
318.9693885825188
 34
0
100
AcDbRotatedDimension
  0
DIMENSION
  5
1C2
100
AcDbEntity
  8
kóty
  6
ByLayer
 62
  256
370
   -1
100
AcDbDimension
  2
*D25
 10
412.4577082969763
 20
488.5008034401636
 30
0
 11
401.2036368075246
 21
468.5447626465788
 31
0
 70
   33
 71
    5
  3
Standard
 53
0
210
0
220
0
230
1
100
AcDbAlignedDimension
 13
389.3244237501632
 23
448.8162547759158
 33
0
 14
404.7848720731721
 24
491.2934874380278
 34
0
  0
ARC
  5
1C3
100
AcDbEntity
  8
0
  6
ByLayer
 62
  256
370
   -1
100
AcDbCircle
 10
714.6340380865604
 20
389.2901055507832
 40
25.00000000000004
100
AcDbArc
 50
227.0299423020536
 51
320.4683446092147
  0
LINE
  5
1C4
100
AcDbEntity
  8
0
  6
ByLayer
 62
  256
370
   -1
100
AcDbLine
 10
608.1794604943559
 20
454.2901055507832
 11
800.6901883974247
 21
454.2901055507832
  0
LINE
  5
1C5
100
AcDbEntity
  8
0
  6
ByLayer
 62
  256
370
   -1
100
AcDbLine
 10
717.0184696570064
 20
352.9023746701918
 11
800.6901883974247
 21
454.2901055507832
  0
LINE
  5
1C6
100
AcDbEntity
  8
0
  6
ByLayer
 62
  256
370
   -1
100
AcDbLine
 10
717.0184696570064
 20
352.9023746701918
 11
608.1794604943559
 21
454.2901055507832
  0
DIMENSION
  5
1C7
100
AcDbEntity
  8
kóty
  6
ByLayer
 62
  256
370
   -1
100
AcDbDimension
  2
*D26
 10
830.2896168865376
 20
454.2901055507832
 30
0
 11
826.5396168865376
 21
403.5962401104875
 31
0
 70
   32
 71
    5
  3
Standard
 53
0
210
0
220
0
230
1
100
AcDbAlignedDimension
 13
717.0184696570064
 23
352.9023746701918
 33
0
 14
800.6901883974247
 24
454.2901055507832
 34
0
 50
90
100
AcDbRotatedDimension
  0
DIMENSION
  5
1C8
100
AcDbEntity
  8
kóty
  6
ByLayer
 62
  256
370
   -1
100
AcDbDimension
  2
*D27
 10
800.6901883974247
 20
469.3979590048329
 30
0
 11
704.4348244458904
 21
473.147959004833
 31
0
 70
   33
 71
    5
  3
Standard
 53
0
210
0
220
0
230
1
100
AcDbAlignedDimension
 13
608.1794604943559
 23
454.2901055507832
 33
0
 14
800.6901883974247
 24
454.2901055507832
 34
0
  0
DIMENSION
  5
1C9
100
AcDbEntity
  8
kóty
  6
ByLayer
 62
  256
370
   -1
100
AcDbDimension
  2
*D28
 10
704.3682028532694
 20
339.3224030838519
 30
0
 11
652.5047585252071
 21
392.7601810558602
 31
0
 70
   33
 71
    5
  3
Standard
 53
0
210
0
220
0
230
1
100
AcDbAlignedDimension
 13
608.1794604943559
 23
454.2901055507832
 33
0
 14
717.0184696570064
 24
352.9023746701918
 34
0
  0
DIMENSION
  5
1CA
100
AcDbEntity
  8
kóty
  6
ByLayer
 62
  256
370
   -1
100
AcDbDimension
  2
*D29
 10
818.5061128911962
 20
439.5872513652109
 30
0
 11
773.7779796274515
 21
391.2802775698735
 31
0
 70
   33
 71
    5
  3
Standard
 53
0
210
0
220
0
230
1
100
AcDbAlignedDimension
 13
717.0184696570064
 23
352.9023746701918
 33
0
 14
800.6901883974247
 24
454.2901055507832
 34
0
  0
CIRCLE
  5
1CB
100
AcDbEntity
  8
0
  6
ByLayer
 62
  256
370
   -1
100
AcDbCircle
 10
714.6340380865604
 20
389.2901055507832
 40
5
  0
DIMENSION
  5
1CC
100
AcDbEntity
  8
kóty
  6
ByLayer
 62
  256
370
   -1
100
AcDbDimension
  2
*D30
 10
709.6341793896954
 20
389.3276955944563
 30
0
 11
714.6622306193152
 21
393.0399995734319
 31
0
 70
   35
 71
    5
  3
Standard
 53
0
210
0
220
0
230
1
100
AcDbDiametricDimension
 15
719.6338967834254
 25
389.2525155071102
 35
0
 40
0
  0
DIMENSION
  5
1CD
100
AcDbEntity
  8
kóty
  6
ByLayer
 62
  256
370
   -1
100
AcDbDimension
  2
*D31
 10
587.7308707124141
 20
389.2901055507832
 30
0
 11
583.9808707124141
 21
421.7901055507832
 31
0
 70
   32
 71
    5
  3
Standard
 53
0
210
0
220
0
230
1
100
AcDbAlignedDimension
 13
608.1794604943559
 23
454.2901055507832
 33
0
 14
714.6340380865604
 24
389.2901055507832
 34
0
 50
90
100
AcDbRotatedDimension
  0
DIMENSION
  5
1CE
100
AcDbEntity
  8
kóty
  6
ByLayer
 62
  256
370
   -1
100
AcDbDimension
  2
*D32
 10
714.6340380865604
 20
331.5743183817136
 30
0
 11
661.4067492904582
 21
335.3243183817136
 31
0
 70
   32
 71
    5
  3
Standard
 53
0
210
0
220
0
230
1
100
AcDbAlignedDimension
 13
608.1794604943559
 23
454.2901055507832
 33
0
 14
714.6340380865604
 24
389.2901055507832
 34
0
100
AcDbRotatedDimension
  0
DIMENSION
  5
1CF
100
AcDbEntity
  8
kóty
  6
ByLayer
 62
  256
370
   -1
100
AcDbDimension
  2
*D33
 10
714.6340380865604
 20
389.2901055507832
 30
0
 11
722.4009839033745
 21
378.8026343265712
 31
0
 70
   36
 71
    5
  3
Standard
 53
0
210
0
220
0
230
1
100
AcDbRadialDimension
 15
723.1123948747265
 25
365.7716560659094
 35
0
 40
0
  0
ENDSEC
  0
SECTION
  2
OBJECTS
  0
DICTIONARY
  5
C
330
0
100
AcDbDictionary
281
    1
  3
ACAD_GROUP
350
D
  0
DICTIONARY
  5
D
330
C
100
AcDbDictionary
281
    1
  0
ENDSEC
  0
EOF
