999
dxfrw 0.6.3
  0
SECTION
  2
HEADER
  9
$ACADVER
  1
AC1021
  9
$DWGCODEPAGE
  3
ANSI_1252
  9
$INSBASE
 10
0
 20
0
 30
0
  9
$EXTMIN
 10
-10.27437044518572
 20
-80.06258522650207
 30
0
  9
$EXTMAX
 10
187.3148613253295
 20
43.43060296992026
 30
0
  9
$LIMMIN
 10
0
 20
0
  9
$LIMMAX
 10
420
 20
297
  9
$ORTHOMODE
 70
    0
  9
$REGENMODE
 70
    1
  9
$FILLMODE
 70
    1
  9
$QTEXTMODE
 70
    0
  9
$MIRRTEXT
 70
    0
  9
$LTSCALE
 40
1
  9
$ATTMODE
 70
    0
  9
$TEXTSIZE
 40
2.5
  9
$TRACEWID
 40
15.68
  9
$TEXTSTYLE
  7
STANDARD
  9
$CLAYER
  8
konstrukční
  9
$CELTYPE
  6
BYLAYER
  9
$CECOLOR
 62
  256
  9
$CELTSCALE
 40
1
  9
$DISPSILH
 70
    0
  9
$DIMSCALE
 40
2.5
  9
$DIMASZ
 40
0
  9
$DIMEXO
 40
0.625
  9
$DIMDLI
 40
3.75
  9
$DIMRND
 40
0
  9
$DIMDLE
 40
0
  9
$DIMEXE
 40
1.25
  9
$DIMTP
 40
0
  9
$DIMTM
 40
0
  9
$DIMTXT
 40
2.5
  9
$DIMCEN
 40
2.5
  9
$DIMTSZ
 40
0
  9
$DIMTOL
 70
    0
  9
$DIMLIM
 70
    0
  9
$DIMTIH
 70
    0
  9
$DIMTOH
 70
    0
  9
$DIMSE1
 70
    0
  9
$DIMSE2
 70
    0
  9
$DIMTAD
 70
    1
  9
$DIMZIN
 70
    1
  9
$DIMBLK
  1

  9
$DIMASO
 70
    1
  9
$DIMSHO
 70
    1
  9
$DIMPOST
  1

  9
$DIMAPOST
  1

  9
$DIMALT
 70
    0
  9
$DIMALTD
 70
    3
  9
$DIMALTF
 40
0.03937
  9
$DIMLFAC
 40
1
  9
$DIMTOFL
 70
    1
  9
$DIMTVP
 40
0
  9
$DIMTIX
 70
    0
  9
$DIMSOXD
 70
    0
  9
$DIMSAH
 70
    0
  9
$DIMBLK1
  1

  9
$DIMBLK2
  1

  9
$DIMSTYLE
  2
STANDARD
  9
$DIMCLRD
 70
    0
  9
$DIMCLRE
 70
    0
  9
$DIMCLRT
 70
    0
  9
$DIMTFAC
 40
1
  9
$DIMGAP
 40
0.625
  9
$DIMJUST
 70
    0
  9
$DIMSD1
 70
    0
  9
$DIMSD2
 70
    0
  9
$DIMTOLJ
 70
    0
  9
$DIMTZIN
 70
    8
  9
$DIMALTZ
 70
    0
  9
$DIMALTTZ
 70
    0
  9
$DIMUPT
 70
    0
  9
$DIMDEC
 70
    0
  9
$DIMTDEC
 70
    2
  9
$DIMALTU
 70
    2
  9
$DIMALTTD
 70
    3
  9
$DIMTXSTY
  7
STANDARD
  9
$DIMAUNIT
 70
    0
  9
$DIMADEC
 70
    2
  9
$DIMALTRND
 40
0
  9
$DIMAZIN
 70
    0
  9
$DIMDSEP
 70
   44
  9
$DIMATFIT
 70
    3
  9
$DIMFRAC
 70
    0
  9
$DIMLDRBLK
  1
STANDARD
  9
$DIMLUNIT
 70
    2
  9
$DIMLWD
 70
   -2
  9
$DIMLWE
 70
   -2
  9
$DIMTMOVE
 70
    0
  9
$DIMFXL
 40
1
  9
$DIMFXLON
 70
    0
  9
$DIMJOGANG
 40
0.7854
  9
$DIMTFILL
 70
    0
  9
$DIMTFILLCLR
 70
    0
  9
$DIMARCSYM
 70
    0
  9
$DIMLTYPE
  6

  9
$DIMLTEX1
  6

  9
$DIMLTEX2
  6

  9
$LUNITS
 70
    2
  9
$LUPREC
 70
    4
  9
$SKETCHINC
 40
1
  9
$FILLETRAD
 40
0
  9
$AUNITS
 70
    0
  9
$AUPREC
 70
    2
  9
$MENU
  1
.
  9
$ELEVATION
 40
0
  9
$PELEVATION
 40
0
  9
$THICKNESS
 40
0
  9
$LIMCHECK
 70
    0
  9
$CHAMFERA
 40
0
  9
$CHAMFERB
 40
0
  9
$CHAMFERC
 40
0
  9
$CHAMFERD
 40
0
  9
$SKPOLY
 70
    0
  9
$USRTIMER
 70
    1
  9
$ANGBASE
 50
0
  9
$ANGDIR
 70
    0
  9
$PDMODE
 70
   34
  9
$PDSIZE
 40
0
  9
$PLINEWID
 40
0
  9
$SPLFRAME
 70
    0
  9
$SPLINETYPE
 70
    2
  9
$SPLINESEGS
 70
    8
  9
$HANDSEED
  5
20000
  9
$SURFTAB1
 70
    6
  9
$SURFTAB2
 70
    6
  9
$SURFTYPE
 70
    6
  9
$SURFU
 70
    6
  9
$SURFV
 70
    6
  9
$UCSBASE
  2

  9
$UCSNAME
  2

  9
$UCSORG
 10
0
 20
0
 30
0
  9
$UCSXDIR
 10
1
 20
0
 30
0
  9
$UCSYDIR
 10
0
 20
1
 30
0
  9
$UCSORTHOREF
  2

  9
$UCSORTHOVIEW
 70
    0
  9
$UCSORGTOP
 10
0
 20
0
 30
0
  9
$UCSORGBOTTOM
 10
0
 20
0
 30
0
  9
$UCSORGLEFT
 10
0
 20
0
 30
0
  9
$UCSORGRIGHT
 10
0
 20
0
 30
0
  9
$UCSORGFRONT
 10
0
 20
0
 30
0
  9
$UCSORGBACK
 10
0
 20
0
 30
0
  9
$PUCSBASE
  2

  9
$PUCSNAME
  2

  9
$PUCSORG
 10
0
 20
0
 30
0
  9
$PUCSXDIR
 10
1
 20
0
 30
0
  9
$PUCSYDIR
 10
0
 20
1
 30
0
  9
$PUCSORTHOREF
  2

  9
$PUCSORTHOVIEW
 70
    0
  9
$PUCSORGTOP
 10
0
 20
0
 30
0
  9
$PUCSORGBOTTOM
 10
0
 20
0
 30
0
  9
$PUCSORGLEFT
 10
0
 20
0
 30
0
  9
$PUCSORGRIGHT
 10
0
 20
0
 30
0
  9
$PUCSORGFRONT
 10
0
 20
0
 30
0
  9
$PUCSORGBACK
 10
0
 20
0
 30
0
  9
$USERI1
 70
    0
  9
$USERI2
 70
    0
  9
$USERI3
 70
    0
  9
$USERI4
 70
    0
  9
$USERI5
 70
    0
  9
$USERR1
 40
0
  9
$USERR2
 40
0
  9
$USERR3
 40
0
  9
$USERR4
 40
0
  9
$USERR5
 40
0
  9
$WORLDVIEW
 70
    1
  9
$SHADEDGE
 70
    3
  9
$SHADEDIF
 70
   70
  9
$TILEMODE
 70
    1
  9
$MAXACTVP
 70
   64
  9
$PINSBASE
 10
59.9797545599281
 20
123.3159911282909
 30
0
  9
$PLIMCHECK
 70
    0
  9
$PEXTMIN
 10
0
 20
0
 30
0
  9
$PEXTMAX
 10
0
 20
0
 30
0
  9
$GRIDMODE
 70
    1
  9
$SNAPSTYLE
 70
    0
  9
$PLIMMIN
 10
0
 20
0
  9
$PLIMMAX
 10
297
 20
210
  9
$UNITMODE
 70
    0
  9
$VISRETAIN
 70
    1
  9
$PLINEGEN
 70
    0
  9
$PSLTSCALE
 70
    1
  9
$TREEDEPTH
 70
 3020
  9
$CMLSTYLE
  2
Standard
  9
$CMLJUST
 70
    0
  9
$CMLSCALE
 40
20
  9
$PROXYGRAPHICS
 70
    1
  9
$MEASUREMENT
 70
    1
  9
$CELWEIGHT
370
   -1
  9
$ENDCAPS
280
    0
  9
$JOINSTYLE
280
    0
  9
$LWDISPLAY
290
    0
  9
$INSUNITS
 70
    0
  9
$HYPERLINKBASE
  1

  9
$STYLESHEET
  1

  9
$XEDIT
290
    1
  9
$CEPSNTYPE
380
    0
  9
$PSTYLEMODE
290
    1
  9
$EXTNAMES
290
    1
  9
$PSVPSCALE
 40
1
  9
$OLESTARTUP
290
    0
  9
$SORTENTS
280
  127
  9
$INDEXCTL
280
    0
  9
$HIDETEXT
280
    1
  9
$XCLIPFRAME
290
    0
  9
$HALOGAP
280
    0
  9
$OBSCOLOR
 70
  257
  9
$OBSLTYPE
280
    0
  9
$INTERSECTIONDISPLAY
280
    0
  9
$INTERSECTIONCOLOR
 70
  257
  9
$DIMASSOC
280
    1
  9
$PROJECTNAME
  1

  9
$CAMERADISPLAY
290
    0
  9
$LENSLENGTH
 40
50
  9
$CAMERAHEIGHT
 40
0
  9
$STEPSPERSEC
 40
2
  9
$STEPSIZE
 40
50
  9
$3DDWFPREC
 40
2
  9
$PSOLWIDTH
 40
5
  9
$PSOLHEIGHT
 40
80
  9
$LOFTANG1
 40
1.570796326794897
  9
$LOFTANG2
 40
1.570796326794897
  9
$LOFTMAG1
 40
0
  9
$LOFTMAG2
 40
0
  9
$LOFTPARAM
 70
    7
  9
$LOFTNORMALS
280
    1
  9
$LATITUDE
 40
1
  9
$LONGITUDE
 40
1
  9
$NORTHDIRECTION
 40
0
  9
$TIMEZONE
 70
-8000
  9
$LIGHTGLYPHDISPLAY
280
    1
  9
$TILEMODELIGHTSYNCH
280
    1
  9
$SOLIDHIST
280
    1
  9
$SHOWHIST
280
    1
  9
$DWFFRAME
280
    2
  9
$DGNFRAME
280
    0
  9
$REALWORLDSCALE
290
    1
  9
$INTERFERECOLOR
 62
    1
  9
$CSHADOW
280
    0
  9
$SHADOWPLANELOCATION
 40
0
  0
ENDSEC
  0
SECTION
  2
CLASSES
  0
ENDSEC
  0
SECTION
  2
TABLES
  0
TABLE
  2
VPORT
  5
8
330
0
100
AcDbSymbolTable
 70
    1
  0
VPORT
  5
31
330
2
100
AcDbSymbolTableRecord
100
AcDbViewportTableRecord
  2
*ACTIVE
 70
    0
 10
0
 20
0
 11
1
 21
1
 12
-44.7425844228764
 22
-59.74872864361917
 13
0
 23
0
 14
10
 24
10
 15
10
 25
10
 16
0
 26
0
 36
1
 17
0
 27
0
 37
0
 40
5.958321970000804
 41
1.814814814814815
 42
50
 43
0
 44
0
 50
0
 51
0
 71
    0
 72
  100
 73
    1
 74
    3
 75
    0
 76
    1
 77
    0
 78
    0
281
    0
 65
    1
110
0
120
0
130
0
111
1
121
0
131
0
112
0
122
1
132
0
 79
    0
146
0
348
10020
 60
    7
 61
    5
292
1
282
    1
141
0
142
0
 63
  250
421
3358443
  0
ENDTAB
  0
TABLE
  2
LTYPE
  5
5
330
0
100
AcDbSymbolTable
 70
    4
  0
LTYPE
  5
14
330
5
100
AcDbSymbolTableRecord
100
AcDbLinetypeTableRecord
  2
ByBlock
 70
    0
  3

 72
   65
 73
    0
 40
0
  0
LTYPE
  5
15
330
5
100
AcDbSymbolTableRecord
100
AcDbLinetypeTableRecord
  2
ByLayer
 70
    0
  3

 72
   65
 73
    0
 40
0
  0
LTYPE
  5
16
330
5
100
AcDbSymbolTableRecord
100
AcDbLinetypeTableRecord
  2
Continuous
 70
    0
  3
Solid line
 72
   65
 73
    0
 40
0
  0
LTYPE
  5
32
330
5
100
AcDbSymbolTableRecord
100
AcDbLinetypeTableRecord
  2
DOT
 70
    0
  3
Dot . . . . . . . . . . . . . . . . . . . . . .
 72
   65
 73
    2
 40
6.35
 49
0
 74
    0
 49
-6.35
 74
    0
  0
LTYPE
  5
33
330
5
100
AcDbSymbolTableRecord
100
AcDbLinetypeTableRecord
  2
DOTTINY
 70
    0
  3
Dot (.15x) .....................................
 72
   65
 73
    2
 40
0.9525
 49
0
 74
    0
 49
-0.9525
 74
    0
  0
LTYPE
  5
34
330
5
100
AcDbSymbolTableRecord
100
AcDbLinetypeTableRecord
  2
DOT2
 70
    0
  3
Dot (.5x) .....................................
 72
   65
 73
    2
 40
3.175
 49
0
 74
    0
 49
-3.175
 74
    0
  0
LTYPE
  5
35
330
5
100
AcDbSymbolTableRecord
100
AcDbLinetypeTableRecord
  2
DOTX2
 70
    0
  3
Dot (2x) .  .  .  .  .  .  .  .  .  .  .  .  .
 72
   65
 73
    2
 40
12.7
 49
0
 74
    0
 49
-12.7
 74
    0
  0
LTYPE
  5
36
330
5
100
AcDbSymbolTableRecord
100
AcDbLinetypeTableRecord
  2
DASHED
 70
    0
  3
Dashed _ _ _ _ _ _ _ _ _ _ _ _ _ _ _ _ _
 72
   65
 73
    2
 40
19.05
 49
12.7
 74
    0
 49
-6.35
 74
    0
  0
LTYPE
  5
37
330
5
100
AcDbSymbolTableRecord
100
AcDbLinetypeTableRecord
  2
DASHEDTINY
 70
    0
  3
Dashed (.15x) _ _ _ _ _ _ _ _ _ _ _ _ _ _ _ _ _
 72
   65
 73
    2
 40
2.8575
 49
1.905
 74
    0
 49
-0.9525
 74
    0
  0
LTYPE
  5
38
330
5
100
AcDbSymbolTableRecord
100
AcDbLinetypeTableRecord
  2
DASHED2
 70
    0
  3
Dashed (.5x) _ _ _ _ _ _ _ _ _ _ _ _ _ _ _ _ _
 72
   65
 73
    2
 40
9.524999999999999
 49
6.35
 74
    0
 49
-3.175
 74
    0
  0
LTYPE
  5
39
330
5
100
AcDbSymbolTableRecord
100
AcDbLinetypeTableRecord
  2
DASHEDX2
 70
    0
  3
Dashed (2x) ____  ____  ____  ____  ____  ___
 72
   65
 73
    2
 40
38.09999999999999
 49
25.4
 74
    0
 49
-12.7
 74
    0
  0
LTYPE
  5
3A
330
5
100
AcDbSymbolTableRecord
100
AcDbLinetypeTableRecord
  2
DASHDOT
 70
    0
  3
Dash dot __ . __ . __ . __ . __ . __ . __ . __
 72
   65
 73
    4
 40
25.4
 49
12.7
 74
    0
 49
-6.35
 74
    0
 49
0
 74
    0
 49
-6.35
 74
    0
  0
LTYPE
  5
3B
330
5
100
AcDbSymbolTableRecord
100
AcDbLinetypeTableRecord
  2
DASHDOTTINY
 70
    0
  3
Dash dot (.15x) _._._._._._._._._._._._._._._.
 72
   65
 73
    4
 40
3.81
 49
1.905
 74
    0
 49
-0.9525
 74
    0
 49
0
 74
    0
 49
-0.9525
 74
    0
  0
LTYPE
  5
3C
330
5
100
AcDbSymbolTableRecord
100
AcDbLinetypeTableRecord
  2
DASHDOT2
 70
    0
  3
Dash dot (.5x) _._._._._._._._._._._._._._._.
 72
   65
 73
    4
 40
12.7
 49
6.35
 74
    0
 49
-3.175
 74
    0
 49
0
 74
    0
 49
-3.175
 74
    0
  0
LTYPE
  5
3D
330
5
100
AcDbSymbolTableRecord
100
AcDbLinetypeTableRecord
  2
DASHDOTX2
 70
    0
  3
Dash dot (2x) ____  .  ____  .  ____  .  ___
 72
   65
 73
    4
 40
50.8
 49
25.4
 74
    0
 49
-12.7
 74
    0
 49
0
 74
    0
 49
-12.7
 74
    0
  0
LTYPE
  5
3E
330
5
100
AcDbSymbolTableRecord
100
AcDbLinetypeTableRecord
  2
DIVIDE
 70
    0
  3
Divide ____ . . ____ . . ____ . . ____ . . ____
 72
   65
 73
    6
 40
31.75
 49
12.7
 74
    0
 49
-6.35
 74
    0
 49
0
 74
    0
 49
-6.35
 74
    0
 49
0
 74
    0
 49
-6.35
 74
    0
  0
LTYPE
  5
3F
330
5
100
AcDbSymbolTableRecord
100
AcDbLinetypeTableRecord
  2
DIVIDETINY
 70
    0
  3
Divide (.15x) __..__..__..__..__..__..__..__.._
 72
   65
 73
    6
 40
4.7625
 49
1.905
 74
    0
 49
-0.9525
 74
    0
 49
0
 74
    0
 49
-0.9525
 74
    0
 49
0
 74
    0
 49
-0.9525
 74
    0
  0
LTYPE
  5
40
330
5
100
AcDbSymbolTableRecord
100
AcDbLinetypeTableRecord
  2
DIVIDE2
 70
    0
  3
Divide (.5x) __..__..__..__..__..__..__..__.._
 72
   65
 73
    6
 40
15.875
 49
6.35
 74
    0
 49
-3.175
 74
    0
 49
0
 74
    0
 49
-3.175
 74
    0
 49
0
 74
    0
 49
-3.175
 74
    0
  0
LTYPE
  5
41
330
5
100
AcDbSymbolTableRecord
100
AcDbLinetypeTableRecord
  2
DIVIDEX2
 70
    0
  3
Divide (2x) ________  .  .  ________  .  .  _
 72
   65
 73
    6
 40
63.5
 49
25.4
 74
    0
 49
-12.7
 74
    0
 49
0
 74
    0
 49
-12.7
 74
    0
 49
0
 74
    0
 49
-12.7
 74
    0
  0
LTYPE
  5
42
330
5
100
AcDbSymbolTableRecord
100
AcDbLinetypeTableRecord
  2
BORDER
 70
    0
  3
Border __ __ . __ __ . __ __ . __ __ . __ __ .
 72
   65
 73
    6
 40
44.45
 49
12.7
 74
    0
 49
-6.35
 74
    0
 49
12.7
 74
    0
 49
-6.35
 74
    0
 49
0
 74
    0
 49
-6.35
 74
    0
  0
LTYPE
  5
43
330
5
100
AcDbSymbolTableRecord
100
AcDbLinetypeTableRecord
  2
BORDERTINY
 70
    0
  3
Border (.15x) __.__.__.__.__.__.__.__.__.__.__.
 72
   65
 73
    6
 40
6.6675
 49
1.905
 74
    0
 49
-0.9525
 74
    0
 49
1.905
 74
    0
 49
-0.9525
 74
    0
 49
0
 74
    0
 49
-0.9525
 74
    0
  0
LTYPE
  5
44
330
5
100
AcDbSymbolTableRecord
100
AcDbLinetypeTableRecord
  2
BORDER2
 70
    0
  3
Border (.5x) __.__.__.__.__.__.__.__.__.__.__.
 72
   65
 73
    6
 40
22.225
 49
6.35
 74
    0
 49
-3.175
 74
    0
 49
6.35
 74
    0
 49
-3.175
 74
    0
 49
0
 74
    0
 49
-3.175
 74
    0
  0
LTYPE
  5
45
330
5
100
AcDbSymbolTableRecord
100
AcDbLinetypeTableRecord
  2
BORDERX2
 70
    0
  3
Border (2x) ____  ____  .  ____  ____  .  ___
 72
   65
 73
    6
 40
88.89999999999999
 49
25.4
 74
    0
 49
-12.7
 74
    0
 49
25.4
 74
    0
 49
-12.7
 74
    0
 49
0
 74
    0
 49
-12.7
 74
    0
  0
LTYPE
  5
46
330
5
100
AcDbSymbolTableRecord
100
AcDbLinetypeTableRecord
  2
CENTER
 70
    0
  3
Center ____ _ ____ _ ____ _ ____ _ ____ _ ____
 72
   65
 73
    4
 40
50.8
 49
31.75
 74
    0
 49
-6.35
 74
    0
 49
6.35
 74
    0
 49
-6.35
 74
    0
  0
LTYPE
  5
47
330
5
100
AcDbSymbolTableRecord
100
AcDbLinetypeTableRecord
  2
CENTERTINY
 70
    0
  3
Center (.15x) ___ _ ___ _ ___ _ ___ _ ___ _ ___
 72
   65
 73
    4
 40
7.619999999999999
 49
4.7625
 74
    0
 49
-0.9525
 74
    0
 49
0.9525
 74
    0
 49
-0.9525
 74
    0
  0
LTYPE
  5
48
330
5
100
AcDbSymbolTableRecord
100
AcDbLinetypeTableRecord
  2
CENTER2
 70
    0
  3
Center (.5x) ___ _ ___ _ ___ _ ___ _ ___ _ ___
 72
   65
 73
    4
 40
28.575
 49
19.05
 74
    0
 49
-3.175
 74
    0
 49
3.175
 74
    0
 49
-3.175
 74
    0
  0
LTYPE
  5
49
330
5
100
AcDbSymbolTableRecord
100
AcDbLinetypeTableRecord
  2
CENTERX2
 70
    0
  3
Center (2x) ________  __  ________  __  _____
 72
   65
 73
    4
 40
101.6
 49
63.5
 74
    0
 49
-12.7
 74
    0
 49
12.7
 74
    0
 49
-12.7
 74
    0
  0
ENDTAB
  0
TABLE
  2
LAYER
  5
2
330
0
100
AcDbSymbolTable
 70
    1
  0
LAYER
  5
10
330
2
100
AcDbSymbolTableRecord
100
AcDbLayerTableRecord
  2
0
 70
    0
 62
    7
  6
CONTINUOUS
370
   50
390
F
  0
LAYER
  5
4A
330
2
100
AcDbSymbolTableRecord
100
AcDbLayerTableRecord
  2
konstrukční
 70
    1
 62
   56
420
8421376
  6
DIVIDE2
370
    0
390
F
1001
LibreCad
1070
    1
  0
LAYER
  5
4B
330
2
100
AcDbSymbolTableRecord
100
AcDbLayerTableRecord
  2
kóty
 70
    0
 62
    4
  6
CONTINUOUS
370
   18
390
F
  0
ENDTAB
  0
TABLE
  2
STYLE
  5
3
330
0
100
AcDbSymbolTable
 70
    3
  0
STYLE
  5
4C
330
2
100
AcDbSymbolTableRecord
100
AcDbTextStyleTableRecord
  2
Standard
 70
    0
 40
0
 41
1
 50
0
 71
    0
 42
1
  3
txt
  4

  0
ENDTAB
  0
TABLE
  2
VIEW
  5
6
330
0
100
AcDbSymbolTable
 70
    0
  0
ENDTAB
  0
TABLE
  2
UCS
  5
7
330
0
100
AcDbSymbolTable
 70
    0
  0
ENDTAB
  0
TABLE
  2
APPID
  5
9
330
0
100
AcDbSymbolTable
 70
    1
  0
APPID
  5
12
330
9
100
AcDbSymbolTableRecord
100
AcDbRegAppTableRecord
  2
ACAD
 70
    0
  0
APPID
  5
4D
330
9
100
AcDbSymbolTableRecord
100
AcDbRegAppTableRecord
  2
LibreCad
 70
    0
  0
ENDTAB
  0
TABLE
  2
DIMSTYLE
  5
A
330
0
100
AcDbSymbolTable
 70
    1
100
AcDbDimStyleTable
 71
    1
  0
DIMSTYLE
105
4E
330
A
100
AcDbSymbolTableRecord
100
AcDbDimStyleTableRecord
  2
Standard
 70
    0
 40
2.5
 41
0
 42
0.625
 43
0.38
 44
1.25
 45
0
 46
0
 47
0
 48
0
 49
1
140
2.5
141
0.09
142
0
143
25.4
144
1
145
0
146
1
147
0.625
148
0
 71
    0
 72
    0
 73
    0
 74
    1
 75
    0
 76
    0
 77
    0
 78
    1
 79
    0
170
    0
171
    2
172
    0
173
    0
174
    0
175
    0
176
    0
177
    0
178
    0
179
    2
271
    0
272
    4
273
    2
274
    2
275
    0
276
    0
277
    2
278
   44
279
    0
280
    0
281
    0
282
    0
283
    1
284
    0
285
    0
286
    0
288
    0
289
    3
340
STANDARD
341

371
   -2
372
   -2
  0
ENDTAB
  0
TABLE
  2
BLOCK_RECORD
  5
1
330
0
100
AcDbSymbolTable
 70
    2
  0
BLOCK_RECORD
  5
1F
330
1
100
AcDbSymbolTableRecord
100
AcDbBlockTableRecord
  2
*Model_Space
 70
    0
280
    1
281
    0
  0
BLOCK_RECORD
  5
1E
330
1
100
AcDbSymbolTableRecord
100
AcDbBlockTableRecord
  2
*Paper_Space
 70
    0
280
    1
281
    0
  0
BLOCK_RECORD
  5
4F
330
1
100
AcDbSymbolTableRecord
100
AcDbBlockTableRecord
  2
*D1
 70
    0
280
    1
281
    0
  0
BLOCK_RECORD
  5
52
330
1
100
AcDbSymbolTableRecord
100
AcDbBlockTableRecord
  2
*D12
 70
    0
280
    1
281
    0
  0
BLOCK_RECORD
  5
55
330
1
100
AcDbSymbolTableRecord
100
AcDbBlockTableRecord
  2
*D15
 70
    0
280
    1
281
    0
  0
BLOCK_RECORD
  5
58
330
1
100
AcDbSymbolTableRecord
100
AcDbBlockTableRecord
  2
*D8
 70
    0
280
    1
281
    0
  0
BLOCK_RECORD
  5
5B
330
1
100
AcDbSymbolTableRecord
100
AcDbBlockTableRecord
  2
*D14
 70
    0
280
    1
281
    0
  0
BLOCK_RECORD
  5
5E
330
1
100
AcDbSymbolTableRecord
100
AcDbBlockTableRecord
  2
*D16
 70
    0
280
    1
281
    0
  0
BLOCK_RECORD
  5
61
330
1
100
AcDbSymbolTableRecord
100
AcDbBlockTableRecord
  2
*D6
 70
    0
280
    1
281
    0
  0
BLOCK_RECORD
  5
64
330
1
100
AcDbSymbolTableRecord
100
AcDbBlockTableRecord
  2
*D7
 70
    0
280
    1
281
    0
  0
BLOCK_RECORD
  5
67
330
1
100
AcDbSymbolTableRecord
100
AcDbBlockTableRecord
  2
*D9
 70
    0
280
    1
281
    0
  0
BLOCK_RECORD
  5
6A
330
1
100
AcDbSymbolTableRecord
100
AcDbBlockTableRecord
  2
*D13
 70
    0
280
    1
281
    0
  0
BLOCK_RECORD
  5
6D
330
1
100
AcDbSymbolTableRecord
100
AcDbBlockTableRecord
  2
*D3
 70
    0
280
    1
281
    0
  0
BLOCK_RECORD
  5
70
330
1
100
AcDbSymbolTableRecord
100
AcDbBlockTableRecord
  2
*D10
 70
    0
280
    1
281
    0
  0
BLOCK_RECORD
  5
73
330
1
100
AcDbSymbolTableRecord
100
AcDbBlockTableRecord
  2
*D4
 70
    0
280
    1
281
    0
  0
BLOCK_RECORD
  5
76
330
1
100
AcDbSymbolTableRecord
100
AcDbBlockTableRecord
  2
*D11
 70
    0
280
    1
281
    0
  0
BLOCK_RECORD
  5
79
330
1
100
AcDbSymbolTableRecord
100
AcDbBlockTableRecord
  2
*D2
 70
    0
280
    1
281
    0
  0
BLOCK_RECORD
  5
7C
330
1
100
AcDbSymbolTableRecord
100
AcDbBlockTableRecord
  2
*D5
 70
    0
280
    1
281
    0
  0
ENDTAB
  0
ENDSEC
  0
SECTION
  2
BLOCKS
  0
BLOCK
  5
20
330
1F
100
AcDbEntity
  8
0
100
AcDbBlockBegin
  2
*Model_Space
 70
    0
 10
0
 20
0
 30
0
  3
*Model_Space
  1

  0
ENDBLK
  5
21
330
1F
100
AcDbEntity
  8
0
100
AcDbBlockEnd
  0
BLOCK
  5
1C
330
1B
100
AcDbEntity
  8
0
100
AcDbBlockBegin
  2
*Paper_Space
 70
    0
 10
0
 20
0
 30
0
  3
*Paper_Space
  1

  0
ENDBLK
  5
1D
330
1F
100
AcDbEntity
  8
0
100
AcDbBlockEnd
  0
BLOCK
  5
50
330
4F
100
AcDbEntity
  8
0
100
AcDbBlockBegin
  2
*D1
 70
    1
 10
0
 20
0
  3
*D1
  1

  0
LINE
  5
7F
100
AcDbEntity
  8
kóty
  6
ByBlock
 62
    0
370
   -2
100
AcDbLine
 10
-5.207025857293557
 20
33
 11
-5.207025857293559
 21
1.349579889653654e-15
  0
SOLID
  5
80
100
AcDbEntity
  8
kóty
  6
ByBlock
 62
    0
370
   -2
100
AcDbTrace
 10
-5.207025857293557
 20
33
 30
0
 11
-5.207025857293557
 21
33
 31
0
 12
-5.207025857293557
 22
33
 32
0
 13
-5.207025857293557
 23
33
 33
0
  0
SOLID
  5
81
100
AcDbEntity
  8
kóty
  6
ByBlock
 62
    0
370
   -2
100
AcDbTrace
 10
-5.207025857293559
 20
1.349579889653654e-15
 30
0
 11
-5.207025857293559
 21
1.349579889653654e-15
 31
0
 12
-5.207025857293559
 22
1.349579889653654e-15
 32
0
 13
-5.207025857293559
 23
1.349579889653654e-15
 33
0
  0
MTEXT
  5
82
100
AcDbEntity
  8
kóty
  6
CONTINUOUS
 62
    0
370
   -2
100
AcDbMText
 10
-7.082025857293558
 20
16.5
 30
0
 40
6.25
 41
7.638888888889664
 71
    5
 72
    1
  1
33
  7
STANDARD
210
0
220
0
230
1
 50
90
 73
    2
 44
1
  0
LINE
  5
83
100
AcDbEntity
  8
kóty
  6
ByBlock
 62
    0
370
   -2
100
AcDbLine
 10
14.93750092911317
 20
33
 11
-8.332025857293557
 21
33
  0
LINE
  5
84
100
AcDbEntity
  8
kóty
  6
ByBlock
 62
    0
370
   -2
100
AcDbLine
 10
14.93750088610255
 20
1.913510623667739e-16
 11
-8.332025857293559
 21
1.732282014387202e-15
  0
ENDBLK
  5
51
330
4F
100
AcDbEntity
  8
0
100
AcDbBlockEnd
  0
BLOCK
  5
53
330
52
100
AcDbEntity
  8
0
100
AcDbBlockBegin
  2
*D12
 70
    1
 10
0
 20
0
  3
*D12
  1

  0
LINE
  5
85
100
AcDbEntity
  8
kóty
  6
ByBlock
 62
    0
370
   -2
100
AcDbLine
 10
167
 20
-6.920311898679976
 11
138.654847270833
 21
-6.920311898679976
  0
SOLID
  5
86
100
AcDbEntity
  8
kóty
  6
ByBlock
 62
    0
370
   -2
100
AcDbTrace
 10
167
 20
-6.920311898679976
 30
0
 11
167
 21
-6.920311898679976
 31
0
 12
167
 22
-6.920311898679976
 32
0
 13
167
 23
-6.920311898679976
 33
0
  0
SOLID
  5
87
100
AcDbEntity
  8
kóty
  6
ByBlock
 62
    0
370
   -2
100
AcDbTrace
 10
138.654847270833
 20
-6.920311898679976
 30
0
 11
138.654847270833
 21
-6.920311898679976
 31
0
 12
138.654847270833
 22
-6.920311898679976
 32
0
 13
138.654847270833
 23
-6.920311898679976
 33
0
  0
MTEXT
  5
88
100
AcDbEntity
  8
kóty
  6
CONTINUOUS
 62
    0
370
   -2
100
AcDbMText
 10
152.8274236354165
 20
-5.045311898679976
 30
0
 40
6.25
 41
7.638888888888888
 71
    5
 72
    1
  1
28
  7
STANDARD
210
0
220
0
230
1
 50
360
 73
    2
 44
1
  0
LINE
  5
89
100
AcDbEntity
  8
kóty
  6
ByBlock
 62
    0
370
   -2
100
AcDbLine
 10
167
 20
-1.562499999999986
 11
167
 21
-10.04531189867998
  0
LINE
  5
8A
100
AcDbEntity
  8
kóty
  6
ByBlock
 62
    0
370
   -2
100
AcDbLine
 10
138.654847270833
 20
3.270971381223709
 11
138.654847270833
 21
-10.04531189867998
  0
ENDBLK
  5
54
330
52
100
AcDbEntity
  8
0
100
AcDbBlockEnd
  0
BLOCK
  5
56
330
55
100
AcDbEntity
  8
0
100
AcDbBlockBegin
  2
*D15
 70
    1
 10
0
 20
0
  3
*D15
  1

  0
LINE
  5
8B
100
AcDbEntity
  8
kóty
  6
ByBlock
 62
    0
370
   -2
100
AcDbLine
 10
125.9903842730285
 20
-76.93527866513406
 11
31.22567992201017
 21
-76.93527866513406
  0
SOLID
  5
8C
100
AcDbEntity
  8
kóty
  6
ByBlock
 62
    0
370
   -2
100
AcDbTrace
 10
125.9903842730285
 20
-76.93527866513406
 30
0
 11
125.9903842730285
 21
-76.93527866513406
 31
0
 12
125.9903842730285
 22
-76.93527866513406
 32
0
 13
125.9903842730285
 23
-76.93527866513406
 33
0
  0
SOLID
  5
8D
100
AcDbEntity
  8
kóty
  6
ByBlock
 62
    0
370
   -2
100
AcDbTrace
 10
31.22567992201017
 20
-76.93527866513406
 30
0
 11
31.22567992201017
 21
-76.93527866513406
 31
0
 12
31.22567992201017
 22
-76.93527866513406
 32
0
 13
31.22567992201017
 23
-76.93527866513406
 33
0
  0
MTEXT
  5
8E
100
AcDbEntity
  8
kóty
  6
CONTINUOUS
 62
    0
370
   -2
100
AcDbMText
 10
78.60803209751934
 20
-75.06027866513406
 30
0
 40
6.25
 41
7.638888888889664
 71
    5
 72
    1
  1
95
  7
STANDARD
210
0
220
0
230
1
 50
360
 73
    2
 44
1
  0
LINE
  5
8F
100
AcDbEntity
  8
kóty
  6
ByBlock
 62
    0
370
   -2
100
AcDbLine
 10
125.9903842730285
 20
-68.3125
 11
125.9903842730285
 21
-80.06027866513406
  0
LINE
  5
90
100
AcDbEntity
  8
kóty
  6
ByBlock
 62
    0
370
   -2
100
AcDbLine
 10
31.22567992201017
 20
-67.4756868863718
 11
31.22567992201017
 21
-80.06027866513406
  0
ENDBLK
  5
57
330
55
100
AcDbEntity
  8
0
100
AcDbBlockEnd
  0
BLOCK
  5
59
330
58
100
AcDbEntity
  8
0
100
AcDbBlockBegin
  2
*D8
 70
    1
 10
0
 20
0
  3
*D8
  1

  0
LINE
  5
91
100
AcDbEntity
  8
kóty
  6
ByBlock
 62
    0
370
   -2
100
AcDbLine
 10
0
 20
38.4167425049973
 11
166.9999962740638
 21
38.4167425049973
  0
SOLID
  5
92
100
AcDbEntity
  8
kóty
  6
ByBlock
 62
    0
370
   -2
100
AcDbTrace
 10
0
 20
38.4167425049973
 30
0
 11
0
 21
38.4167425049973
 31
0
 12
0
 22
38.4167425049973
 32
0
 13
0
 23
38.4167425049973
 33
0
  0
SOLID
  5
93
100
AcDbEntity
  8
kóty
  6
ByBlock
 62
    0
370
   -2
100
AcDbTrace
 10
166.9999962740638
 20
38.4167425049973
 30
0
 11
166.9999962740638
 21
38.4167425049973
 31
0
 12
166.9999962740638
 22
38.4167425049973
 32
0
 13
166.9999962740638
 23
38.4167425049973
 33
0
  0
MTEXT
  5
94
100
AcDbEntity
  8
kóty
  6
CONTINUOUS
 62
    0
370
   -2
100
AcDbMText
 10
83.49999813703191
 20
40.2917425049973
 30
0
 40
6.25
 41
11.1111111111115
 71
    5
 72
    1
  1
167
  7
STANDARD
210
0
220
0
230
1
 50
0
 73
    2
 44
1
  0
LINE
  5
95
100
AcDbEntity
  8
kóty
  6
ByBlock
 62
    0
370
   -2
100
AcDbLine
 10
9.567553118338697e-17
 20
18.06250000000001
 11
1.913510623667739e-16
 21
41.5417425049973
  0
LINE
  5
96
100
AcDbEntity
  8
kóty
  6
ByBlock
 62
    0
370
   -2
100
AcDbLine
 10
166.9999962740638
 20
34.5625
 11
166.9999962740638
 21
41.5417425049973
  0
ENDBLK
  5
5A
330
58
100
AcDbEntity
  8
0
100
AcDbBlockEnd
  0
BLOCK
  5
5C
330
5B
100
AcDbEntity
  8
0
100
AcDbBlockBegin
  2
*D14
 70
    1
 10
0
 20
0
  3
*D14
  1

  0
LINE
  5
97
100
AcDbEntity
  8
kóty
  6
ByBlock
 62
    0
370
   -2
100
AcDbLine
 10
125.9903842730285
 20
-76.93758522650207
 11
153
 21
-76.93758522650207
  0
SOLID
  5
98
100
AcDbEntity
  8
kóty
  6
ByBlock
 62
    0
370
   -2
100
AcDbTrace
 10
125.9903842730285
 20
-76.93758522650207
 30
0
 11
125.9903842730285
 21
-76.93758522650207
 31
0
 12
125.9903842730285
 22
-76.93758522650207
 32
0
 13
125.9903842730285
 23
-76.93758522650207
 33
0
  0
SOLID
  5
99
100
AcDbEntity
  8
kóty
  6
ByBlock
 62
    0
370
   -2
100
AcDbTrace
 10
153
 20
-76.93758522650207
 30
0
 11
153
 21
-76.93758522650207
 31
0
 12
153
 22
-76.93758522650207
 32
0
 13
153
 23
-76.93758522650207
 33
0
  0
MTEXT
  5
9A
100
AcDbEntity
  8
kóty
  6
CONTINUOUS
 62
    0
370
   -2
100
AcDbMText
 10
139.4951921365142
 20
-75.06258522650207
 30
0
 40
6.25
 41
7.638888888888888
 71
    5
 72
    1
  1
27
  7
STANDARD
210
0
220
0
230
1
 50
0
 73
    2
 44
1
  0
LINE
  5
9B
100
AcDbEntity
  8
kóty
  6
ByBlock
 62
    0
370
   -2
100
AcDbLine
 10
125.9903842730285
 20
-68.3125
 11
125.9903842730285
 21
-80.06258522650207
  0
LINE
  5
9C
100
AcDbEntity
  8
kóty
  6
ByBlock
 62
    0
370
   -2
100
AcDbLine
 10
153
 20
-72.8125
 11
153
 21
-80.06258522650207
  0
ENDBLK
  5
5D
330
5B
100
AcDbEntity
  8
0
100
AcDbBlockEnd
  0
BLOCK
  5
5F
330
5E
100
AcDbEntity
  8
0
100
AcDbBlockBegin
  2
*D16
 70
    1
 10
0
 20
0
  3
*D16
  1

  0
LINE
  5
9D
100
AcDbEntity
  8
kóty
  6
ByBlock
 62
    0
370
   -2
100
AcDbLine
 10
138.6426491519381
 20
-6.923585854219315
 11
30.78858624109814
 21
-6.923585854219315
  0
SOLID
  5
9E
100
AcDbEntity
  8
kóty
  6
ByBlock
 62
    0
370
   -2
100
AcDbTrace
 10
138.6426491519381
 20
-6.923585854219315
 30
0
 11
138.6426491519381
 21
-6.923585854219315
 31
0
 12
138.6426491519381
 22
-6.923585854219315
 32
0
 13
138.6426491519381
 23
-6.923585854219315
 33
0
  0
SOLID
  5
9F
100
AcDbEntity
  8
kóty
  6
ByBlock
 62
    0
370
   -2
100
AcDbTrace
 10
30.78858624109814
 20
-6.923585854219315
 30
0
 11
30.78858624109814
 21
-6.923585854219315
 31
0
 12
30.78858624109814
 22
-6.923585854219315
 32
0
 13
30.78858624109814
 23
-6.923585854219315
 33
0
  0
MTEXT
  5
A0
100
AcDbEntity
  8
kóty
  6
CONTINUOUS
 62
    0
370
   -2
100
AcDbMText
 10
84.71561769651811
 20
-5.048585854219315
 30
0
 40
6.25
 41
11.11111111111111
 71
    5
 72
    1
  1
108
  7
STANDARD
210
0
220
0
230
1
 50
360
 73
    2
 44
1
  0
LINE
  5
A1
100
AcDbEntity
  8
kóty
  6
ByBlock
 62
    0
370
   -2
100
AcDbLine
 10
138.6426491519381
 20
3.271150279171507
 11
138.6426491519381
 21
-10.04858585421931
  0
LINE
  5
A2
100
AcDbEntity
  8
kóty
  6
ByBlock
 62
    0
370
   -2
100
AcDbLine
 10
30.78858624109815
 20
4.157982887399301
 11
30.78858624109814
 21
-10.04858585421931
  0
ENDBLK
  5
60
330
5E
100
AcDbEntity
  8
0
100
AcDbBlockEnd
  0
BLOCK
  5
62
330
61
100
AcDbEntity
  8
0
100
AcDbBlockBegin
  2
*D6
 70
    1
 10
0
 20
0
  3
*D6
  1

  0
LINE
  5
A3
100
AcDbEntity
  8
kóty
  6
ByBlock
 62
    0
370
   -2
100
AcDbLine
 10
173.9278547657754
 20
-43.25
 11
173.9278547657754
 21
-65.25
  0
SOLID
  5
A4
100
AcDbEntity
  8
kóty
  6
ByBlock
 62
    0
370
   -2
100
AcDbTrace
 10
173.9278547657754
 20
-43.25
 30
0
 11
173.9278547657754
 21
-43.25
 31
0
 12
173.9278547657754
 22
-43.25
 32
0
 13
173.9278547657754
 23
-43.25
 33
0
  0
SOLID
  5
A5
100
AcDbEntity
  8
kóty
  6
ByBlock
 62
    0
370
   -2
100
AcDbTrace
 10
173.9278547657754
 20
-65.25
 30
0
 11
173.9278547657754
 21
-65.25
 31
0
 12
173.9278547657754
 22
-65.25
 32
0
 13
173.9278547657754
 23
-65.25
 33
0
  0
MTEXT
  5
A6
100
AcDbEntity
  8
kóty
  6
CONTINUOUS
 62
    0
370
   -2
100
AcDbMText
 10
172.0528547657754
 20
-54.25
 30
0
 40
6.25
 41
7.638888888888888
 71
    5
 72
    1
  1
22
  7
STANDARD
210
0
220
0
230
1
 50
90
 73
    2
 44
1
  0
LINE
  5
A7
100
AcDbEntity
  8
kóty
  6
ByBlock
 62
    0
370
   -2
100
AcDbLine
 10
154.5625
 20
-43.25
 11
177.0528547657754
 21
-43.25
  0
LINE
  5
A8
100
AcDbEntity
  8
kóty
  6
ByBlock
 62
    0
370
   -2
100
AcDbLine
 10
154.5625
 20
-65.25
 11
177.0528547657754
 21
-65.25
  0
ENDBLK
  5
63
330
61
100
AcDbEntity
  8
0
100
AcDbBlockEnd
  0
BLOCK
  5
65
330
64
100
AcDbEntity
  8
0
100
AcDbBlockBegin
  2
*D7
 70
    1
 10
0
 20
0
  3
*D7
  1

  0
LINE
  5
A9
100
AcDbEntity
  8
kóty
  6
ByBlock
 62
    0
370
   -2
100
AcDbLine
 10
-5.274370445185715
 20
-37.25
 11
-5.274370445185717
 21
-71.25
  0
SOLID
  5
AA
100
AcDbEntity
  8
kóty
  6
ByBlock
 62
    0
370
   -2
100
AcDbTrace
 10
-5.274370445185715
 20
-37.25
 30
0
 11
-5.274370445185715
 21
-37.25
 31
0
 12
-5.274370445185715
 22
-37.25
 32
0
 13
-5.274370445185715
 23
-37.25
 33
0
  0
SOLID
  5
AB
100
AcDbEntity
  8
kóty
  6
ByBlock
 62
    0
370
   -2
100
AcDbTrace
 10
-5.274370445185717
 20
-71.25
 30
0
 11
-5.274370445185717
 21
-71.25
 31
0
 12
-5.274370445185717
 22
-71.25
 32
0
 13
-5.274370445185717
 23
-71.25
 33
0
  0
MTEXT
  5
AC
100
AcDbEntity
  8
kóty
  6
CONTINUOUS
 62
    0
370
   -2
100
AcDbMText
 10
-7.149370445185716
 20
-54.25
 30
0
 40
6.25
 41
8.333333333333721
 71
    5
 72
    1
  1
34
  7
STANDARD
210
0
220
0
230
1
 50
90
 73
    2
 44
1
  0
LINE
  5
AD
100
AcDbEntity
  8
kóty
  6
ByBlock
 62
    0
370
   -2
100
AcDbLine
 10
15.4375007879253
 20
-37.25
 11
-8.399370445185715
 21
-37.25
  0
LINE
  5
AE
100
AcDbEntity
  8
kóty
  6
ByBlock
 62
    0
370
   -2
100
AcDbLine
 10
15.43749886699996
 20
-71.25
 11
-8.399370445185717
 21
-71.25
  0
ENDBLK
  5
66
330
64
100
AcDbEntity
  8
0
100
AcDbBlockEnd
  0
BLOCK
  5
68
330
67
100
AcDbEntity
  8
0
100
AcDbBlockBegin
  2
*D9
 70
    1
 10
0
 20
0
  3
*D9
  1

  0
LINE
  5
AF
100
AcDbEntity
  8
kóty
  6
ByBlock
 62
    0
370
   -2
100
AcDbLine
 10
167
 20
38.43060296992026
 11
173
 21
38.43060296992026
  0
SOLID
  5
B0
100
AcDbEntity
  8
kóty
  6
ByBlock
 62
    0
370
   -2
100
AcDbTrace
 10
167
 20
38.43060296992026
 30
0
 11
167
 21
38.43060296992026
 31
0
 12
167
 22
38.43060296992026
 32
0
 13
167
 23
38.43060296992026
 33
0
  0
SOLID
  5
B1
100
AcDbEntity
  8
kóty
  6
ByBlock
 62
    0
370
   -2
100
AcDbTrace
 10
173
 20
38.43060296992026
 30
0
 11
173
 21
38.43060296992026
 31
0
 12
173
 22
38.43060296992026
 32
0
 13
173
 23
38.43060296992026
 33
0
  0
MTEXT
  5
B2
100
AcDbEntity
  8
kóty
  6
CONTINUOUS
 62
    0
370
   -2
100
AcDbMText
 10
170
 20
40.30560296992026
 30
0
 40
6.25
 41
2.777777777778165
 71
    5
 72
    1
  1
6
  7
STANDARD
210
0
220
0
230
1
 50
0
 73
    2
 44
1
  0
LINE
  5
B3
100
AcDbEntity
  8
kóty
  6
ByBlock
 62
    0
370
   -2
100
AcDbLine
 10
167
 20
30.5625
 11
167
 21
41.55560296992026
  0
LINE
  5
B4
100
AcDbEntity
  8
kóty
  6
ByBlock
 62
    0
370
   -2
100
AcDbLine
 10
173
 20
29.5625
 11
173
 21
41.55560296992026
  0
ENDBLK
  5
69
330
67
100
AcDbEntity
  8
0
100
AcDbBlockEnd
  0
BLOCK
  5
6B
330
6A
100
AcDbEntity
  8
0
100
AcDbBlockBegin
  2
*D13
 70
    1
 10
0
 20
0
  3
*D13
  1

  0
LINE
  5
B5
100
AcDbEntity
  8
kóty
  6
ByBlock
 62
    0
370
   -2
100
AcDbLine
 10
125.9903842730285
 20
-41.75
 11
125.9903842730285
 21
-66.89954536944379
  0
SOLID
  5
B6
100
AcDbEntity
  8
kóty
  6
ByBlock
 62
    0
370
   -2
100
AcDbTrace
 10
125.9903842730285
 20
-41.75
 30
0
 11
125.9903842730285
 21
-41.75
 31
0
 12
125.9903842730285
 22
-41.75
 32
0
 13
125.9903842730285
 23
-41.75
 33
0
  0
SOLID
  5
B7
100
AcDbEntity
  8
kóty
  6
ByBlock
 62
    0
370
   -2
100
AcDbTrace
 10
125.9903842730285
 20
-66.89954536944379
 30
0
 11
125.9903842730285
 21
-66.89954536944379
 31
0
 12
125.9903842730285
 22
-66.89954536944379
 32
0
 13
125.9903842730285
 23
-66.89954536944379
 33
0
  0
MTEXT
  5
B8
100
AcDbEntity
  8
kóty
  6
CONTINUOUS
 62
    0
370
   -2
100
AcDbMText
 10
124.1153842730285
 20
-54.32477268472189
 30
0
 40
6.25
 41
7.638888888889277
 71
    5
 72
    1
  1
25
  7
STANDARD
210
0
220
0
230
1
 50
90
 73
    2
 44
1
  0
LINE
  5
B9
100
AcDbEntity
  8
kóty
  6
ByBlock
 62
    0
370
   -2
100
AcDbLine
 10
124.6011076680044
 20
-41.75
 11
122.8653842730285
 21
-41.75
  0
LINE
  5
BA
100
AcDbEntity
  8
kóty
  6
ByBlock
 62
    0
370
   -2
100
AcDbLine
 10
124.641235785913
 20
-66.89954536944379
 11
122.8653842730285
 21
-66.89954536944379
  0
ENDBLK
  5
6C
330
6A
100
AcDbEntity
  8
0
100
AcDbBlockEnd
  0
BLOCK
  5
6E
330
6D
100
AcDbEntity
  8
0
100
AcDbBlockBegin
  2
*D3
 70
    1
 10
0
 20
0
  3
*D3
  1

  0
LINE
  5
BB
100
AcDbEntity
  8
kóty
  6
ByBlock
 62
    0
370
   -2
100
AcDbLine
 10
178.2694729255868
 20
28
 11
178.2694729255868
 21
5
  0
SOLID
  5
BC
100
AcDbEntity
  8
kóty
  6
ByBlock
 62
    0
370
   -2
100
AcDbTrace
 10
178.2694729255868
 20
28
 30
0
 11
178.2694729255868
 21
28
 31
0
 12
178.2694729255868
 22
28
 32
0
 13
178.2694729255868
 23
28
 33
0
  0
SOLID
  5
BD
100
AcDbEntity
  8
kóty
  6
ByBlock
 62
    0
370
   -2
100
AcDbTrace
 10
178.2694729255868
 20
5
 30
0
 11
178.2694729255868
 21
5
 31
0
 12
178.2694729255868
 22
5
 32
0
 13
178.2694729255868
 23
5
 33
0
  0
MTEXT
  5
BE
100
AcDbEntity
  8
kóty
  6
CONTINUOUS
 62
    0
370
   -2
100
AcDbMText
 10
176.3944729255868
 20
16.5
 30
0
 40
6.25
 41
7.638888888889277
 71
    5
 72
    1
  1
23
  7
STANDARD
210
0
220
0
230
1
 50
90
 73
    2
 44
1
  0
LINE
  5
BF
100
AcDbEntity
  8
kóty
  6
ByBlock
 62
    0
370
   -2
100
AcDbLine
 10
174.5625
 20
28
 11
181.3944729255868
 21
28
  0
LINE
  5
C0
100
AcDbEntity
  8
kóty
  6
ByBlock
 62
    0
370
   -2
100
AcDbLine
 10
174.5625
 20
5
 11
181.3944729255868
 21
5
  0
ENDBLK
  5
6F
330
6D
100
AcDbEntity
  8
0
100
AcDbBlockEnd
  0
BLOCK
  5
71
330
70
100
AcDbEntity
  8
0
100
AcDbBlockBegin
  2
*D10
 70
    1
 10
0
 20
0
  3
*D10
  1

  0
LINE
  5
C1
100
AcDbEntity
  8
kóty
  6
ByBlock
 62
    0
370
   -2
100
AcDbLine
 10
0
 20
-31.86234628973554
 11
153
 21
-31.86234628973554
  0
SOLID
  5
C2
100
AcDbEntity
  8
kóty
  6
ByBlock
 62
    0
370
   -2
100
AcDbTrace
 10
0
 20
-31.86234628973554
 30
0
 11
0
 21
-31.86234628973554
 31
0
 12
0
 22
-31.86234628973554
 32
0
 13
0
 23
-31.86234628973554
 33
0
  0
SOLID
  5
C3
100
AcDbEntity
  8
kóty
  6
ByBlock
 62
    0
370
   -2
100
AcDbTrace
 10
153
 20
-31.86234628973554
 30
0
 11
153
 21
-31.86234628973554
 31
0
 12
153
 22
-31.86234628973554
 32
0
 13
153
 23
-31.86234628973554
 33
0
  0
MTEXT
  5
C4
100
AcDbEntity
  8
kóty
  6
CONTINUOUS
 62
    0
370
   -2
100
AcDbMText
 10
76.5
 20
-29.98734628973554
 30
0
 40
6.25
 41
11.11111111111189
 71
    5
 72
    1
  1
153
  7
STANDARD
210
0
220
0
230
1
 50
0
 73
    2
 44
1
  0
LINE
  5
C5
100
AcDbEntity
  8
kóty
  6
ByBlock
 62
    0
370
   -2
100
AcDbLine
 10
9.567553118338697e-17
 20
-52.68750000000001
 11
1.913510623667739e-16
 21
-28.73734628973554
  0
LINE
  5
C6
100
AcDbEntity
  8
kóty
  6
ByBlock
 62
    0
370
   -2
100
AcDbLine
 10
153
 20
-35.68749999999995
 11
153
 21
-28.73734628973554
  0
ENDBLK
  5
72
330
70
100
AcDbEntity
  8
0
100
AcDbBlockEnd
  0
BLOCK
  5
74
330
73
100
AcDbEntity
  8
0
100
AcDbBlockBegin
  2
*D4
 70
    1
 10
0
 20
0
  3
*D4
  1

  0
LINE
  5
C7
100
AcDbEntity
  8
kóty
  6
ByBlock
 62
    0
370
   -2
100
AcDbLine
 10
184.1898613253295
 20
29
 11
184.1898613253295
 21
4
  0
SOLID
  5
C8
100
AcDbEntity
  8
kóty
  6
ByBlock
 62
    0
370
   -2
100
AcDbTrace
 10
184.1898613253295
 20
29
 30
0
 11
184.1898613253295
 21
29
 31
0
 12
184.1898613253295
 22
29
 32
0
 13
184.1898613253295
 23
29
 33
0
  0
SOLID
  5
C9
100
AcDbEntity
  8
kóty
  6
ByBlock
 62
    0
370
   -2
100
AcDbTrace
 10
184.1898613253295
 20
4
 30
0
 11
184.1898613253295
 21
4
 31
0
 12
184.1898613253295
 22
4
 32
0
 13
184.1898613253295
 23
4
 33
0
  0
MTEXT
  5
CA
100
AcDbEntity
  8
kóty
  6
CONTINUOUS
 62
    0
370
   -2
100
AcDbMText
 10
182.3148613253295
 20
16.5
 30
0
 40
6.25
 41
7.638888888889277
 71
    5
 72
    1
  1
25
  7
STANDARD
210
0
220
0
230
1
 50
90
 73
    2
 44
1
  0
LINE
  5
CB
100
AcDbEntity
  8
kóty
  6
ByBlock
 62
    0
370
   -2
100
AcDbLine
 10
168.5625
 20
29
 11
187.3148613253295
 21
29
  0
LINE
  5
CC
100
AcDbEntity
  8
kóty
  6
ByBlock
 62
    0
370
   -2
100
AcDbLine
 10
168.5625
 20
4
 11
187.3148613253295
 21
4
  0
ENDBLK
  5
75
330
73
100
AcDbEntity
  8
0
100
AcDbBlockEnd
  0
BLOCK
  5
77
330
76
100
AcDbEntity
  8
0
100
AcDbBlockBegin
  2
*D11
 70
    1
 10
0
 20
0
  3
*D11
  1

  0
LINE
  5
CD
100
AcDbEntity
  8
kóty
  6
ByBlock
 62
    0
370
   -2
100
AcDbLine
 10
153
 20
-31.85987463504005
 11
162
 21
-31.85987463504005
  0
SOLID
  5
CE
100
AcDbEntity
  8
kóty
  6
ByBlock
 62
    0
370
   -2
100
AcDbTrace
 10
153
 20
-31.85987463504005
 30
0
 11
153
 21
-31.85987463504005
 31
0
 12
153
 22
-31.85987463504005
 32
0
 13
153
 23
-31.85987463504005
 33
0
  0
SOLID
  5
CF
100
AcDbEntity
  8
kóty
  6
ByBlock
 62
    0
370
   -2
100
AcDbTrace
 10
162
 20
-31.85987463504005
 30
0
 11
162
 21
-31.85987463504005
 31
0
 12
162
 22
-31.85987463504005
 32
0
 13
162
 23
-31.85987463504005
 33
0
  0
MTEXT
  5
D0
100
AcDbEntity
  8
kóty
  6
CONTINUOUS
 62
    0
370
   -2
100
AcDbMText
 10
157.5
 20
-29.98487463504005
 30
0
 40
6.25
 41
2.777777777778165
 71
    5
 72
    1
  1
9
  7
STANDARD
210
0
220
0
230
1
 50
0
 73
    2
 44
1
  0
LINE
  5
D1
100
AcDbEntity
  8
kóty
  6
ByBlock
 62
    0
370
   -2
100
AcDbLine
 10
153
 20
-35.6875
 11
153
 21
-28.73487463504005
  0
LINE
  5
D2
100
AcDbEntity
  8
kóty
  6
ByBlock
 62
    0
370
   -2
100
AcDbLine
 10
162
 20
-43.03599514082655
 11
162
 21
-28.73487463504005
  0
ENDBLK
  5
78
330
76
100
AcDbEntity
  8
0
100
AcDbBlockEnd
  0
BLOCK
  5
7A
330
79
100
AcDbEntity
  8
0
100
AcDbBlockBegin
  2
*D2
 70
    1
 10
0
 20
0
  3
*D2
  1

  0
LINE
  5
D3
100
AcDbEntity
  8
kóty
  6
ByBlock
 62
    0
370
   -2
100
AcDbLine
 10
138.6425263853137
 20
28.15982656422607
 11
138.6425263853137
 21
4.833773045795849
  0
SOLID
  5
D4
100
AcDbEntity
  8
kóty
  6
ByBlock
 62
    0
370
   -2
100
AcDbTrace
 10
138.6425263853137
 20
28.15982656422607
 30
0
 11
138.6425263853137
 21
28.15982656422607
 31
0
 12
138.6425263853137
 22
28.15982656422607
 32
0
 13
138.6425263853137
 23
28.15982656422607
 33
0
  0
SOLID
  5
D5
100
AcDbEntity
  8
kóty
  6
ByBlock
 62
    0
370
   -2
100
AcDbTrace
 10
138.6425263853137
 20
4.833773045795849
 30
0
 11
138.6425263853137
 21
4.833773045795849
 31
0
 12
138.6425263853137
 22
4.833773045795849
 32
0
 13
138.6425263853137
 23
4.833773045795849
 33
0
  0
MTEXT
  5
D6
100
AcDbEntity
  8
kóty
  6
CONTINUOUS
 62
    0
370
   -2
100
AcDbMText
 10
136.7675263853137
 20
16.49679980501096
 30
0
 40
6.25
 41
7.638888888889277
 71
    5
 72
    1
  1
23
  7
STANDARD
210
0
220
0
230
1
 50
90
 73
    2
 44
1
  0
LINE
  5
D7
100
AcDbEntity
  8
kóty
  6
ByBlock
 62
    0
370
   -2
100
AcDbLine
 10
139.9075634286494
 20
28.15982656422607
 11
141.7675263853137
 21
28.15982656422607
  0
LINE
  5
D8
100
AcDbEntity
  8
kóty
  6
ByBlock
 62
    0
370
   -2
100
AcDbLine
 10
139.8827748489274
 20
4.833773045795849
 11
141.7675263853137
 21
4.833773045795849
  0
ENDBLK
  5
7B
330
79
100
AcDbEntity
  8
0
100
AcDbBlockEnd
  0
BLOCK
  5
7D
330
7C
100
AcDbEntity
  8
0
100
AcDbBlockBegin
  2
*D5
 70
    1
 10
0
 20
0
  3
*D5
  1

  0
LINE
  5
D9
100
AcDbEntity
  8
kóty
  6
ByBlock
 62
    0
370
   -2
100
AcDbLine
 10
167.218081246067
 20
-44.63534391672061
 11
167.218081246067
 21
-63.86465608327939
  0
SOLID
  5
DA
100
AcDbEntity
  8
kóty
  6
ByBlock
 62
    0
370
   -2
100
AcDbTrace
 10
167.218081246067
 20
-44.63534391672061
 30
0
 11
167.218081246067
 21
-44.63534391672061
 31
0
 12
167.218081246067
 22
-44.63534391672061
 32
0
 13
167.218081246067
 23
-44.63534391672061
 33
0
  0
SOLID
  5
DB
100
AcDbEntity
  8
kóty
  6
ByBlock
 62
    0
370
   -2
100
AcDbTrace
 10
167.218081246067
 20
-63.86465608327939
 30
0
 11
167.218081246067
 21
-63.86465608327939
 31
0
 12
167.218081246067
 22
-63.86465608327939
 32
0
 13
167.218081246067
 23
-63.86465608327939
 33
0
  0
MTEXT
  5
DC
100
AcDbEntity
  8
kóty
  6
CONTINUOUS
 62
    0
370
   -2
100
AcDbMText
 10
165.343081246067
 20
-54.25
 30
0
 40
6.25
 41
6.25
 71
    5
 72
    1
  1
19
  7
STANDARD
210
0
220
0
230
1
 50
90
 73
    2
 44
1
  0
LINE
  5
DD
100
AcDbEntity
  8
kóty
  6
ByBlock
 62
    0
370
   -2
100
AcDbLine
 10
163.808432649667
 20
-44.63534391672061
 11
170.343081246067
 21
-44.63534391672061
  0
LINE
  5
DE
100
AcDbEntity
  8
kóty
  6
ByBlock
 62
    0
370
   -2
100
AcDbLine
 10
163.808432649667
 20
-63.86465608327939
 11
170.343081246067
 21
-63.86465608327939
  0
ENDBLK
  5
7E
330
7C
100
AcDbEntity
  8
0
100
AcDbBlockEnd
  0
ENDSEC
  0
SECTION
  2
ENTITIES
  0
LWPOLYLINE
  5
DF
100
AcDbEntity
  8
konstrukční
  6
ByLayer
 62
  256
370
   -1
100
AcDbPolyline
 90
    4
 70
    1
 43
0
 10
0
 20
0
 10
167
 20
0
 10
167
 20
33
 10
0
 20
33
  0
LINE
  5
E0
100
AcDbEntity
  8
konstrukční
  6
ByLayer
 62
  256
370
   -1
100
AcDbLine
 10
167
 20
16.5
 11
667
 21
16.5
  0
LWPOLYLINE
  5
E1
100
AcDbEntity
  8
konstrukční
  6
ByLayer
 62
  256
370
   -1
100
AcDbPolyline
 90
    4
 70
    1
 43
0
 10
167
 20
4
 10
173
 20
4
 10
173
 20
29
 10
167
 20
29
  0
LWPOLYLINE
  5
E2
100
AcDbEntity
  8
konstrukční
  6
ByLayer
 62
  256
370
   -1
100
AcDbPolyline
 90
    4
 70
    1
 43
0
 10
0
 20
-71.25
 10
153
 20
-71.25
 10
153
 20
-37.25
 10
0
 20
-37.25
  0
LINE
  5
E3
100
AcDbEntity
  8
konstrukční
  6
ByLayer
 62
  256
370
   -1
100
AcDbLine
 10
153
 20
-54.25
 11
653
 21
-54.25
  0
LWPOLYLINE
  5
E4
100
AcDbEntity
  8
konstrukční
  6
ByLayer
 62
  256
370
   -1
100
AcDbPolyline
 90
    4
 70
    1
 43
0
 10
153
 20
-65.25
 10
162
 20
-65.25
 10
162
 20
-43.25
 10
153
 20
-43.25
  0
LINE
  5
E5
100
AcDbEntity
  8
konstrukční
  6
ByLayer
 62
  256
370
   -1
100
AcDbLine
 10
167
 20
5
 11
667
 21
5
  0
LINE
  5
E6
100
AcDbEntity
  8
konstrukční
  6
ByLayer
 62
  256
370
   -1
100
AcDbLine
 10
167
 20
28
 11
667
 21
28
  0
LINE
  5
E7
100
AcDbEntity
  8
konstrukční
  6
ByLayer
 62
  256
370
   -1
100
AcDbLine
 10
153
 20
-66.75
 11
653
 21
-66.75
  0
LINE
  5
E8
100
AcDbEntity
  8
0
  6
ByLayer
 62
  256
370
   -1
100
AcDbLine
 10
173
 20
28
 11
167
 21
29
  0
LINE
  5
E9
100
AcDbEntity
  8
0
  6
ByLayer
 62
  256
370
   -1
100
AcDbLine
 10
173
 20
5
 11
167
 21
4
  0
LINE
  5
EA
100
AcDbEntity
  8
0
  6
ByLayer
 62
  256
370
   -1
100
AcDbLine
 10
173
 20
28
 11
173
 21
5
  0
LINE
  5
EB
100
AcDbEntity
  8
0
  6
ByLayer
 62
  256
370
   -1
100
AcDbLine
 10
167
 20
33
 11
167
 21
0
  0
ARC
  5
EC
100
AcDbEntity
  8
0
  6
ByLayer
 62
  256
370
   -1
100
AcDbCircle
 10
31.27234793748529
 20
32.99893768063687
 40
5.645816945320913
100
AcDbArc
 50
228.1602782229742
 51
281.6152697043974
  0
ARC
  5
ED
100
AcDbEntity
  8
0
  6
ByLayer
 62
  256
370
   -1
100
AcDbCircle
 10
87.01518765965926
 20
-238.1918397973382
 40
271.2146207654516
100
AcDbArc
 50
79.23773682066656
 51
101.6152780338901
  0
ARC
  5
EE
100
AcDbEntity
  8
0
  6
ByLayer
 62
  256
370
   -1
100
AcDbCircle
 10
166.9999976499334
 20
-48.06956496266166
 40
81.06956496266169
100
AcDbArc
 50
89.99999833909433
 51
109.3044919201534
  0
ARC
  5
EF
100
AcDbEntity
  8
0
  6
ByLayer
 62
  256
370
   -1
100
AcDbCircle
 10
138.5767734130027
 20
33.07402565102053
 40
4.908118035333151
100
AcDbArc
 50
259.2377713989945
 51
289.3045031358533
  0
ARC
  5
F0
100
AcDbEntity
  8
0
  6
ByLayer
 62
  256
370
   -1
100
AcDbCircle
 10
16.50000000000002
 20
16.50000000000001
 40
16.50000000000002
100
AcDbArc
 50
48.16027822297412
 51
180
  0
ARC
  5
F1
100
AcDbEntity
  8
0
  6
ByLayer
 62
  256
370
   -1
100
AcDbCircle
 10
31.27234793748529
 20
0.00106231936312895
 40
5.645816945320913
100
AcDbArc
 50
78.38473029560252
 51
131.8397217770258
  0
ARC
  5
F2
100
AcDbEntity
  8
0
  6
ByLayer
 62
  256
370
   -1
100
AcDbCircle
 10
87.01518765965926
 20
271.1918397973382
 40
271.2146207654516
100
AcDbArc
 50
258.3847219661099
 51
280.7622631793334
  0
ARC
  5
F3
100
AcDbEntity
  8
0
  6
ByLayer
 62
  256
370
   -1
100
AcDbCircle
 10
166.9999976499334
 20
81.06956496266166
 40
81.06956496266169
100
AcDbArc
 50
250.6955080798466
 51
270.0000016609056
  0
ARC
  5
F4
100
AcDbEntity
  8
0
  6
ByLayer
 62
  256
370
   -1
100
AcDbCircle
 10
138.5767734130027
 20
-0.07402565102053416
 40
4.908118035333151
100
AcDbArc
 50
70.69549686414672
 51
100.7622286010054
  0
ARC
  5
F5
100
AcDbEntity
  8
0
  6
ByLayer
 62
  256
370
   -1
100
AcDbCircle
 10
16.50000000000002
 20
16.49999999999999
 40
16.50000000000002
100
AcDbArc
 50
180
 51
311.8397217770259
  0
LINE
  5
F6
100
AcDbEntity
  8
0
  6
ByLayer
 62
  256
370
   -1
100
AcDbLine
 10
153
 20
-37.25
 11
153
 21
-71.25
  0
LINE
  5
F7
100
AcDbEntity
  8
0
  6
ByLayer
 62
  256
370
   -1
100
AcDbLine
 10
153
 20
-43.25
 11
162.245932649667
 21
-44.63534391672061
  0
LINE
  5
F8
100
AcDbEntity
  8
0
  6
ByLayer
 62
  256
370
   -1
100
AcDbLine
 10
153
 20
-65.25
 11
162.245932649667
 21
-63.86465608327939
  0
LINE
  5
F9
100
AcDbEntity
  8
0
  6
ByLayer
 62
  256
370
   -1
100
AcDbLine
 10
162
 20
-44.59849514082655
 11
162
 21
-63.90150485917345
  0
DIMENSION
  5
FA
100
AcDbEntity
  8
kóty
  6
ByLayer
 62
  256
370
   -1
100
AcDbDimension
  2
*D1
 10
-5.207025857293559
 20
2.658344082030604e-15
 30
0
 11
-7.082025857293558
 21
16.5
 31
0
 70
   32
 71
    5
 72
    0
  3
Standard
 53
0
210
0
220
0
230
1
100
AcDbAlignedDimension
 13
16.50000092911317
 23
33
 33
0
 14
16.50000088610255
 24
0
 34
0
 50
90
100
AcDbRotatedDimension
  0
DIMENSION
  5
FB
100
AcDbEntity
  8
kóty
  6
ByLayer
 62
  256
370
   -1
100
AcDbDimension
  2
*D2
 10
138.6425263853137
 20
4.833773045795849
 30
0
 11
136.7675263853137
 21
16.49679980501096
 31
0
 70
   32
 71
    5
 72
    0
  3
Standard
 53
0
210
0
220
0
230
1
100
AcDbAlignedDimension
 13
138.3450634286494
 23
28.15982656422607
 33
0
 14
138.3202748489274
 24
4.833773045795849
 34
0
 50
90
100
AcDbRotatedDimension
  0
DIMENSION
  5
FC
100
AcDbEntity
  8
kóty
  6
ByLayer
 62
  256
370
   -1
100
AcDbDimension
  2
*D3
 10
178.2694729255868
 20
4.999999999999999
 30
0
 11
176.3944729255868
 21
16.5
 31
0
 70
   32
 71
    5
 72
    0
  3
Standard
 53
0
210
0
220
0
230
1
100
AcDbAlignedDimension
 13
173
 23
28
 33
0
 14
173
 24
5
 34
0
 50
90
100
AcDbRotatedDimension
  0
DIMENSION
  5
FD
100
AcDbEntity
  8
kóty
  6
ByLayer
 62
  256
370
   -1
100
AcDbDimension
  2
*D4
 10
184.1898613253295
 20
3.999999999999998
 30
0
 11
182.3148613253295
 21
16.5
 31
0
 70
   32
 71
    5
 72
    0
  3
Standard
 53
0
210
0
220
0
230
1
100
AcDbAlignedDimension
 13
167
 23
29
 33
0
 14
167
 24
4
 34
0
 50
90
100
AcDbRotatedDimension
  0
DIMENSION
  5
FE
100
AcDbEntity
  8
kóty
  6
ByLayer
 62
  256
370
   -1
100
AcDbDimension
  2
*D5
 10
167.218081246067
 20
-63.86465608327939
 30
0
 11
165.343081246067
 21
-54.25
 31
0
 70
   32
 71
    5
 72
    0
  3
Standard
 53
0
210
0
220
0
230
1
100
AcDbAlignedDimension
 13
162.245932649667
 23
-44.63534391672061
 33
0
 14
162.245932649667
 24
-63.86465608327939
 34
0
 50
90
100
AcDbRotatedDimension
  0
DIMENSION
  5
FF
100
AcDbEntity
  8
kóty
  6
ByLayer
 62
  256
370
   -1
100
AcDbDimension
  2
*D6
 10
173.9278547657754
 20
-65.25
 30
0
 11
172.0528547657754
 21
-54.25
 31
0
 70
   32
 71
    5
 72
    0
  3
Standard
 53
0
210
0
220
0
230
1
100
AcDbAlignedDimension
 13
153
 23
-43.25
 33
0
 14
153
 24
-65.25
 34
0
 50
90
100
AcDbRotatedDimension
  0
DIMENSION
  5
100
100
AcDbEntity
  8
kóty
  6
ByLayer
 62
  256
370
   -1
100
AcDbDimension
  2
*D7
 10
-5.274370445185717
 20
-71.25
 30
0
 11
-7.149370445185716
 21
-54.25
 31
0
 70
   32
 71
    5
 72
    0
  3
Standard
 53
0
210
0
220
0
230
1
100
AcDbAlignedDimension
 13
17.0000007879253
 23
-37.25
 33
0
 14
16.99999886699996
 24
-71.25
 34
0
 50
90
100
AcDbRotatedDimension
  0
DIMENSION
  5
101
100
AcDbEntity
  8
kóty
  6
ByLayer
 62
  256
370
   -1
100
AcDbDimension
  2
*D8
 10
166.9999962740638
 20
38.4167425049973
 30
0
 11
83.49999813703191
 21
40.2917425049973
 31
0
 70
   32
 71
    5
 72
    0
  3
Standard
 53
0
210
0
220
0
230
1
100
AcDbAlignedDimension
 13
0
 23
16.50000000000001
 33
0
 14
166.9999962740638
 24
33
 34
0
100
AcDbRotatedDimension
  0
DIMENSION
  5
102
100
AcDbEntity
  8
kóty
  6
ByLayer
 62
  256
370
   -1
100
AcDbDimension
  2
*D9
 10
173
 20
38.43060296992026
 30
0
 11
170
 21
40.30560296992026
 31
0
 70
   32
 71
    5
 72
    0
  3
Standard
 53
0
210
0
220
0
230
1
100
AcDbAlignedDimension
 13
167
 23
29
 33
0
 14
173
 24
28
 34
0
100
AcDbRotatedDimension
  0
DIMENSION
  5
103
100
AcDbEntity
  8
kóty
  6
ByLayer
 62
  256
370
   -1
100
AcDbDimension
  2
*D10
 10
153
 20
-31.86234628973554
 30
0
 11
76.5
 21
-29.98734628973554
 31
0
 70
   32
 71
    5
 72
    0
  3
Standard
 53
0
210
0
220
0
230
1
100
AcDbAlignedDimension
 13
0
 23
-54.25000000000001
 33
0
 14
153
 24
-37.24999999999995
 34
0
100
AcDbRotatedDimension
  0
DIMENSION
  5
104
100
AcDbEntity
  8
kóty
  6
ByLayer
 62
  256
370
   -1
100
AcDbDimension
  2
*D11
 10
162
 20
-31.85987463504005
 30
0
 11
157.5
 21
-29.98487463504005
 31
0
 70
   32
 71
    5
 72
    0
  3
Standard
 53
0
210
0
220
0
230
1
100
AcDbAlignedDimension
 13
153
 23
-37.25
 33
0
 14
162
 24
-44.59849514082655
 34
0
100
AcDbRotatedDimension
  0
DIMENSION
  5
105
100
AcDbEntity
  8
kóty
  6
ByLayer
 62
  256
370
   -1
100
AcDbDimension
  2
*D12
 10
138.654847270833
 20
-6.920311898679976
 30
0
 11
152.8274236354165
 21
-5.045311898679976
 31
0
 70
   32
 71
    5
 72
    0
  3
Standard
 53
0
210
0
220
0
230
1
100
AcDbAlignedDimension
 13
167
 23
1.4210854715202e-14
 33
0
 14
138.654847270833
 24
4.833471381223709
 34
0
100
AcDbRotatedDimension
  0
ARC
  5
106
100
AcDbEntity
  8
0
  6
ByLayer
 62
  256
370
   -1
100
AcDbCircle
 10
31.63865894145101
 20
-37.25427047329975
 40
5.430897390627878
100
AcDbArc
 50
235.8740179248341
 51
282.4431120193061
  0
ARC
  5
107
100
AcDbEntity
  8
0
  6
ByLayer
 62
  256
370
   -1
100
AcDbCircle
 10
16.99999999999994
 20
-54.24999999999993
 40
16.99999999999994
100
AcDbArc
 50
47.13417053012058
 51
180.0000000000002
  0
ARC
  5
108
100
AcDbEntity
  8
0
  6
ByLayer
 62
  256
370
   -1
100
AcDbCircle
 10
152.9999976499334
 20
-118.3195649626617
 40
81.06956496266169
100
AcDbArc
 50
89.99999833909433
 51
108.3601401500645
  0
ARC
  5
109
100
AcDbEntity
  8
0
  6
ByLayer
 62
  256
370
   -1
100
AcDbCircle
 10
81.49552050543717
 20
-263.2054882454881
 40
225.955488245488
100
AcDbArc
 50
78.84513908857909
 51
102.443112019306
  0
LINE
  5
10A
100
AcDbEntity
  8
konstrukční
  6
ByLayer
 62
  256
370
   -1
100
AcDbLine
 10
153
 20
-41.75
 11
125.1636076680044
 21
-41.75
  0
ARC
  5
10B
100
AcDbEntity
  8
0
  6
ByLayer
 62
  256
370
   -1
100
AcDbCircle
 10
126.0671305981875
 20
-37.16793275945916
 40
4.43462637829471
100
AcDbArc
 50
258.8451390885789
 51
287.8548919898756
  0
ARC
  5
10C
100
AcDbEntity
  8
0
  6
ByLayer
 62
  256
370
   -1
100
AcDbCircle
 10
31.63865894145101
 20
-71.24572952670025
 40
5.430897390627878
100
AcDbArc
 50
77.55688798069396
 51
124.1259820751659
  0
ARC
  5
10D
100
AcDbEntity
  8
0
  6
ByLayer
 62
  256
370
   -1
100
AcDbCircle
 10
16.99999999999994
 20
-54.25000000000007
 40
16.99999999999994
100
AcDbArc
 50
179.9999999999998
 51
312.8658294698794
  0
ARC
  5
10E
100
AcDbEntity
  8
0
  6
ByLayer
 62
  256
370
   -1
100
AcDbCircle
 10
152.9999976499334
 20
9.819564962661659
 40
81.06956496266169
100
AcDbArc
 50
251.6398598499355
 51
270.0000016609056
  0
ARC
  5
10F
100
AcDbEntity
  8
0
  6
ByLayer
 62
  256
370
   -1
100
AcDbCircle
 10
81.4955205054372
 20
154.7054882454881
 40
225.955488245488
100
AcDbArc
 50
257.556887980694
 51
281.1548609114209
  0
ARC
  5
110
100
AcDbEntity
  8
0
  6
ByLayer
 62
  256
370
   -1
100
AcDbCircle
 10
126.0671305981875
 20
-71.33206724054084
 40
4.43462637829471
100
AcDbArc
 50
72.14510801012437
 51
101.1548609114211
  0
DIMENSION
  5
111
100
AcDbEntity
  8
kóty
  6
ByLayer
 62
  256
370
   -1
100
AcDbDimension
  2
*D13
 10
125.9903842730285
 20
-66.89954536944379
 30
0
 11
124.1153842730285
 21
-54.32477268472189
 31
0
 70
   32
 71
    5
 72
    0
  3
Standard
 53
0
210
0
220
0
230
1
100
AcDbAlignedDimension
 13
126.1636076680044
 23
-41.75
 33
0
 14
126.203735785913
 24
-66.89954536944379
 34
0
 50
90
100
AcDbRotatedDimension
  0
DIMENSION
  5
112
100
AcDbEntity
  8
kóty
  6
ByLayer
 62
  256
370
   -1
100
AcDbDimension
  2
*D14
 10
153
 20
-76.93758522650207
 30
0
 11
139.4951921365142
 21
-75.06258522650207
 31
0
 70
   32
 71
    5
 72
    0
  3
Standard
 53
0
210
0
220
0
230
1
100
AcDbAlignedDimension
 13
125.9903842730285
 23
-66.75
 33
0
 14
153
 24
-71.25
 34
0
100
AcDbRotatedDimension
  0
DIMENSION
  5
113
100
AcDbEntity
  8
kóty
  6
ByLayer
 62
  256
370
   -1
100
AcDbDimension
  2
*D15
 10
31.22567992201017
 20
-76.93527866513406
 30
0
 11
78.60803209751934
 21
-75.06027866513406
 31
0
 70
   32
 71
    5
 72
    0
  3
Standard
 53
0
210
0
220
0
230
1
100
AcDbAlignedDimension
 13
125.9903842730285
 23
-66.75
 33
0
 14
31.22567992201017
 24
-65.9131868863718
 34
0
100
AcDbRotatedDimension
  0
DIMENSION
  5
114
100
AcDbEntity
  8
kóty
  6
ByLayer
 62
  256
370
   -1
100
AcDbDimension
  2
*D16
 10
140.8446258777151
 20
-6.923585854219315
 30
0
 11
84.71561769651811
 21
-5.048585854219315
 31
0
 70
   32
 71
    5
 72
    0
  3
Standard
 53
0
210
0
220
0
230
1
100
AcDbAlignedDimension
 13
138.6426491519381
 23
4.833650279171507
 33
0
 14
30.78858624109815
 24
5.720482887399301
 34
0
100
AcDbRotatedDimension
  0
ENDSEC
  0
SECTION
  2
OBJECTS
  0
DICTIONARY
  5
C
330
0
100
AcDbDictionary
281
    1
  3
ACAD_GROUP
350
D
  0
DICTIONARY
  5
D
330
C
100
AcDbDictionary
281
    1
  0
ENDSEC
  0
EOF
