999
dxfrw 0.6.3
  0
SECTION
  2
HEADER
  9
$ACADVER
  1
AC1021
  9
$DWGCODEPAGE
  3
ANSI_1250
  9
$INSBASE
 10
0
 20
0
 30
0
  9
$EXTMIN
 10
-15.28500000000005
 20
-5
 30
0
  9
$EXTMAX
 10
110.211397841608
 20
86.48500000000027
 30
0
  9
$LIMMIN
 10
0
 20
0
  9
$LIMMAX
 10
420
 20
297
  9
$ORTHOMODE
 70
    0
  9
$REGENMODE
 70
    1
  9
$FILLMODE
 70
    1
  9
$QTEXTMODE
 70
    0
  9
$MIRRTEXT
 70
    0
  9
$LTSCALE
 40
1
  9
$ATTMODE
 70
    0
  9
$TEXTSIZE
 40
2.5
  9
$TRACEWID
 40
15.68
  9
$TEXTSTYLE
  7
STANDARD
  9
$CLAYER
  8
kóty
  9
$CELTYPE
  6
BYLAYER
  9
$CECOLOR
 62
  256
  9
$CELTSCALE
 40
1
  9
$DISPSILH
 70
    0
  9
$DIMSCALE
 40
1
  9
$DIMASZ
 40
2.5
  9
$DIMEXO
 40
0.625
  9
$DIMDLI
 40
3.75
  9
$DIMRND
 40
0
  9
$DIMDLE
 40
0
  9
$DIMEXE
 40
1.25
  9
$DIMTP
 40
0
  9
$DIMTM
 40
0
  9
$DIMTXT
 40
2.5
  9
$DIMCEN
 40
2.5
  9
$DIMTSZ
 40
0
  9
$DIMTOL
 70
    0
  9
$DIMLIM
 70
    0
  9
$DIMTIH
 70
    0
  9
$DIMTOH
 70
    0
  9
$DIMSE1
 70
    0
  9
$DIMSE2
 70
    0
  9
$DIMTAD
 70
    1
  9
$DIMZIN
 70
    8
  9
$DIMBLK
  1

  9
$DIMASO
 70
    1
  9
$DIMSHO
 70
    1
  9
$DIMPOST
  1

  9
$DIMAPOST
  1

  9
$DIMALT
 70
    0
  9
$DIMALTD
 70
    3
  9
$DIMALTF
 40
0.03937
  9
$DIMLFAC
 40
1
  9
$DIMTOFL
 70
    1
  9
$DIMTVP
 40
0
  9
$DIMTIX
 70
    0
  9
$DIMSOXD
 70
    0
  9
$DIMSAH
 70
    0
  9
$DIMBLK1
  1

  9
$DIMBLK2
  1

  9
$DIMSTYLE
  2
Standard
  9
$DIMCLRD
 70
    0
  9
$DIMCLRE
 70
    0
  9
$DIMCLRT
 70
    0
  9
$DIMTFAC
 40
1
  9
$DIMGAP
 40
0.625
  9
$DIMJUST
 70
    0
  9
$DIMSD1
 70
    0
  9
$DIMSD2
 70
    0
  9
$DIMTOLJ
 70
    0
  9
$DIMTZIN
 70
    8
  9
$DIMALTZ
 70
    0
  9
$DIMALTTZ
 70
    0
  9
$DIMUPT
 70
    0
  9
$DIMDEC
 70
    2
  9
$DIMTDEC
 70
    2
  9
$DIMALTU
 70
    2
  9
$DIMALTTD
 70
    3
  9
$DIMTXSTY
  7
STANDARD
  9
$DIMAUNIT
 70
    0
  9
$DIMADEC
 70
    0
  9
$DIMALTRND
 40
0
  9
$DIMAZIN
 70
    0
  9
$DIMDSEP
 70
   44
  9
$DIMATFIT
 70
    3
  9
$DIMFRAC
 70
    0
  9
$DIMLDRBLK
  1
STANDARD
  9
$DIMLUNIT
 70
    2
  9
$DIMLWD
 70
   -2
  9
$DIMLWE
 70
   -2
  9
$DIMTMOVE
 70
    0
  9
$DIMFXL
 40
1
  9
$DIMFXLON
 70
    0
  9
$DIMJOGANG
 40
0.7854
  9
$DIMTFILL
 70
    0
  9
$DIMTFILLCLR
 70
    0
  9
$DIMARCSYM
 70
    0
  9
$DIMLTYPE
  6

  9
$DIMLTEX1
  6

  9
$DIMLTEX2
  6

  9
$LUNITS
 70
    2
  9
$LUPREC
 70
    4
  9
$SKETCHINC
 40
1
  9
$FILLETRAD
 40
0
  9
$AUNITS
 70
    0
  9
$AUPREC
 70
    2
  9
$MENU
  1
.
  9
$ELEVATION
 40
0
  9
$PELEVATION
 40
0
  9
$THICKNESS
 40
0
  9
$LIMCHECK
 70
    0
  9
$CHAMFERA
 40
0
  9
$CHAMFERB
 40
0
  9
$CHAMFERC
 40
0
  9
$CHAMFERD
 40
0
  9
$SKPOLY
 70
    0
  9
$USRTIMER
 70
    1
  9
$ANGBASE
 50
0
  9
$ANGDIR
 70
    0
  9
$PDMODE
 70
   34
  9
$PDSIZE
 40
0
  9
$PLINEWID
 40
0
  9
$SPLFRAME
 70
    0
  9
$SPLINETYPE
 70
    2
  9
$SPLINESEGS
 70
    8
  9
$HANDSEED
  5
20000
  9
$SURFTAB1
 70
    6
  9
$SURFTAB2
 70
    6
  9
$SURFTYPE
 70
    6
  9
$SURFU
 70
    6
  9
$SURFV
 70
    6
  9
$UCSBASE
  2

  9
$UCSNAME
  2

  9
$UCSORG
 10
0
 20
0
 30
0
  9
$UCSXDIR
 10
1
 20
0
 30
0
  9
$UCSYDIR
 10
0
 20
1
 30
0
  9
$UCSORTHOREF
  2

  9
$UCSORTHOVIEW
 70
    0
  9
$UCSORGTOP
 10
0
 20
0
 30
0
  9
$UCSORGBOTTOM
 10
0
 20
0
 30
0
  9
$UCSORGLEFT
 10
0
 20
0
 30
0
  9
$UCSORGRIGHT
 10
0
 20
0
 30
0
  9
$UCSORGFRONT
 10
0
 20
0
 30
0
  9
$UCSORGBACK
 10
0
 20
0
 30
0
  9
$PUCSBASE
  2

  9
$PUCSNAME
  2

  9
$PUCSORG
 10
0
 20
0
 30
0
  9
$PUCSXDIR
 10
1
 20
0
 30
0
  9
$PUCSYDIR
 10
0
 20
1
 30
0
  9
$PUCSORTHOREF
  2

  9
$PUCSORTHOVIEW
 70
    0
  9
$PUCSORGTOP
 10
0
 20
0
 30
0
  9
$PUCSORGBOTTOM
 10
0
 20
0
 30
0
  9
$PUCSORGLEFT
 10
0
 20
0
 30
0
  9
$PUCSORGRIGHT
 10
0
 20
0
 30
0
  9
$PUCSORGFRONT
 10
0
 20
0
 30
0
  9
$PUCSORGBACK
 10
0
 20
0
 30
0
  9
$USERI1
 70
    0
  9
$USERI2
 70
    0
  9
$USERI3
 70
    0
  9
$USERI4
 70
    0
  9
$USERI5
 70
    0
  9
$USERR1
 40
0
  9
$USERR2
 40
0
  9
$USERR3
 40
0
  9
$USERR4
 40
0
  9
$USERR5
 40
0
  9
$WORLDVIEW
 70
    1
  9
$SHADEDGE
 70
    3
  9
$SHADEDIF
 70
   70
  9
$TILEMODE
 70
    1
  9
$MAXACTVP
 70
   64
  9
$PINSBASE
 10
0
 20
0
 30
0
  9
$PLIMCHECK
 70
    0
  9
$PEXTMIN
 10
0
 20
0
 30
0
  9
$PEXTMAX
 10
0
 20
0
 30
0
  9
$SNAPSTYLE
 70
    0
  9
$PLIMMIN
 10
0
 20
0
  9
$PLIMMAX
 10
210
 20
297
  9
$UNITMODE
 70
    0
  9
$VISRETAIN
 70
    1
  9
$PLINEGEN
 70
    0
  9
$PSLTSCALE
 70
    1
  9
$TREEDEPTH
 70
 3020
  9
$CMLSTYLE
  2
Standard
  9
$CMLJUST
 70
    0
  9
$CMLSCALE
 40
20
  9
$PROXYGRAPHICS
 70
    1
  9
$MEASUREMENT
 70
    1
  9
$CELWEIGHT
370
   -1
  9
$ENDCAPS
280
    0
  9
$JOINSTYLE
280
    0
  9
$LWDISPLAY
290
    0
  9
$INSUNITS
 70
    0
  9
$HYPERLINKBASE
  1

  9
$STYLESHEET
  1

  9
$XEDIT
290
    1
  9
$CEPSNTYPE
380
    0
  9
$PSTYLEMODE
290
    1
  9
$EXTNAMES
290
    1
  9
$PSVPSCALE
 40
1
  9
$OLESTARTUP
290
    0
  9
$SORTENTS
280
  127
  9
$INDEXCTL
280
    0
  9
$HIDETEXT
280
    1
  9
$XCLIPFRAME
290
    0
  9
$HALOGAP
280
    0
  9
$OBSCOLOR
 70
  257
  9
$OBSLTYPE
280
    0
  9
$INTERSECTIONDISPLAY
280
    0
  9
$INTERSECTIONCOLOR
 70
  257
  9
$DIMASSOC
280
    1
  9
$PROJECTNAME
  1

  9
$CAMERADISPLAY
290
    0
  9
$LENSLENGTH
 40
50
  9
$CAMERAHEIGHT
 40
0
  9
$STEPSPERSEC
 40
2
  9
$STEPSIZE
 40
50
  9
$3DDWFPREC
 40
2
  9
$PSOLWIDTH
 40
5
  9
$PSOLHEIGHT
 40
80
  9
$LOFTANG1
 40
1.570796326794897
  9
$LOFTANG2
 40
1.570796326794897
  9
$LOFTMAG1
 40
0
  9
$LOFTMAG2
 40
0
  9
$LOFTPARAM
 70
    7
  9
$LOFTNORMALS
280
    1
  9
$LATITUDE
 40
1
  9
$LONGITUDE
 40
1
  9
$NORTHDIRECTION
 40
0
  9
$TIMEZONE
 70
-8000
  9
$LIGHTGLYPHDISPLAY
280
    1
  9
$TILEMODELIGHTSYNCH
280
    1
  9
$SOLIDHIST
280
    1
  9
$SHOWHIST
280
    1
  9
$DWFFRAME
280
    2
  9
$DGNFRAME
280
    0
  9
$REALWORLDSCALE
290
    1
  9
$INTERFERECOLOR
 62
    1
  9
$CSHADOW
280
    0
  9
$SHADOWPLANELOCATION
 40
0
  0
ENDSEC
  0
SECTION
  2
CLASSES
  0
ENDSEC
  0
SECTION
  2
TABLES
  0
TABLE
  2
VPORT
  5
8
330
0
100
AcDbSymbolTable
 70
    1
  0
VPORT
  5
31
330
2
100
AcDbSymbolTableRecord
100
AcDbViewportTableRecord
  2
*ACTIVE
 70
    0
 10
0
 20
0
 11
1
 21
1
 12
93.23400000000034
 22
57.85056000000021
 13
0
 23
0
 14
10
 24
10
 15
10
 25
10
 16
0
 26
0
 36
1
 17
0
 27
0
 37
0
 40
152.2670400000005
 41
1.685782556750299
 42
50
 43
0
 44
0
 50
0
 51
0
 71
    0
 72
  100
 73
    1
 74
    3
 75
    0
 76
    1
 77
    0
 78
    0
281
    0
 65
    1
110
0
120
0
130
0
111
1
121
0
131
0
112
0
122
1
132
0
 79
    0
146
0
348
10020
 60
    7
 61
    5
292
1
282
    1
141
0
142
0
 63
  250
421
3358443
  0
ENDTAB
  0
TABLE
  2
LTYPE
  5
5
330
0
100
AcDbSymbolTable
 70
    4
  0
LTYPE
  5
14
330
5
100
AcDbSymbolTableRecord
100
AcDbLinetypeTableRecord
  2
ByBlock
 70
    0
  3

 72
   65
 73
    0
 40
0
  0
LTYPE
  5
15
330
5
100
AcDbSymbolTableRecord
100
AcDbLinetypeTableRecord
  2
ByLayer
 70
    0
  3

 72
   65
 73
    0
 40
0
  0
LTYPE
  5
16
330
5
100
AcDbSymbolTableRecord
100
AcDbLinetypeTableRecord
  2
Continuous
 70
    0
  3
Solid line
 72
   65
 73
    0
 40
0
  0
LTYPE
  5
32
330
5
100
AcDbSymbolTableRecord
100
AcDbLinetypeTableRecord
  2
DOT
 70
    0
  3
Dot . . . . . . . . . . . . . . . . . . . . . .
 72
   65
 73
    2
 40
6.35
 49
0
 74
    0
 49
-6.35
 74
    0
  0
LTYPE
  5
33
330
5
100
AcDbSymbolTableRecord
100
AcDbLinetypeTableRecord
  2
DOTTINY
 70
    0
  3
Dot (.15x) .....................................
 72
   65
 73
    2
 40
0.9525
 49
0
 74
    0
 49
-0.9525
 74
    0
  0
LTYPE
  5
34
330
5
100
AcDbSymbolTableRecord
100
AcDbLinetypeTableRecord
  2
DOT2
 70
    0
  3
Dot (.5x) .....................................
 72
   65
 73
    2
 40
3.175
 49
0
 74
    0
 49
-3.175
 74
    0
  0
LTYPE
  5
35
330
5
100
AcDbSymbolTableRecord
100
AcDbLinetypeTableRecord
  2
DOTX2
 70
    0
  3
Dot (2x) .  .  .  .  .  .  .  .  .  .  .  .  .
 72
   65
 73
    2
 40
12.7
 49
0
 74
    0
 49
-12.7
 74
    0
  0
LTYPE
  5
36
330
5
100
AcDbSymbolTableRecord
100
AcDbLinetypeTableRecord
  2
DASHED
 70
    0
  3
Dashed _ _ _ _ _ _ _ _ _ _ _ _ _ _ _ _ _
 72
   65
 73
    2
 40
19.05
 49
12.7
 74
    0
 49
-6.35
 74
    0
  0
LTYPE
  5
37
330
5
100
AcDbSymbolTableRecord
100
AcDbLinetypeTableRecord
  2
DASHEDTINY
 70
    0
  3
Dashed (.15x) _ _ _ _ _ _ _ _ _ _ _ _ _ _ _ _ _
 72
   65
 73
    2
 40
2.8575
 49
1.905
 74
    0
 49
-0.9525
 74
    0
  0
LTYPE
  5
38
330
5
100
AcDbSymbolTableRecord
100
AcDbLinetypeTableRecord
  2
DASHED2
 70
    0
  3
Dashed (.5x) _ _ _ _ _ _ _ _ _ _ _ _ _ _ _ _ _
 72
   65
 73
    2
 40
9.524999999999999
 49
6.35
 74
    0
 49
-3.175
 74
    0
  0
LTYPE
  5
39
330
5
100
AcDbSymbolTableRecord
100
AcDbLinetypeTableRecord
  2
DASHEDX2
 70
    0
  3
Dashed (2x) ____  ____  ____  ____  ____  ___
 72
   65
 73
    2
 40
38.09999999999999
 49
25.4
 74
    0
 49
-12.7
 74
    0
  0
LTYPE
  5
3A
330
5
100
AcDbSymbolTableRecord
100
AcDbLinetypeTableRecord
  2
DASHDOT
 70
    0
  3
Dash dot __ . __ . __ . __ . __ . __ . __ . __
 72
   65
 73
    4
 40
25.4
 49
12.7
 74
    0
 49
-6.35
 74
    0
 49
0
 74
    0
 49
-6.35
 74
    0
  0
LTYPE
  5
3B
330
5
100
AcDbSymbolTableRecord
100
AcDbLinetypeTableRecord
  2
DASHDOTTINY
 70
    0
  3
Dash dot (.15x) _._._._._._._._._._._._._._._.
 72
   65
 73
    4
 40
3.81
 49
1.905
 74
    0
 49
-0.9525
 74
    0
 49
0
 74
    0
 49
-0.9525
 74
    0
  0
LTYPE
  5
3C
330
5
100
AcDbSymbolTableRecord
100
AcDbLinetypeTableRecord
  2
DASHDOT2
 70
    0
  3
Dash dot (.5x) _._._._._._._._._._._._._._._.
 72
   65
 73
    4
 40
12.7
 49
6.35
 74
    0
 49
-3.175
 74
    0
 49
0
 74
    0
 49
-3.175
 74
    0
  0
LTYPE
  5
3D
330
5
100
AcDbSymbolTableRecord
100
AcDbLinetypeTableRecord
  2
DASHDOTX2
 70
    0
  3
Dash dot (2x) ____  .  ____  .  ____  .  ___
 72
   65
 73
    4
 40
50.8
 49
25.4
 74
    0
 49
-12.7
 74
    0
 49
0
 74
    0
 49
-12.7
 74
    0
  0
LTYPE
  5
3E
330
5
100
AcDbSymbolTableRecord
100
AcDbLinetypeTableRecord
  2
DIVIDE
 70
    0
  3
Divide ____ . . ____ . . ____ . . ____ . . ____
 72
   65
 73
    6
 40
31.75
 49
12.7
 74
    0
 49
-6.35
 74
    0
 49
0
 74
    0
 49
-6.35
 74
    0
 49
0
 74
    0
 49
-6.35
 74
    0
  0
LTYPE
  5
3F
330
5
100
AcDbSymbolTableRecord
100
AcDbLinetypeTableRecord
  2
DIVIDETINY
 70
    0
  3
Divide (.15x) __..__..__..__..__..__..__..__.._
 72
   65
 73
    6
 40
4.7625
 49
1.905
 74
    0
 49
-0.9525
 74
    0
 49
0
 74
    0
 49
-0.9525
 74
    0
 49
0
 74
    0
 49
-0.9525
 74
    0
  0
LTYPE
  5
40
330
5
100
AcDbSymbolTableRecord
100
AcDbLinetypeTableRecord
  2
DIVIDE2
 70
    0
  3
Divide (.5x) __..__..__..__..__..__..__..__.._
 72
   65
 73
    6
 40
15.875
 49
6.35
 74
    0
 49
-3.175
 74
    0
 49
0
 74
    0
 49
-3.175
 74
    0
 49
0
 74
    0
 49
-3.175
 74
    0
  0
LTYPE
  5
41
330
5
100
AcDbSymbolTableRecord
100
AcDbLinetypeTableRecord
  2
DIVIDEX2
 70
    0
  3
Divide (2x) ________  .  .  ________  .  .  _
 72
   65
 73
    6
 40
63.5
 49
25.4
 74
    0
 49
-12.7
 74
    0
 49
0
 74
    0
 49
-12.7
 74
    0
 49
0
 74
    0
 49
-12.7
 74
    0
  0
LTYPE
  5
42
330
5
100
AcDbSymbolTableRecord
100
AcDbLinetypeTableRecord
  2
BORDER
 70
    0
  3
Border __ __ . __ __ . __ __ . __ __ . __ __ .
 72
   65
 73
    6
 40
44.45
 49
12.7
 74
    0
 49
-6.35
 74
    0
 49
12.7
 74
    0
 49
-6.35
 74
    0
 49
0
 74
    0
 49
-6.35
 74
    0
  0
LTYPE
  5
43
330
5
100
AcDbSymbolTableRecord
100
AcDbLinetypeTableRecord
  2
BORDERTINY
 70
    0
  3
Border (.15x) __.__.__.__.__.__.__.__.__.__.__.
 72
   65
 73
    6
 40
6.6675
 49
1.905
 74
    0
 49
-0.9525
 74
    0
 49
1.905
 74
    0
 49
-0.9525
 74
    0
 49
0
 74
    0
 49
-0.9525
 74
    0
  0
LTYPE
  5
44
330
5
100
AcDbSymbolTableRecord
100
AcDbLinetypeTableRecord
  2
BORDER2
 70
    0
  3
Border (.5x) __.__.__.__.__.__.__.__.__.__.__.
 72
   65
 73
    6
 40
22.225
 49
6.35
 74
    0
 49
-3.175
 74
    0
 49
6.35
 74
    0
 49
-3.175
 74
    0
 49
0
 74
    0
 49
-3.175
 74
    0
  0
LTYPE
  5
45
330
5
100
AcDbSymbolTableRecord
100
AcDbLinetypeTableRecord
  2
BORDERX2
 70
    0
  3
Border (2x) ____  ____  .  ____  ____  .  ___
 72
   65
 73
    6
 40
88.89999999999999
 49
25.4
 74
    0
 49
-12.7
 74
    0
 49
25.4
 74
    0
 49
-12.7
 74
    0
 49
0
 74
    0
 49
-12.7
 74
    0
  0
LTYPE
  5
46
330
5
100
AcDbSymbolTableRecord
100
AcDbLinetypeTableRecord
  2
CENTER
 70
    0
  3
Center ____ _ ____ _ ____ _ ____ _ ____ _ ____
 72
   65
 73
    4
 40
50.8
 49
31.75
 74
    0
 49
-6.35
 74
    0
 49
6.35
 74
    0
 49
-6.35
 74
    0
  0
LTYPE
  5
47
330
5
100
AcDbSymbolTableRecord
100
AcDbLinetypeTableRecord
  2
CENTERTINY
 70
    0
  3
Center (.15x) ___ _ ___ _ ___ _ ___ _ ___ _ ___
 72
   65
 73
    4
 40
7.62
 49
4.7625
 74
    0
 49
-0.9525
 74
    0
 49
0.9525
 74
    0
 49
-0.9525
 74
    0
  0
LTYPE
  5
48
330
5
100
AcDbSymbolTableRecord
100
AcDbLinetypeTableRecord
  2
CENTER2
 70
    0
  3
Center (.5x) ___ _ ___ _ ___ _ ___ _ ___ _ ___
 72
   65
 73
    4
 40
28.575
 49
19.05
 74
    0
 49
-3.175
 74
    0
 49
3.175
 74
    0
 49
-3.175
 74
    0
  0
LTYPE
  5
49
330
5
100
AcDbSymbolTableRecord
100
AcDbLinetypeTableRecord
  2
CENTERX2
 70
    0
  3
Center (2x) ________  __  ________  __  _____
 72
   65
 73
    4
 40
101.6
 49
63.5
 74
    0
 49
-12.7
 74
    0
 49
12.7
 74
    0
 49
-12.7
 74
    0
  0
ENDTAB
  0
TABLE
  2
LAYER
  5
2
330
0
100
AcDbSymbolTable
 70
    1
  0
LAYER
  5
10
330
2
100
AcDbSymbolTableRecord
100
AcDbLayerTableRecord
  2
0
 70
    0
 62
    7
  6
CONTINUOUS
370
    0
390
F
  0
LAYER
  5
4A
330
2
100
AcDbSymbolTableRecord
100
AcDbLayerTableRecord
  2
kóty
 70
    0
 62
    2
  6
CONTINUOUS
370
    0
390
F
  0
ENDTAB
  0
TABLE
  2
STYLE
  5
3
330
0
100
AcDbSymbolTable
 70
    3
  0
STYLE
  5
4B
330
2
100
AcDbSymbolTableRecord
100
AcDbTextStyleTableRecord
  2
Standard
 70
    0
 40
0
 41
1
 50
0
 71
    0
 42
1
  3
txt
  4

  0
ENDTAB
  0
TABLE
  2
VIEW
  5
6
330
0
100
AcDbSymbolTable
 70
    0
  0
ENDTAB
  0
TABLE
  2
UCS
  5
7
330
0
100
AcDbSymbolTable
 70
    0
  0
ENDTAB
  0
TABLE
  2
APPID
  5
9
330
0
100
AcDbSymbolTable
 70
    1
  0
APPID
  5
12
330
9
100
AcDbSymbolTableRecord
100
AcDbRegAppTableRecord
  2
ACAD
 70
    0
  0
APPID
  5
4C
330
9
100
AcDbSymbolTableRecord
100
AcDbRegAppTableRecord
  2
LibreCad
 70
    0
  0
ENDTAB
  0
TABLE
  2
DIMSTYLE
  5
A
330
0
100
AcDbSymbolTable
 70
    1
100
AcDbDimStyleTable
 71
    1
  0
DIMSTYLE
105
4D
330
A
100
AcDbSymbolTableRecord
100
AcDbDimStyleTableRecord
  2
Standard
 70
    0
 40
1
 41
2.5
 42
0.625
 43
0.38
 44
1.25
 45
0
 46
0
 47
0
 48
0
 49
1
140
2.5
141
0.09
142
0
143
25.4
144
1
145
0
146
1
147
0.625
148
0
 71
    0
 72
    0
 73
    0
 74
    1
 75
    0
 76
    0
 77
    0
 78
    1
 79
    0
170
    0
171
    2
172
    0
173
    0
174
    0
175
    0
176
    0
177
    0
178
    0
179
    0
271
    2
272
    4
273
    2
274
    2
275
    0
276
    0
277
    2
278
    0
279
    0
280
    0
281
    0
282
    0
283
    1
284
    0
285
    0
286
    0
288
    0
289
    3
340
standard
341

371
   -2
372
   -2
  0
ENDTAB
  0
TABLE
  2
BLOCK_RECORD
  5
1
330
0
100
AcDbSymbolTable
 70
    2
  0
BLOCK_RECORD
  5
1F
330
1
100
AcDbSymbolTableRecord
100
AcDbBlockTableRecord
  2
*Model_Space
 70
    0
280
    1
281
    0
  0
BLOCK_RECORD
  5
1E
330
1
100
AcDbSymbolTableRecord
100
AcDbBlockTableRecord
  2
*Paper_Space
 70
    0
280
    1
281
    0
  0
BLOCK_RECORD
  5
4E
330
1
100
AcDbSymbolTableRecord
100
AcDbBlockTableRecord
  2
*D8
 70
    0
280
    1
281
    0
  0
BLOCK_RECORD
  5
51
330
1
100
AcDbSymbolTableRecord
100
AcDbBlockTableRecord
  2
*D5
 70
    0
280
    1
281
    0
  0
BLOCK_RECORD
  5
54
330
1
100
AcDbSymbolTableRecord
100
AcDbBlockTableRecord
  2
*D11
 70
    0
280
    1
281
    0
  0
BLOCK_RECORD
  5
57
330
1
100
AcDbSymbolTableRecord
100
AcDbBlockTableRecord
  2
*D4
 70
    0
280
    1
281
    0
  0
BLOCK_RECORD
  5
5A
330
1
100
AcDbSymbolTableRecord
100
AcDbBlockTableRecord
  2
*D6
 70
    0
280
    1
281
    0
  0
BLOCK_RECORD
  5
5D
330
1
100
AcDbSymbolTableRecord
100
AcDbBlockTableRecord
  2
*D10
 70
    0
280
    1
281
    0
  0
BLOCK_RECORD
  5
60
330
1
100
AcDbSymbolTableRecord
100
AcDbBlockTableRecord
  2
*D7
 70
    0
280
    1
281
    0
  0
BLOCK_RECORD
  5
63
330
1
100
AcDbSymbolTableRecord
100
AcDbBlockTableRecord
  2
*D1
 70
    0
280
    1
281
    0
  0
BLOCK_RECORD
  5
66
330
1
100
AcDbSymbolTableRecord
100
AcDbBlockTableRecord
  2
*D16
 70
    0
280
    1
281
    0
  0
BLOCK_RECORD
  5
69
330
1
100
AcDbSymbolTableRecord
100
AcDbBlockTableRecord
  2
*D18
 70
    0
280
    1
281
    0
  0
BLOCK_RECORD
  5
6C
330
1
100
AcDbSymbolTableRecord
100
AcDbBlockTableRecord
  2
*D3
 70
    0
280
    1
281
    0
  0
BLOCK_RECORD
  5
6F
330
1
100
AcDbSymbolTableRecord
100
AcDbBlockTableRecord
  2
*D17
 70
    0
280
    1
281
    0
  0
BLOCK_RECORD
  5
72
330
1
100
AcDbSymbolTableRecord
100
AcDbBlockTableRecord
  2
*D14
 70
    0
280
    1
281
    0
  0
BLOCK_RECORD
  5
75
330
1
100
AcDbSymbolTableRecord
100
AcDbBlockTableRecord
  2
*D15
 70
    0
280
    1
281
    0
  0
BLOCK_RECORD
  5
78
330
1
100
AcDbSymbolTableRecord
100
AcDbBlockTableRecord
  2
*D9
 70
    0
280
    1
281
    0
  0
BLOCK_RECORD
  5
7B
330
1
100
AcDbSymbolTableRecord
100
AcDbBlockTableRecord
  2
*D12
 70
    0
280
    1
281
    0
  0
BLOCK_RECORD
  5
7E
330
1
100
AcDbSymbolTableRecord
100
AcDbBlockTableRecord
  2
*D2
 70
    0
280
    1
281
    0
  0
BLOCK_RECORD
  5
81
330
1
100
AcDbSymbolTableRecord
100
AcDbBlockTableRecord
  2
*D13
 70
    0
280
    1
281
    0
  0
ENDTAB
  0
ENDSEC
  0
SECTION
  2
BLOCKS
  0
BLOCK
  5
20
330
1F
100
AcDbEntity
  8
0
100
AcDbBlockBegin
  2
*Model_Space
 70
    0
 10
0
 20
0
 30
0
  3
*Model_Space
  1

  0
ENDBLK
  5
21
330
1F
100
AcDbEntity
  8
0
100
AcDbBlockEnd
  0
BLOCK
  5
1C
330
1B
100
AcDbEntity
  8
0
100
AcDbBlockBegin
  2
*Paper_Space
 70
    0
 10
0
 20
0
 30
0
  3
*Paper_Space
  1

  0
ENDBLK
  5
1D
330
1F
100
AcDbEntity
  8
0
100
AcDbBlockEnd
  0
BLOCK
  5
4F
330
4E
100
AcDbEntity
  8
0
100
AcDbBlockBegin
  2
*D8
 70
    1
 10
0
 20
0
  3
*D8
  1

  0
LINE
  5
84
100
AcDbEntity
  8
kóty
  6
ByBlock
 62
    0
370
   -2
100
AcDbLine
 10
28.5
 20
73.04005789382514
 11
37.5
 21
73.04005789382514
  0
SOLID
  5
85
100
AcDbEntity
  8
kóty
  6
ByBlock
 62
    0
370
   -2
100
AcDbTrace
 10
28.5
 20
73.04005789382514
 30
0
 11
31
 21
73.45634255159797
 31
0
 12
31
 22
72.6237732360523
 32
0
 13
31
 23
72.6237732360523
 33
0
  0
SOLID
  5
86
100
AcDbEntity
  8
kóty
  6
ByBlock
 62
    0
370
   -2
100
AcDbTrace
 10
37.5
 20
73.04005789382514
 30
0
 11
35
 21
72.6237732360523
 31
0
 12
35
 22
73.45634255159797
 32
0
 13
35
 23
73.45634255159797
 33
0
  0
MTEXT
  5
87
100
AcDbEntity
  8
kóty
  6
CONTINUOUS
 62
    0
370
   -2
100
AcDbMText
 10
42.98611111111119
 20
74.91505789382514
 30
0
 40
2.5
 41
9.722222222222378
 71
    5
 72
    1
  1
9.0000
  7
standard
210
0
220
0
230
1
 50
0
 73
    2
 44
1
  0
LINE
  5
88
100
AcDbEntity
  8
kóty
  6
ByBlock
 62
    0
370
   -2
100
AcDbLine
 10
28.5
 20
58.625
 11
28.5
 21
74.29005789382514
  0
LINE
  5
89
100
AcDbEntity
  8
kóty
  6
ByBlock
 62
    0
370
   -2
100
AcDbLine
 10
37.5
 20
60.05848973178617
 11
37.5
 21
74.29005789382514
  0
ENDBLK
  5
50
330
4E
100
AcDbEntity
  8
0
100
AcDbBlockEnd
  0
BLOCK
  5
52
330
51
100
AcDbEntity
  8
0
100
AcDbBlockBegin
  2
*D5
 70
    1
 10
0
 20
0
  3
*D5
  1

  0
LINE
  5
8A
100
AcDbEntity
  8
kóty
  6
ByBlock
 62
    0
370
   -2
100
AcDbLine
 10
65.5
 20
51.59610647045173
 11
51.5
 21
51.59610647045173
  0
SOLID
  5
8B
100
AcDbEntity
  8
kóty
  6
ByBlock
 62
    0
370
   -2
100
AcDbTrace
 10
60.5
 20
51.59610647045173
 30
0
 11
63
 21
52.01239112822457
 31
0
 12
63
 22
51.17982181267889
 32
0
 13
63
 23
51.17982181267889
 33
0
  0
SOLID
  5
8C
100
AcDbEntity
  8
kóty
  6
ByBlock
 62
    0
370
   -2
100
AcDbTrace
 10
56.5
 20
51.59610647045173
 30
0
 11
54
 21
51.17982181267889
 31
0
 12
54
 22
52.01239112822457
 32
0
 13
54
 23
52.01239112822457
 33
0
  0
MTEXT
  5
8D
100
AcDbEntity
  8
kóty
  6
CONTINUOUS
 62
    0
370
   -2
100
AcDbMText
 10
66.125
 20
53.47110647045173
 30
0
 40
2.5
 41
10
 71
    5
 72
    1
  1
4.0000
  7
standard
210
0
220
0
230
1
 50
360
 73
    2
 44
1
  0
LINE
  5
8E
100
AcDbEntity
  8
kóty
  6
ByBlock
 62
    0
370
   -2
100
AcDbLine
 10
60.5
 20
47.125
 11
60.5
 21
52.84610647045173
  0
LINE
  5
8F
100
AcDbEntity
  8
kóty
  6
ByBlock
 62
    0
370
   -2
100
AcDbLine
 10
56.5
 20
47.125
 11
56.5
 21
52.84610647045173
  0
ENDBLK
  5
53
330
51
100
AcDbEntity
  8
0
100
AcDbBlockEnd
  0
BLOCK
  5
55
330
54
100
AcDbEntity
  8
0
100
AcDbBlockBegin
  2
*D11
 70
    1
 10
0
 20
0
  3
*D11
  1

  0
LINE
  5
90
100
AcDbEntity
  8
kóty
  6
ByBlock
 62
    0
370
   -2
100
AcDbLine
 10
70.003910550851
 20
17.27383036623956
 11
68.94192196943743
 21
16.9647082366389
  0
LINE
  5
91
100
AcDbEntity
  8
kóty
  6
ByBlock
 62
    0
370
   -2
100
AcDbLine
 10
72.66472453445347
 20
8.132608184890643
 11
71.6027359530399
 21
7.82348605528998
  0
LINE
  5
92
100
AcDbEntity
  8
kóty
  6
ByBlock
 62
    0
370
   -2
100
AcDbLine
 10
70.14211151592588
 20
17.31405770708342
 11
72.80292549952834
 21
8.172835525734502
  0
SOLID
  5
93
100
AcDbEntity
  8
kóty
  6
ByBlock
 62
    0
370
   -2
100
AcDbTrace
 10
70.14211151592588
 20
17.31405770708342
 30
0
 11
71.24050685251291
 21
15.03002167390423
 31
0
 12
70.44111406111693
 22
14.79733555430884
 32
0
 13
70.44111406111693
 23
14.79733555430884
 33
0
  0
SOLID
  5
94
100
AcDbEntity
  8
kóty
  6
ByBlock
 62
    0
370
   -2
100
AcDbTrace
 10
72.80292549952834
 20
8.172835525734502
 30
0
 11
71.70453016294131
 21
10.45687155891369
 31
0
 12
72.50392295433728
 22
10.68955767850908
 32
0
 13
72.50392295433728
 23
10.68955767850908
 33
0
  0
MTEXT
  5
95
100
AcDbEntity
  8
kóty
  6
CONTINUOUS
 62
    0
370
   -2
100
AcDbMText
 10
76.13646582843424
 20
3.429361166257339
 30
0
 40
2.5
 41
9.722222222222689
 71
    5
 72
    1
  1
9.5206
  7
standard
210
0
220
0
230
1
 50
286.229146663651
 73
    2
 44
1
  0
ENDBLK
  5
56
330
54
100
AcDbEntity
  8
0
100
AcDbBlockEnd
  0
BLOCK
  5
58
330
57
100
AcDbEntity
  8
0
100
AcDbBlockBegin
  2
*D4
 70
    1
 10
0
 20
0
  3
*D4
  1

  0
LINE
  5
96
100
AcDbEntity
  8
kóty
  6
ByBlock
 62
    0
370
   -2
100
AcDbLine
 10
44
 20
55.36000000000018
 11
54.5
 21
55.36000000000018
  0
SOLID
  5
97
100
AcDbEntity
  8
kóty
  6
ByBlock
 62
    0
370
   -2
100
AcDbTrace
 10
44
 20
55.36000000000018
 30
0
 11
46.5
 21
55.77628465777303
 31
0
 12
46.5
 22
54.94371534222734
 32
0
 13
46.5
 23
54.94371534222734
 33
0
  0
SOLID
  5
98
100
AcDbEntity
  8
kóty
  6
ByBlock
 62
    0
370
   -2
100
AcDbTrace
 10
54.5
 20
55.36000000000018
 30
0
 11
52
 21
54.94371534222734
 31
0
 12
52
 22
55.77628465777303
 32
0
 13
52
 23
55.77628465777303
 33
0
  0
MTEXT
  5
99
100
AcDbEntity
  8
kóty
  6
CONTINUOUS
 62
    0
370
   -2
100
AcDbMText
 10
60.68055555555564
 20
57.23500000000018
 30
0
 40
2.5
 41
11.11111111111127
 71
    5
 72
    1
  1
10.5000
  7
standard
210
0
220
0
230
1
 50
0
 73
    2
 44
1
  0
LINE
  5
9A
100
AcDbEntity
  8
kóty
  6
ByBlock
 62
    0
370
   -2
100
AcDbLine
 10
44
 20
53.74500000000018
 11
44
 21
56.61000000000018
  0
LINE
  5
9B
100
AcDbEntity
  8
kóty
  6
ByBlock
 62
    0
370
   -2
100
AcDbLine
 10
54.5
 20
53.74500000000018
 11
54.5
 21
56.61000000000018
  0
ENDBLK
  5
59
330
57
100
AcDbEntity
  8
0
100
AcDbBlockEnd
  0
BLOCK
  5
5B
330
5A
100
AcDbEntity
  8
0
100
AcDbBlockBegin
  2
*D6
 70
    1
 10
0
 20
0
  3
*D6
  1

  0
LINE
  5
9C
100
AcDbEntity
  8
kóty
  6
ByBlock
 62
    0
370
   -2
100
AcDbLine
 10
37
 20
48.00397247567344
 11
49
 21
48.00397247567344
  0
SOLID
  5
9D
100
AcDbEntity
  8
kóty
  6
ByBlock
 62
    0
370
   -2
100
AcDbTrace
 10
42
 20
48.00397247567344
 30
0
 11
39.5
 21
47.5876878179006
 31
0
 12
39.5
 22
48.42025713344628
 32
0
 13
39.5
 23
48.42025713344628
 33
0
  0
SOLID
  5
9E
100
AcDbEntity
  8
kóty
  6
ByBlock
 62
    0
370
   -2
100
AcDbTrace
 10
44
 20
48.00397247567344
 30
0
 11
46.5
 21
48.42025713344628
 31
0
 12
46.5
 22
47.5876878179006
 32
0
 13
46.5
 23
47.5876878179006
 33
0
  0
MTEXT
  5
9F
100
AcDbEntity
  8
kóty
  6
CONTINUOUS
 62
    0
370
   -2
100
AcDbMText
 10
49.48611111111111
 20
49.87897247567344
 30
0
 40
2.5
 41
9.722222222222221
 71
    5
 72
    1
  1
2.0000
  7
standard
210
0
220
0
230
1
 50
0
 73
    2
 44
1
  0
LINE
  5
A0
100
AcDbEntity
  8
kóty
  6
ByBlock
 62
    0
370
   -2
100
AcDbLine
 10
42
 20
45.625
 11
42
 21
49.25397247567344
  0
LINE
  5
A1
100
AcDbEntity
  8
kóty
  6
ByBlock
 62
    0
370
   -2
100
AcDbLine
 10
44
 20
47.125
 11
44
 21
49.25397247567344
  0
ENDBLK
  5
5C
330
5A
100
AcDbEntity
  8
0
100
AcDbBlockEnd
  0
BLOCK
  5
5E
330
5D
100
AcDbEntity
  8
0
100
AcDbBlockBegin
  2
*D10
 70
    1
 10
0
 20
0
  3
*D10
  1

  0
LINE
  5
A2
100
AcDbEntity
  8
kóty
  6
ByBlock
 62
    0
370
   -2
100
AcDbLine
 10
64.5
 20
43.39132189180734
 11
83.5
 21
43.39132189180734
  0
SOLID
  5
A3
100
AcDbEntity
  8
kóty
  6
ByBlock
 62
    0
370
   -2
100
AcDbTrace
 10
64.5
 20
43.39132189180734
 30
0
 11
67
 21
43.80760654958019
 31
0
 12
67
 22
42.9750372340345
 32
0
 13
67
 23
42.9750372340345
 33
0
  0
SOLID
  5
A4
100
AcDbEntity
  8
kóty
  6
ByBlock
 62
    0
370
   -2
100
AcDbTrace
 10
83.5
 20
43.39132189180734
 30
0
 11
81
 21
42.9750372340345
 31
0
 12
81
 22
43.80760654958019
 32
0
 13
81
 23
43.80760654958019
 33
0
  0
MTEXT
  5
A5
100
AcDbEntity
  8
kóty
  6
CONTINUOUS
 62
    0
370
   -2
100
AcDbMText
 10
74
 20
45.26632189180734
 30
0
 40
2.5
 41
11.11111111111111
 71
    5
 72
    1
  1
19.0000
  7
standard
210
0
220
0
230
1
 50
0
 73
    2
 44
1
  0
LINE
  5
A6
100
AcDbEntity
  8
kóty
  6
ByBlock
 62
    0
370
   -2
100
AcDbLine
 10
64.5
 20
41.62499999999998
 11
64.5
 21
44.64132189180734
  0
LINE
  5
A7
100
AcDbEntity
  8
kóty
  6
ByBlock
 62
    0
370
   -2
100
AcDbLine
 10
83.5
 20
41.62500000000005
 11
83.5
 21
44.64132189180734
  0
ENDBLK
  5
5F
330
5D
100
AcDbEntity
  8
0
100
AcDbBlockEnd
  0
BLOCK
  5
61
330
60
100
AcDbEntity
  8
0
100
AcDbBlockBegin
  2
*D7
 70
    1
 10
0
 20
0
  3
*D7
  1

  0
LINE
  5
A8
100
AcDbEntity
  8
kóty
  6
ByBlock
 62
    0
370
   -2
100
AcDbLine
 10
0
 20
51.59610647045173
 11
37.5
 21
51.59610647045173
  0
SOLID
  5
A9
100
AcDbEntity
  8
kóty
  6
ByBlock
 62
    0
370
   -2
100
AcDbTrace
 10
0
 20
51.59610647045173
 30
0
 11
2.5
 21
52.01239112822457
 31
0
 12
2.5
 22
51.17982181267889
 32
0
 13
2.5
 23
51.17982181267889
 33
0
  0
SOLID
  5
AA
100
AcDbEntity
  8
kóty
  6
ByBlock
 62
    0
370
   -2
100
AcDbTrace
 10
37.5
 20
51.59610647045173
 30
0
 11
35
 21
51.17982181267889
 31
0
 12
35
 22
52.01239112822457
 32
0
 13
35
 23
52.01239112822457
 33
0
  0
MTEXT
  5
AB
100
AcDbEntity
  8
kóty
  6
CONTINUOUS
 62
    0
370
   -2
100
AcDbMText
 10
18.75
 20
53.47110647045173
 30
0
 40
2.5
 41
11.66666666666698
 71
    5
 72
    1
  1
37.5000
  7
standard
210
0
220
0
230
1
 50
0
 73
    2
 44
1
  0
LINE
  5
AC
100
AcDbEntity
  8
kóty
  6
ByBlock
 62
    0
370
   -2
100
AcDbLine
 10
-1.148068456708479e-016
 20
57.375
 11
-2.296136913416957e-016
 21
50.34610647045173
  0
LINE
  5
AD
100
AcDbEntity
  8
kóty
  6
ByBlock
 62
    0
370
   -2
100
AcDbLine
 10
37.5
 20
53.375
 11
37.5
 21
50.34610647045173
  0
ENDBLK
  5
62
330
60
100
AcDbEntity
  8
0
100
AcDbBlockEnd
  0
BLOCK
  5
64
330
63
100
AcDbEntity
  8
0
100
AcDbBlockBegin
  2
*D1
 70
    1
 10
0
 20
0
  3
*D1
  1

  0
LINE
  5
AE
100
AcDbEntity
  8
kóty
  6
ByBlock
 62
    0
370
   -2
100
AcDbLine
 10
0
 20
83.36000000000027
 11
97
 21
83.36000000000027
  0
SOLID
  5
AF
100
AcDbEntity
  8
kóty
  6
ByBlock
 62
    0
370
   -2
100
AcDbTrace
 10
0
 20
83.36000000000027
 30
0
 11
2.5
 21
83.7762846577731
 31
0
 12
2.5
 22
82.94371534222743
 32
0
 13
2.5
 23
82.94371534222743
 33
0
  0
SOLID
  5
B0
100
AcDbEntity
  8
kóty
  6
ByBlock
 62
    0
370
   -2
100
AcDbTrace
 10
97
 20
83.36000000000027
 30
0
 11
94.5
 21
82.94371534222743
 31
0
 12
94.5
 22
83.7762846577731
 32
0
 13
94.5
 23
83.7762846577731
 33
0
  0
MTEXT
  5
B1
100
AcDbEntity
  8
kóty
  6
CONTINUOUS
 62
    0
370
   -2
100
AcDbMText
 10
48.5
 20
85.23500000000027
 30
0
 40
2.5
 41
11.66666666666682
 71
    5
 72
    1
  1
97.0000
  7
standard
210
0
220
0
230
1
 50
0
 73
    2
 44
1
  0
LINE
  5
B2
100
AcDbEntity
  8
kóty
  6
ByBlock
 62
    0
370
   -2
100
AcDbLine
 10
3.826894855694929e-017
 20
52.30500000000017
 11
7.653789711389858e-017
 21
84.61000000000027
  0
LINE
  5
B3
100
AcDbEntity
  8
kóty
  6
ByBlock
 62
    0
370
   -2
100
AcDbLine
 10
97
 20
52.30500000000017
 11
97
 21
84.61000000000027
  0
ENDBLK
  5
65
330
63
100
AcDbEntity
  8
0
100
AcDbBlockEnd
  0
BLOCK
  5
67
330
66
100
AcDbEntity
  8
0
100
AcDbBlockBegin
  2
*D16
 70
    1
 10
0
 20
0
  3
*D16
  1

  0
LINE
  5
B4
100
AcDbEntity
  8
kóty
  6
ByBlock
 62
    0
370
   -2
100
AcDbLine
 10
34.38288000000013
 20
10
 11
34.38288000000013
 21
-5
  0
SOLID
  5
B5
100
AcDbEntity
  8
kóty
  6
ByBlock
 62
    0
370
   -2
100
AcDbTrace
 10
34.38288000000013
 20
4.999999999999999
 30
0
 11
33.96659534222729
 21
7.499999999999999
 31
0
 12
34.79916465777297
 22
7.499999999999999
 32
0
 13
34.79916465777297
 23
7.499999999999999
 33
0
  0
SOLID
  5
B6
100
AcDbEntity
  8
kóty
  6
ByBlock
 62
    0
370
   -2
100
AcDbTrace
 10
34.38288000000013
 20
-2.455976755300083e-016
 30
0
 11
34.79916465777297
 21
-2.5
 31
0
 12
33.96659534222729
 22
-2.5
 32
0
 13
33.96659534222729
 23
-2.5
 33
0
  0
MTEXT
  5
B7
100
AcDbEntity
  8
kóty
  6
CONTINUOUS
 62
    0
370
   -2
100
AcDbMText
 10
32.50788000000013
 20
10.48611111111119
 30
0
 40
2.5
 41
9.722222222222378
 71
    5
 72
    1
  1
5.0000
  7
standard
210
0
220
0
230
1
 50
90
 73
    2
 44
1
  0
LINE
  5
B8
100
AcDbEntity
  8
kóty
  6
ByBlock
 62
    0
370
   -2
100
AcDbLine
 10
30.625
 20
5
 11
35.63288000000013
 21
4.999999999999999
  0
LINE
  5
B9
100
AcDbEntity
  8
kóty
  6
ByBlock
 62
    0
370
   -2
100
AcDbLine
 10
31.55140000000011
 20
-1.530757942277972e-016
 11
35.63288000000013
 21
-5.517492639856027e-016
  0
ENDBLK
  5
68
330
66
100
AcDbEntity
  8
0
100
AcDbBlockEnd
  0
BLOCK
  5
6A
330
69
100
AcDbEntity
  8
0
100
AcDbBlockBegin
  2
*D18
 70
    1
 10
0
 20
0
  3
*D18
  1

  0
LINE
  5
BA
100
AcDbEntity
  8
kóty
  6
ByBlock
 62
    0
370
   -2
100
AcDbLine
 10
64.5
 20
27.1060800000001
 11
97
 21
27.1060800000001
  0
SOLID
  5
BB
100
AcDbEntity
  8
kóty
  6
ByBlock
 62
    0
370
   -2
100
AcDbTrace
 10
64.5
 20
27.1060800000001
 30
0
 11
67
 21
27.52236465777294
 31
0
 12
67
 22
26.68979534222726
 32
0
 13
67
 23
26.68979534222726
 33
0
  0
SOLID
  5
BC
100
AcDbEntity
  8
kóty
  6
ByBlock
 62
    0
370
   -2
100
AcDbTrace
 10
97
 20
27.1060800000001
 30
0
 11
94.5
 21
26.68979534222726
 31
0
 12
94.5
 22
27.52236465777294
 32
0
 13
94.5
 23
27.52236465777294
 33
0
  0
MTEXT
  5
BD
100
AcDbEntity
  8
kóty
  6
CONTINUOUS
 62
    0
370
   -2
100
AcDbMText
 10
80.75
 20
28.9810800000001
 30
0
 40
2.5
 41
11.66666666666698
 71
    5
 72
    1
  1
32.5000
  7
standard
210
0
220
0
230
1
 50
0
 73
    2
 44
1
  0
LINE
  5
BE
100
AcDbEntity
  8
kóty
  6
ByBlock
 62
    0
370
   -2
100
AcDbLine
 10
64.5
 20
40.37499999999998
 11
64.5
 21
25.8560800000001
  0
LINE
  5
BF
100
AcDbEntity
  8
kóty
  6
ByBlock
 62
    0
370
   -2
100
AcDbLine
 10
97
 20
41.58044000000015
 11
97
 21
25.8560800000001
  0
ENDBLK
  5
6B
330
69
100
AcDbEntity
  8
0
100
AcDbBlockEnd
  0
BLOCK
  5
6D
330
6C
100
AcDbEntity
  8
0
100
AcDbBlockBegin
  2
*D3
 70
    1
 10
0
 20
0
  3
*D3
  1

  0
LINE
  5
C0
100
AcDbEntity
  8
kóty
  6
ByBlock
 62
    0
370
   -2
100
AcDbLine
 10
7.5
 20
75.68000000000025
 11
-5
 21
75.68000000000025
  0
SOLID
  5
C1
100
AcDbEntity
  8
kóty
  6
ByBlock
 62
    0
370
   -2
100
AcDbTrace
 10
2.5
 20
75.68000000000025
 30
0
 11
5
 21
76.09628465777308
 31
0
 12
5
 22
75.26371534222741
 32
0
 13
5
 23
75.26371534222741
 33
0
  0
SOLID
  5
C2
100
AcDbEntity
  8
kóty
  6
ByBlock
 62
    0
370
   -2
100
AcDbTrace
 10
0
 20
75.68000000000025
 30
0
 11
-2.5
 21
75.26371534222741
 31
0
 12
-2.5
 22
76.09628465777308
 32
0
 13
-2.5
 23
76.09628465777308
 33
0
  0
MTEXT
  5
C3
100
AcDbEntity
  8
kóty
  6
CONTINUOUS
 62
    0
370
   -2
100
AcDbMText
 10
7.986111111111189
 20
77.55500000000025
 30
0
 40
2.5
 41
9.722222222222378
 71
    5
 72
    1
  1
2.5000
  7
standard
210
0
220
0
230
1
 50
360
 73
    2
 44
1
  0
LINE
  5
C4
100
AcDbEntity
  8
kóty
  6
ByBlock
 62
    0
370
   -2
100
AcDbLine
 10
2.5
 20
45.10500000000015
 11
2.5
 21
76.93000000000025
  0
LINE
  5
C5
100
AcDbEntity
  8
kóty
  6
ByBlock
 62
    0
370
   -2
100
AcDbLine
 10
3.826894855694929e-017
 20
49.10500000000016
 11
7.653789711389858e-017
 21
76.93000000000025
  0
ENDBLK
  5
6E
330
6C
100
AcDbEntity
  8
0
100
AcDbBlockEnd
  0
BLOCK
  5
70
330
6F
100
AcDbEntity
  8
0
100
AcDbBlockBegin
  2
*D17
 70
    1
 10
0
 20
0
  3
*D17
  1

  0
LINE
  5
C6
100
AcDbEntity
  8
kóty
  6
ByBlock
 62
    0
370
   -2
100
AcDbLine
 10
85.68432000000031
 20
31.5
 11
85.68432000000031
 21
68
  0
SOLID
  5
C7
100
AcDbEntity
  8
kóty
  6
ByBlock
 62
    0
370
   -2
100
AcDbTrace
 10
85.68432000000031
 20
31.5
 30
0
 11
85.26803534222748
 21
34
 31
0
 12
86.10060465777315
 22
34
 32
0
 13
86.10060465777315
 23
34
 33
0
  0
SOLID
  5
C8
100
AcDbEntity
  8
kóty
  6
ByBlock
 62
    0
370
   -2
100
AcDbTrace
 10
85.68432000000031
 20
68
 30
0
 11
86.10060465777315
 21
65.5
 31
0
 12
85.26803534222748
 22
65.5
 32
0
 13
85.26803534222748
 23
65.5
 33
0
  0
MTEXT
  5
C9
100
AcDbEntity
  8
kóty
  6
CONTINUOUS
 62
    0
370
   -2
100
AcDbMText
 10
83.80932000000031
 20
49.75
 30
0
 40
2.5
 41
11.66666666666713
 71
    5
 72
    1
  1
36.5000
  7
standard
210
0
220
0
230
1
 50
90
 73
    2
 44
1
  0
LINE
  5
CA
100
AcDbEntity
  8
kóty
  6
ByBlock
 62
    0
370
   -2
100
AcDbLine
 10
74.62500000000001
 20
31.5
 11
86.93432000000031
 21
31.5
  0
LINE
  5
CB
100
AcDbEntity
  8
kóty
  6
ByBlock
 62
    0
370
   -2
100
AcDbLine
 10
72.84724000000027
 20
68
 11
86.93432000000031
 21
68
  0
ENDBLK
  5
71
330
6F
100
AcDbEntity
  8
0
100
AcDbBlockEnd
  0
BLOCK
  5
73
330
72
100
AcDbEntity
  8
0
100
AcDbBlockBegin
  2
*D14
 70
    1
 10
0
 20
0
  3
*D14
  1

  0
LINE
  5
CC
100
AcDbEntity
  8
kóty
  6
ByBlock
 62
    0
370
   -2
100
AcDbLine
 10
16.00000000000001
 20
70.64530189730627
 11
94.1707
 21
70.64530189730627
  0
SOLID
  5
CD
100
AcDbEntity
  8
kóty
  6
ByBlock
 62
    0
370
   -2
100
AcDbTrace
 10
16.00000000000001
 20
70.64530189730627
 30
0
 11
18.50000000000001
 21
71.0615865550791
 31
0
 12
18.50000000000001
 22
70.22901723953343
 32
0
 13
18.50000000000001
 23
70.22901723953343
 33
0
  0
SOLID
  5
CE
100
AcDbEntity
  8
kóty
  6
ByBlock
 62
    0
370
   -2
100
AcDbTrace
 10
94.1707
 20
70.64530189730627
 30
0
 11
91.6707
 21
70.22901723953343
 31
0
 12
91.6707
 22
71.0615865550791
 32
0
 13
91.6707
 23
71.0615865550791
 33
0
  0
MTEXT
  5
CF
100
AcDbEntity
  8
kóty
  6
CONTINUOUS
 62
    0
370
   -2
100
AcDbMText
 10
55.08535000000001
 20
72.52030189730627
 30
0
 40
2.5
 41
11.11111111111111
 71
    5
 72
    1
  1
78.1707
  7
standard
210
0
220
0
230
1
 50
0
 73
    2
 44
1
  0
LINE
  5
D0
100
AcDbEntity
  8
kóty
  6
ByBlock
 62
    0
370
   -2
100
AcDbLine
 10
16
 20
64.62500000000001
 11
16.00000000000002
 21
71.89530189730627
  0
LINE
  5
D1
100
AcDbEntity
  8
kóty
  6
ByBlock
 62
    0
370
   -2
100
AcDbLine
 10
94.1707
 20
60.69850000000001
 11
94.1707
 21
71.89530189730627
  0
ENDBLK
  5
74
330
72
100
AcDbEntity
  8
0
100
AcDbBlockEnd
  0
BLOCK
  5
76
330
75
100
AcDbEntity
  8
0
100
AcDbBlockBegin
  2
*D15
 70
    1
 10
0
 20
0
  3
*D15
  1

  0
LINE
  5
D2
100
AcDbEntity
  8
kóty
  6
ByBlock
 62
    0
370
   -2
100
AcDbLine
 10
102.6479502144219
 20
34.4712
 11
102.6479502144219
 21
59.5288
  0
SOLID
  5
D3
100
AcDbEntity
  8
kóty
  6
ByBlock
 62
    0
370
   -2
100
AcDbTrace
 10
102.6479502144219
 20
34.4712
 30
0
 11
102.2316655566491
 21
36.9712
 31
0
 12
103.0642348721947
 22
36.9712
 32
0
 13
103.0642348721947
 23
36.9712
 33
0
  0
SOLID
  5
D4
100
AcDbEntity
  8
kóty
  6
ByBlock
 62
    0
370
   -2
100
AcDbTrace
 10
102.6479502144219
 20
59.5288
 30
0
 11
103.0642348721947
 21
57.0288
 31
0
 12
102.2316655566491
 22
57.0288
 32
0
 13
102.2316655566491
 23
57.0288
 33
0
  0
MTEXT
  5
D5
100
AcDbEntity
  8
kóty
  6
CONTINUOUS
 62
    0
370
   -2
100
AcDbMText
 10
100.7729502144219
 20
47
 30
0
 40
2.5
 41
11.66666666666713
 71
    5
 72
    1
  1
25.0576
  7
standard
210
0
220
0
230
1
 50
90
 73
    2
 44
1
  0
LINE
  5
D6
100
AcDbEntity
  8
kóty
  6
ByBlock
 62
    0
370
   -2
100
AcDbLine
 10
93.33240000000001
 20
34.4712
 11
103.8979502144219
 21
34.4712
  0
LINE
  5
D7
100
AcDbEntity
  8
kóty
  6
ByBlock
 62
    0
370
   -2
100
AcDbLine
 10
93.33240000000002
 20
59.5288
 11
103.8979502144219
 21
59.5288
  0
ENDBLK
  5
77
330
75
100
AcDbEntity
  8
0
100
AcDbBlockEnd
  0
BLOCK
  5
79
330
78
100
AcDbEntity
  8
0
100
AcDbBlockBegin
  2
*D9
 70
    1
 10
0
 20
0
  3
*D9
  1

  0
LINE
  5
D8
100
AcDbEntity
  8
kóty
  6
ByBlock
 62
    0
370
   -2
100
AcDbLine
 10
21.98821414985496
 20
37
 11
21.98821414985495
 21
7.502405376941282e-016
  0
SOLID
  5
D9
100
AcDbEntity
  8
kóty
  6
ByBlock
 62
    0
370
   -2
100
AcDbTrace
 10
21.98821414985496
 20
37
 30
0
 11
22.4044988076278
 21
34.5
 31
0
 12
21.57192949208212
 22
34.5
 32
0
 13
21.57192949208212
 23
34.5
 33
0
  0
SOLID
  5
DA
100
AcDbEntity
  8
kóty
  6
ByBlock
 62
    0
370
   -2
100
AcDbTrace
 10
21.98821414985495
 20
7.502405376941282e-016
 30
0
 11
21.57192949208211
 21
2.500000000000001
 31
0
 12
22.4044988076278
 22
2.500000000000001
 32
0
 13
22.4044988076278
 23
2.500000000000001
 33
0
  0
MTEXT
  5
DB
100
AcDbEntity
  8
kóty
  6
CONTINUOUS
 62
    0
370
   -2
100
AcDbMText
 10
20.11321414985495
 20
18.5
 30
0
 40
2.5
 41
11.66666666666682
 71
    5
 72
    1
  1
37.0000
  7
standard
210
0
220
0
230
1
 50
90
 73
    2
 44
1
  0
LINE
  5
DC
100
AcDbEntity
  8
kóty
  6
ByBlock
 62
    0
370
   -2
100
AcDbLine
 10
32.87499999999997
 20
37
 11
20.73821414985496
 21
37
  0
LINE
  5
DD
100
AcDbEntity
  8
kóty
  6
ByBlock
 62
    0
370
   -2
100
AcDbLine
 10
31.92191104359719
 20
7.653789711389858e-017
 11
20.73821414985495
 21
9.033163319219252e-016
  0
ENDBLK
  5
7A
330
78
100
AcDbEntity
  8
0
100
AcDbBlockEnd
  0
BLOCK
  5
7C
330
7B
100
AcDbEntity
  8
0
100
AcDbBlockBegin
  2
*D12
 70
    1
 10
0
 20
0
  3
*D12
  1

  0
LINE
  5
DE
100
AcDbEntity
  8
kóty
  6
ByBlock
 62
    0
370
   -2
100
AcDbLine
 10
108.961397841608
 20
64
 11
108.961397841608
 21
21.5
  0
SOLID
  5
DF
100
AcDbEntity
  8
kóty
  6
ByBlock
 62
    0
370
   -2
100
AcDbTrace
 10
108.961397841608
 20
64
 30
0
 11
109.3776824993808
 21
61.5
 31
0
 12
108.5451131838351
 22
61.5
 32
0
 13
108.5451131838351
 23
61.5
 33
0
  0
SOLID
  5
E0
100
AcDbEntity
  8
kóty
  6
ByBlock
 62
    0
370
   -2
100
AcDbTrace
 10
108.961397841608
 20
21.5
 30
0
 11
108.5451131838351
 21
24
 31
0
 12
109.3776824993808
 22
24
 32
0
 13
109.3776824993808
 23
24
 33
0
  0
MTEXT
  5
E1
100
AcDbEntity
  8
kóty
  6
CONTINUOUS
 62
    0
370
   -2
100
AcDbMText
 10
107.086397841608
 20
42.75
 30
0
 40
2.5
 41
11.9444444444446
 71
    5
 72
    1
  1
42.5000
  7
standard
210
0
220
0
230
1
 50
90
 73
    2
 44
1
  0
LINE
  5
E2
100
AcDbEntity
  8
kóty
  6
ByBlock
 62
    0
370
   -2
100
AcDbLine
 10
77.625
 20
64
 11
110.211397841608
 21
64
  0
LINE
  5
E3
100
AcDbEntity
  8
kóty
  6
ByBlock
 62
    0
370
   -2
100
AcDbLine
 10
77.625
 20
21.5
 11
110.211397841608
 21
21.5
  0
ENDBLK
  5
7D
330
7B
100
AcDbEntity
  8
0
100
AcDbBlockEnd
  0
BLOCK
  5
7F
330
7E
100
AcDbEntity
  8
0
100
AcDbBlockBegin
  2
*D2
 70
    1
 10
0
 20
0
  3
*D2
  1

  0
LINE
  5
E4
100
AcDbEntity
  8
kóty
  6
ByBlock
 62
    0
370
   -2
100
AcDbLine
 10
-12.16000000000005
 20
68
 11
-12.16000000000005
 21
2.054889591818217e-015
  0
SOLID
  5
E5
100
AcDbEntity
  8
kóty
  6
ByBlock
 62
    0
370
   -2
100
AcDbTrace
 10
-12.16000000000005
 20
68
 30
0
 11
-11.74371534222721
 21
65.5
 31
0
 12
-12.57628465777289
 22
65.5
 32
0
 13
-12.57628465777289
 23
65.5
 33
0
  0
SOLID
  5
E6
100
AcDbEntity
  8
kóty
  6
ByBlock
 62
    0
370
   -2
100
AcDbTrace
 10
-12.16000000000005
 20
2.054889591818217e-015
 30
0
 11
-12.57628465777289
 21
2.500000000000002
 31
0
 12
-11.74371534222721
 22
2.500000000000002
 32
0
 13
-11.74371534222721
 23
2.500000000000002
 33
0
  0
MTEXT
  5
E7
100
AcDbEntity
  8
kóty
  6
CONTINUOUS
 62
    0
370
   -2
100
AcDbMText
 10
-14.03500000000005
 20
34
 30
0
 40
2.5
 41
11.66666666666682
 71
    5
 72
    1
  1
68.0000
  7
standard
210
0
220
0
230
1
 50
90
 73
    2
 44
1
  0
LINE
  5
E8
100
AcDbEntity
  8
kóty
  6
ByBlock
 62
    0
370
   -2
100
AcDbLine
 10
14.41500000000005
 20
68
 11
-13.41000000000005
 21
68
  0
LINE
  5
E9
100
AcDbEntity
  8
kóty
  6
ByBlock
 62
    0
370
   -2
100
AcDbLine
 10
25.77500000000009
 20
7.653789711389858e-017
 11
-13.41000000000005
 21
2.207965386046014e-015
  0
ENDBLK
  5
80
330
7E
100
AcDbEntity
  8
0
100
AcDbBlockEnd
  0
BLOCK
  5
82
330
81
100
AcDbEntity
  8
0
100
AcDbBlockBegin
  2
*D13
 70
    1
 10
0
 20
0
  3
*D13
  1

  0
LINE
  5
EA
100
AcDbEntity
  8
kóty
  6
ByBlock
 62
    0
370
   -2
100
AcDbLine
 10
77
 20
79.68006315690015
 11
5.050263399860444e-017
 21
79.68006315690015
  0
SOLID
  5
EB
100
AcDbEntity
  8
kóty
  6
ByBlock
 62
    0
370
   -2
100
AcDbTrace
 10
77
 20
79.68006315690015
 30
0
 11
74.5
 21
79.26377849912731
 31
0
 12
74.5
 22
80.09634781467298
 32
0
 13
74.5
 23
80.09634781467298
 33
0
  0
SOLID
  5
EC
100
AcDbEntity
  8
kóty
  6
ByBlock
 62
    0
370
   -2
100
AcDbTrace
 10
5.050263399860444e-017
 20
79.68006315690015
 30
0
 11
2.5
 21
80.09634781467298
 31
0
 12
2.5
 22
79.26377849912731
 32
0
 13
2.5
 23
79.26377849912731
 33
0
  0
MTEXT
  5
ED
100
AcDbEntity
  8
kóty
  6
CONTINUOUS
 62
    0
370
   -2
100
AcDbMText
 10
38.5
 20
81.55506315690015
 30
0
 40
2.5
 41
11.66666666666667
 71
    5
 72
    1
  1
77.0000
  7
standard
210
0
220
0
230
1
 50
360
 73
    2
 44
1
  0
LINE
  5
EE
100
AcDbEntity
  8
kóty
  6
ByBlock
 62
    0
370
   -2
100
AcDbLine
 10
77
 20
66.125
 11
77
 21
80.93006315690015
  0
LINE
  5
EF
100
AcDbEntity
  8
kóty
  6
ByBlock
 62
    0
370
   -2
100
AcDbLine
 10
8.87715825555538e-017
 20
58.625
 11
1.27040531112503e-016
 21
80.93006315690015
  0
ENDBLK
  5
83
330
81
100
AcDbEntity
  8
0
100
AcDbBlockEnd
  0
ENDSEC
  0
SECTION
  2
ENTITIES
  0
DIMENSION
  5
F0
100
AcDbEntity
  8
kóty
  6
ByLayer
 62
  256
370
   -1
100
AcDbDimension
  2
*D1
 10
97
 20
83.36000000000027
 30
0
 11
48.5
 21
85.23500000000027
 31
0
 70
   32
 71
    5
  3
Standard
 53
0
210
0
220
0
230
1
100
AcDbAlignedDimension
 13
0
 23
51.68000000000017
 33
0
 14
97
 24
51.68000000000017
 34
0
100
AcDbRotatedDimension
  0
DIMENSION
  5
F1
100
AcDbEntity
  8
kóty
  6
ByLayer
 62
  256
370
   -1
100
AcDbDimension
  2
*D2
 10
-12.16000000000005
 20
4.722082100339103e-015
 30
0
 11
-14.03500000000005
 21
34
 31
0
 70
   32
 71
    5
  3
Standard
 53
0
210
0
220
0
230
1
100
AcDbAlignedDimension
 13
15.04000000000005
 23
68
 33
0
 14
26.40000000000009
 24
0
 34
0
 50
90
100
AcDbRotatedDimension
  0
DIMENSION
  5
F2
100
AcDbEntity
  8
kóty
  6
ByLayer
 62
  256
370
   -1
100
AcDbDimension
  2
*D3
 10
1.665464641198438e-015
 20
75.68000000000025
 30
0
 11
1.25
 21
77.55500000000025
 31
0
 70
   32
 71
    5
  3
Standard
 53
0
210
0
220
0
230
1
100
AcDbAlignedDimension
 13
2.5
 23
44.48000000000015
 33
0
 14
0
 24
48.48000000000016
 34
0
100
AcDbRotatedDimension
  0
DIMENSION
  5
F3
100
AcDbEntity
  8
kóty
  6
ByLayer
 62
  256
370
   -1
100
AcDbDimension
  2
*D4
 10
54.5
 20
55.36000000000018
 30
0
 11
49.25
 21
57.23500000000018
 31
0
 70
   32
 71
    5
  3
Standard
 53
0
210
0
220
0
230
1
100
AcDbAlignedDimension
 13
44
 23
53.12000000000018
 33
0
 14
54.5
 24
53.12000000000018
 34
0
100
AcDbRotatedDimension
  0
DIMENSION
  5
F4
100
AcDbEntity
  8
kóty
  6
ByLayer
 62
  256
370
   -1
100
AcDbDimension
  2
*D5
 10
56.5
 20
51.59610647045173
 30
0
 11
58.5
 21
53.47110647045173
 31
0
 70
   32
 71
    5
  3
Standard
 53
0
210
0
220
0
230
1
100
AcDbAlignedDimension
 13
60.5
 23
46.5
 33
0
 14
56.5
 24
46.5
 34
0
100
AcDbRotatedDimension
  0
DIMENSION
  5
F5
100
AcDbEntity
  8
kóty
  6
ByLayer
 62
  256
370
   -1
100
AcDbDimension
  2
*D6
 10
44
 20
48.00397247567344
 30
0
 11
43
 21
49.87897247567344
 31
0
 70
   32
 71
    5
  3
Standard
 53
0
210
0
220
0
230
1
100
AcDbAlignedDimension
 13
42
 23
45
 33
0
 14
44
 24
46.5
 34
0
100
AcDbRotatedDimension
  0
DIMENSION
  5
F6
100
AcDbEntity
  8
kóty
  6
ByLayer
 62
  256
370
   -1
100
AcDbDimension
  2
*D7
 10
37.5
 20
51.59610647045173
 30
0
 11
18.75
 21
53.47110647045173
 31
0
 70
   32
 71
    5
  3
Standard
 53
0
210
0
220
0
230
1
100
AcDbAlignedDimension
 13
0
 23
58
 33
0
 14
37.5
 24
54
 34
0
100
AcDbRotatedDimension
  0
DIMENSION
  5
F7
100
AcDbEntity
  8
kóty
  6
ByLayer
 62
  256
370
   -1
100
AcDbDimension
  2
*D8
 10
37.5
 20
73.04005789382514
 30
0
 11
33
 21
74.91505789382514
 31
0
 70
   32
 71
    5
  3
Standard
 53
0
210
0
220
0
230
1
100
AcDbAlignedDimension
 13
28.5
 23
58
 33
0
 14
37.5
 24
59.43348973178617
 34
0
100
AcDbRotatedDimension
  0
DIMENSION
  5
F8
100
AcDbEntity
  8
kóty
  6
ByLayer
 62
  256
370
   -1
100
AcDbDimension
  2
*D9
 10
21.98821414985495
 20
1.293024730416134e-015
 30
0
 11
20.11321414985495
 21
18.5
 31
0
 70
   32
 71
    5
  3
Standard
 53
0
210
0
220
0
230
1
100
AcDbAlignedDimension
 13
33.49999999999997
 23
37
 33
0
 14
32.54691104359719
 24
0
 34
0
 50
90
100
AcDbRotatedDimension
  0
DIMENSION
  5
F9
100
AcDbEntity
  8
kóty
  6
ByLayer
 62
  256
370
   -1
100
AcDbDimension
  2
*D10
 10
83.5
 20
43.39132189180734
 30
0
 11
74
 21
45.26632189180734
 31
0
 70
   32
 71
    5
  3
Standard
 53
0
210
0
220
0
230
1
100
AcDbAlignedDimension
 13
64.5
 23
40.99999999999998
 33
0
 14
83.5
 24
41.00000000000005
 34
0
100
AcDbRotatedDimension
  0
DIMENSION
  5
FA
100
AcDbEntity
  8
kóty
  6
ByLayer
 62
  256
370
   -1
100
AcDbDimension
  2
*D11
 10
72.80292549952834
 20
8.172835525734502
 30
0
 11
73.27280282745977
 21
13.26747082207574
 31
0
 70
   33
 71
    5
  3
Standard
 53
0
210
0
220
0
230
1
100
AcDbAlignedDimension
 13
70.60400532409523
 23
17.44850510146182
 33
0
 14
73.26481930769769
 24
8.307282920112904
 34
0
  0
DIMENSION
  5
FB
100
AcDbEntity
  8
kóty
  6
ByLayer
 62
  256
370
   -1
100
AcDbDimension
  2
*D12
 10
108.961397841608
 20
21.5
 30
0
 11
107.086397841608
 21
42.75
 31
0
 70
   32
 71
    5
  3
Standard
 53
0
210
0
220
0
230
1
100
AcDbAlignedDimension
 13
77
 23
64
 33
0
 14
77
 24
21.5
 34
0
 50
90
100
AcDbRotatedDimension
  0
DIMENSION
  5
FC
100
AcDbEntity
  8
kóty
  6
ByLayer
 62
  256
370
   -1
100
AcDbDimension
  2
*D13
 10
1.377979788659122e-015
 20
79.68006315690015
 30
0
 11
38.5
 21
81.55506315690015
 31
0
 70
   32
 71
    5
  3
Standard
 53
0
210
0
220
0
230
1
100
AcDbAlignedDimension
 13
77
 23
65.5
 33
0
 14
5.050263399860452e-017
 24
58
 34
0
100
AcDbRotatedDimension
  0
DIMENSION
  5
FD
100
AcDbEntity
  8
kóty
  6
ByLayer
 62
  256
370
   -1
100
AcDbDimension
  2
*D14
 10
94.1707
 20
70.64530189730627
 30
0
 11
55.08535000000001
 21
72.52030189730627
 31
0
 70
   32
 71
    5
  3
Standard
 53
0
210
0
220
0
230
1
100
AcDbAlignedDimension
 13
16
 23
64.00000000000001
 33
0
 14
94.1707
 24
60.07350000000001
 34
0
100
AcDbRotatedDimension
  0
DIMENSION
  5
FE
100
AcDbEntity
  8
kóty
  6
ByLayer
 62
  256
370
   -1
100
AcDbDimension
  2
*D15
 10
102.6479502144219
 20
59.5288
 30
0
 11
100.7729502144219
 21
47
 31
0
 70
   32
 71
    5
  3
Standard
 53
0
210
0
220
0
230
1
100
AcDbAlignedDimension
 13
92.70740000000001
 23
34.4712
 33
0
 14
92.70740000000002
 24
59.5288
 34
0
 50
90
100
AcDbRotatedDimension
  0
DIMENSION
  5
FF
100
AcDbEntity
  8
kóty
  6
ByLayer
 62
  256
370
   -1
100
AcDbDimension
  2
*D16
 10
34.38288000000013
 20
-4.232827369859991e-016
 30
0
 11
32.50788000000013
 21
2.5
 31
0
 70
   32
 71
    5
  3
Standard
 53
0
210
0
220
0
230
1
100
AcDbAlignedDimension
 13
30
 23
5
 33
0
 14
30.92640000000011
 24
0
 34
0
 50
90
100
AcDbRotatedDimension
  0
LINE
  5
100
100
AcDbEntity
  8
0
  6
ByLayer
 62
  256
370
   -1
100
AcDbLine
 10
43.1204
 20
0.0498505
 11
43.245
 21
0.0120239
  0
LINE
  5
101
100
AcDbEntity
  8
0
  6
ByLayer
 62
  256
370
   -1
100
AcDbLine
 10
43.245
 20
0.0120239
 11
51.829
 21
0.857483
  0
LINE
  5
102
100
AcDbEntity
  8
0
  6
ByLayer
 62
  256
370
   -1
100
AcDbLine
 10
51.829
 20
0.857483
 11
52.3097
 21
0.953094
  0
LINE
  5
103
100
AcDbEntity
  8
0
  6
ByLayer
 62
  256
370
   -1
100
AcDbLine
 10
52.3097
 20
0.953094
 11
52.9016
 21
1.13264
  0
LINE
  5
104
100
AcDbEntity
  8
0
  6
ByLayer
 62
  256
370
   -1
100
AcDbLine
 10
52.9016
 20
1.13264
 11
53
 21
1.0919
  0
LINE
  5
105
100
AcDbEntity
  8
0
  6
ByLayer
 62
  256
370
   -1
100
AcDbLine
 10
53
 20
1.0919
 11
53.855
 21
1.24268
  0
LINE
  5
106
100
AcDbEntity
  8
0
  6
ByLayer
 62
  256
370
   -1
100
AcDbLine
 10
53.855
 20
1.24268
 11
80.355
 21
10.8879
  0
LINE
  5
107
100
AcDbEntity
  8
0
  6
ByLayer
 62
  256
370
   -1
100
AcDbLine
 10
80.355
 20
10.8879
 11
81.26779999999999
 21
11.4693
  0
LINE
  5
108
100
AcDbEntity
  8
0
  6
ByLayer
 62
  256
370
   -1
100
AcDbLine
 10
81.26779999999999
 20
11.4693
 11
81.39360000000001
 21
11.7733
  0
LINE
  5
109
100
AcDbEntity
  8
0
  6
ByLayer
 62
  256
370
   -1
100
AcDbLine
 10
81.39360000000001
 20
11.7733
 11
84.3456
 21
13.3511
  0
LINE
  5
10A
100
AcDbEntity
  8
0
  6
ByLayer
 62
  256
370
   -1
100
AcDbLine
 10
84.3456
 20
13.3511
 11
84.7531
 21
13.6234
  0
LINE
  5
10B
100
AcDbEntity
  8
0
  6
ByLayer
 62
  256
370
   -1
100
AcDbLine
 10
84.7531
 20
13.6234
 11
89.2992
 21
17.3543
  0
LINE
  5
10C
100
AcDbEntity
  8
0
  6
ByLayer
 62
  256
370
   -1
100
AcDbLine
 10
89.2992
 20
17.3543
 11
89.64570000000001
 21
17.7008
  0
LINE
  5
10D
100
AcDbEntity
  8
0
  6
ByLayer
 62
  256
370
   -1
100
AcDbLine
 10
89.64570000000001
 20
17.7008
 11
93.3766
 21
22.2469
  0
LINE
  5
10E
100
AcDbEntity
  8
0
  6
ByLayer
 62
  256
370
   -1
100
AcDbLine
 10
93.3766
 20
22.2469
 11
93.6489
 21
22.6544
  0
LINE
  5
10F
100
AcDbEntity
  8
0
  6
ByLayer
 62
  256
370
   -1
100
AcDbLine
 10
93.6489
 20
22.6544
 11
96.4212
 21
27.841
  0
LINE
  5
110
100
AcDbEntity
  8
0
  6
ByLayer
 62
  256
370
   -1
100
AcDbLine
 10
96.4212
 20
27.841
 11
96.6087
 21
28.2938
  0
LINE
  5
111
100
AcDbEntity
  8
0
  6
ByLayer
 62
  256
370
   -1
100
AcDbLine
 10
96.6087
 20
28.2938
 11
96.89230000000001
 21
29.2287
  0
LINE
  5
112
100
AcDbEntity
  8
0
  6
ByLayer
 62
  256
370
   -1
100
AcDbLine
 10
96.89230000000001
 20
29.2287
 11
96.8553
 21
29.6051
  0
LINE
  5
113
100
AcDbEntity
  8
0
  6
ByLayer
 62
  256
370
   -1
100
AcDbLine
 10
96.8553
 20
29.6051
 11
97
 21
29.9544
  0
LINE
  5
114
100
AcDbEntity
  8
0
  6
ByLayer
 62
  256
370
   -1
100
AcDbLine
 10
97
 20
29.9544
 11
97
 21
58
  0
LINE
  5
115
100
AcDbEntity
  8
0
  6
ByLayer
 62
  256
370
   -1
100
AcDbLine
 10
97
 20
58
 11
96.988
 21
58.245
  0
LINE
  5
116
100
AcDbEntity
  8
0
  6
ByLayer
 62
  256
370
   -1
100
AcDbLine
 10
96.988
 20
58.245
 11
96.8438
 21
59.7082
  0
LINE
  5
117
100
AcDbEntity
  8
0
  6
ByLayer
 62
  256
370
   -1
100
AcDbLine
 10
96.8438
 20
59.7082
 11
96.8188
 21
59.8342
  0
LINE
  5
118
100
AcDbEntity
  8
0
  6
ByLayer
 62
  256
370
   -1
100
AcDbLine
 10
96.8188
 20
59.8342
 11
96.8635
 21
59.9816
  0
LINE
  5
119
100
AcDbEntity
  8
0
  6
ByLayer
 62
  256
370
   -1
100
AcDbLine
 10
96.8635
 20
59.9816
 11
96.83839999999999
 21
60.2365
  0
LINE
  5
11A
100
AcDbEntity
  8
0
  6
ByLayer
 62
  256
370
   -1
100
AcDbLine
 10
96.83839999999999
 20
60.2365
 11
96.95910000000001
 21
60.4623
  0
LINE
  5
11B
100
AcDbEntity
  8
0
  6
ByLayer
 62
  256
370
   -1
100
AcDbLine
 10
96.95910000000001
 20
60.4623
 11
96.988
 21
60.7549
  0
LINE
  5
11C
100
AcDbEntity
  8
0
  6
ByLayer
 62
  256
370
   -1
100
AcDbLine
 10
96.988
 20
60.7549
 11
96.95010000000001
 21
60.8796
  0
LINE
  5
11D
100
AcDbEntity
  8
0
  6
ByLayer
 62
  256
370
   -1
100
AcDbLine
 10
96.95010000000001
 20
60.8796
 11
97
 21
61
  0
LINE
  5
11E
100
AcDbEntity
  8
0
  6
ByLayer
 62
  256
370
   -1
100
AcDbLine
 10
97
 20
61
 11
96.95010000000001
 21
61.1204
  0
LINE
  5
11F
100
AcDbEntity
  8
0
  6
ByLayer
 62
  256
370
   -1
100
AcDbLine
 10
96.95010000000001
 20
61.1204
 11
96.988
 21
61.245
  0
LINE
  5
120
100
AcDbEntity
  8
0
  6
ByLayer
 62
  256
370
   -1
100
AcDbLine
 10
96.988
 20
61.245
 11
96.95910000000001
 21
61.5377
  0
LINE
  5
121
100
AcDbEntity
  8
0
  6
ByLayer
 62
  256
370
   -1
100
AcDbLine
 10
96.95910000000001
 20
61.5377
 11
96.83839999999999
 21
61.7635
  0
LINE
  5
122
100
AcDbEntity
  8
0
  6
ByLayer
 62
  256
370
   -1
100
AcDbLine
 10
96.83839999999999
 20
61.7635
 11
96.8635
 21
62.0183
  0
LINE
  5
123
100
AcDbEntity
  8
0
  6
ByLayer
 62
  256
370
   -1
100
AcDbLine
 10
96.8635
 20
62.0183
 11
96.7782
 21
62.2997
  0
LINE
  5
124
100
AcDbEntity
  8
0
  6
ByLayer
 62
  256
370
   -1
100
AcDbLine
 10
96.7782
 20
62.2997
 11
96.6157
 21
62.4977
  0
LINE
  5
125
100
AcDbEntity
  8
0
  6
ByLayer
 62
  256
370
   -1
100
AcDbLine
 10
96.6157
 20
62.4977
 11
96.59059999999999
 21
62.7525
  0
LINE
  5
126
100
AcDbEntity
  8
0
  6
ByLayer
 62
  256
370
   -1
100
AcDbLine
 10
96.59059999999999
 20
62.7525
 11
96.452
 21
63.0118
  0
LINE
  5
127
100
AcDbEntity
  8
0
  6
ByLayer
 62
  256
370
   -1
100
AcDbLine
 10
96.452
 20
63.0118
 11
96.25409999999999
 21
63.1743
  0
LINE
  5
128
100
AcDbEntity
  8
0
  6
ByLayer
 62
  256
370
   -1
100
AcDbLine
 10
96.25409999999999
 20
63.1743
 11
96.1797
 21
63.4193
  0
LINE
  5
129
100
AcDbEntity
  8
0
  6
ByLayer
 62
  256
370
   -1
100
AcDbLine
 10
96.1797
 20
63.4193
 11
95.9932
 21
63.6466
  0
LINE
  5
12A
100
AcDbEntity
  8
0
  6
ByLayer
 62
  256
370
   -1
100
AcDbLine
 10
95.9932
 20
63.6466
 11
95.8783
 21
63.7081
  0
LINE
  5
12B
100
AcDbEntity
  8
0
  6
ByLayer
 62
  256
370
   -1
100
AcDbLine
 10
95.8783
 20
63.7081
 11
95.8284
 21
63.8284
  0
LINE
  5
12C
100
AcDbEntity
  8
0
  6
ByLayer
 62
  256
370
   -1
100
AcDbLine
 10
95.8284
 20
63.8284
 11
95.7081
 21
63.8783
  0
LINE
  5
12D
100
AcDbEntity
  8
0
  6
ByLayer
 62
  256
370
   -1
100
AcDbLine
 10
95.7081
 20
63.8783
 11
95.64660000000001
 21
63.9932
  0
LINE
  5
12E
100
AcDbEntity
  8
0
  6
ByLayer
 62
  256
370
   -1
100
AcDbLine
 10
95.64660000000001
 20
63.9932
 11
95.41930000000001
 21
64.1797
  0
LINE
  5
12F
100
AcDbEntity
  8
0
  6
ByLayer
 62
  256
370
   -1
100
AcDbLine
 10
95.41930000000001
 20
64.1797
 11
95.1743
 21
64.25409999999999
  0
LINE
  5
130
100
AcDbEntity
  8
0
  6
ByLayer
 62
  256
370
   -1
100
AcDbLine
 10
95.1743
 20
64.25409999999999
 11
95.01179999999999
 21
64.452
  0
LINE
  5
131
100
AcDbEntity
  8
0
  6
ByLayer
 62
  256
370
   -1
100
AcDbLine
 10
95.01179999999999
 20
64.452
 11
94.7525
 21
64.59059999999999
  0
LINE
  5
132
100
AcDbEntity
  8
0
  6
ByLayer
 62
  256
370
   -1
100
AcDbLine
 10
94.7525
 20
64.59059999999999
 11
94.49769999999999
 21
64.6157
  0
LINE
  5
133
100
AcDbEntity
  8
0
  6
ByLayer
 62
  256
370
   -1
100
AcDbLine
 10
94.49769999999999
 20
64.6157
 11
94.38330000000001
 21
64.70959999999999
  0
LINE
  5
134
100
AcDbEntity
  8
0
  6
ByLayer
 62
  256
370
   -1
100
AcDbLine
 10
94.38330000000001
 20
64.70959999999999
 11
94.2358
 21
64.88930000000001
  0
LINE
  5
135
100
AcDbEntity
  8
0
  6
ByLayer
 62
  256
370
   -1
100
AcDbLine
 10
94.2358
 20
64.88930000000001
 11
93.88930000000001
 21
65.2358
  0
LINE
  5
136
100
AcDbEntity
  8
0
  6
ByLayer
 62
  256
370
   -1
100
AcDbLine
 10
93.88930000000001
 20
65.2358
 11
92.7527
 21
66.16849999999999
  0
LINE
  5
137
100
AcDbEntity
  8
0
  6
ByLayer
 62
  256
370
   -1
100
AcDbLine
 10
92.7527
 20
66.16849999999999
 11
92.34529999999999
 21
66.4408
  0
LINE
  5
138
100
AcDbEntity
  8
0
  6
ByLayer
 62
  256
370
   -1
100
AcDbLine
 10
92.34529999999999
 20
66.4408
 11
91.04859999999999
 21
67.1339
  0
LINE
  5
139
100
AcDbEntity
  8
0
  6
ByLayer
 62
  256
370
   -1
100
AcDbLine
 10
91.04859999999999
 20
67.1339
 11
90.5958
 21
67.3214
  0
LINE
  5
13A
100
AcDbEntity
  8
0
  6
ByLayer
 62
  256
370
   -1
100
AcDbLine
 10
90.5958
 20
67.3214
 11
89.1889
 21
67.7482
  0
LINE
  5
13B
100
AcDbEntity
  8
0
  6
ByLayer
 62
  256
370
   -1
100
AcDbLine
 10
89.1889
 20
67.7482
 11
88.70820000000001
 21
67.8438
  0
LINE
  5
13C
100
AcDbEntity
  8
0
  6
ByLayer
 62
  256
370
   -1
100
AcDbLine
 10
88.70820000000001
 20
67.8438
 11
87.245
 21
67.988
  0
LINE
  5
13D
100
AcDbEntity
  8
0
  6
ByLayer
 62
  256
370
   -1
100
AcDbLine
 10
87.245
 20
67.988
 11
87.1204
 21
67.95010000000001
  0
LINE
  5
13E
100
AcDbEntity
  8
0
  6
ByLayer
 62
  256
370
   -1
100
AcDbLine
 10
87.1204
 20
67.95010000000001
 11
87
 21
68
  0
LINE
  5
13F
100
AcDbEntity
  8
0
  6
ByLayer
 62
  256
370
   -1
100
AcDbLine
 10
87
 20
68
 11
10
 21
68
  0
LINE
  5
140
100
AcDbEntity
  8
0
  6
ByLayer
 62
  256
370
   -1
100
AcDbLine
 10
10
 20
68
 11
9.75494
 21
67.988
  0
LINE
  5
141
100
AcDbEntity
  8
0
  6
ByLayer
 62
  256
370
   -1
100
AcDbLine
 10
9.75494
 20
67.988
 11
8.291779999999999
 21
67.8438
  0
LINE
  5
142
100
AcDbEntity
  8
0
  6
ByLayer
 62
  256
370
   -1
100
AcDbLine
 10
8.291779999999999
 20
67.8438
 11
7.8111
 21
67.7482
  0
LINE
  5
143
100
AcDbEntity
  8
0
  6
ByLayer
 62
  256
370
   -1
100
AcDbLine
 10
7.8111
 20
67.7482
 11
6.40416
 21
67.3214
  0
LINE
  5
144
100
AcDbEntity
  8
0
  6
ByLayer
 62
  256
370
   -1
100
AcDbLine
 10
6.40416
 20
67.3214
 11
5.95137
 21
67.1339
  0
LINE
  5
145
100
AcDbEntity
  8
0
  6
ByLayer
 62
  256
370
   -1
100
AcDbLine
 10
5.95137
 20
67.1339
 11
4.65472
 21
66.4408
  0
LINE
  5
146
100
AcDbEntity
  8
0
  6
ByLayer
 62
  256
370
   -1
100
AcDbLine
 10
4.65472
 20
66.4408
 11
4.24724
 21
66.16849999999999
  0
LINE
  5
147
100
AcDbEntity
  8
0
  6
ByLayer
 62
  256
370
   -1
100
AcDbLine
 10
4.24724
 20
66.16849999999999
 11
3.1107
 21
65.2358
  0
LINE
  5
148
100
AcDbEntity
  8
0
  6
ByLayer
 62
  256
370
   -1
100
AcDbLine
 10
3.1107
 20
65.2358
 11
2.76416
 21
64.88930000000001
  0
LINE
  5
149
100
AcDbEntity
  8
0
  6
ByLayer
 62
  256
370
   -1
100
AcDbLine
 10
2.76416
 20
64.88930000000001
 11
1.83145
 21
63.7527
  0
LINE
  5
14A
100
AcDbEntity
  8
0
  6
ByLayer
 62
  256
370
   -1
100
AcDbLine
 10
1.83145
 20
63.7527
 11
1.55661
 21
63.3405
  0
LINE
  5
14B
100
AcDbEntity
  8
0
  6
ByLayer
 62
  256
370
   -1
100
AcDbLine
 10
1.55661
 20
63.3405
 11
0.866089
 21
62.0486
  0
LINE
  5
14C
100
AcDbEntity
  8
0
  6
ByLayer
 62
  256
370
   -1
100
AcDbLine
 10
0.866089
 20
62.0486
 11
0.678543
 21
61.5958
  0
LINE
  5
14D
100
AcDbEntity
  8
0
  6
ByLayer
 62
  256
370
   -1
100
AcDbLine
 10
0.678543
 20
61.5958
 11
0.251755
 21
60.1889
  0
LINE
  5
14E
100
AcDbEntity
  8
0
  6
ByLayer
 62
  256
370
   -1
100
AcDbLine
 10
0.251755
 20
60.1889
 11
0.156143
 21
59.7082
  0
LINE
  5
14F
100
AcDbEntity
  8
0
  6
ByLayer
 62
  256
370
   -1
100
AcDbLine
 10
0.156143
 20
59.7082
 11
0.0120239
 21
58.245
  0
LINE
  5
150
100
AcDbEntity
  8
0
  6
ByLayer
 62
  256
370
   -1
100
AcDbLine
 10
0.0120239
 20
58.245
 11
0
 21
58
  0
LINE
  5
151
100
AcDbEntity
  8
0
  6
ByLayer
 62
  256
370
   -1
100
AcDbLine
 10
0
 20
58
 11
0
 21
20
  0
LINE
  5
152
100
AcDbEntity
  8
0
  6
ByLayer
 62
  256
370
   -1
100
AcDbLine
 10
0
 20
20
 11
0.0498505
 21
19.8796
  0
LINE
  5
153
100
AcDbEntity
  8
0
  6
ByLayer
 62
  256
370
   -1
100
AcDbLine
 10
0.0498505
 20
19.8796
 11
0.0120239
 21
19.7549
  0
LINE
  5
154
100
AcDbEntity
  8
0
  6
ByLayer
 62
  256
370
   -1
100
AcDbLine
 10
0.0120239
 20
19.7549
 11
0.348282
 21
16.3409
  0
LINE
  5
155
100
AcDbEntity
  8
0
  6
ByLayer
 62
  256
370
   -1
100
AcDbLine
 10
0.348282
 20
16.3409
 11
0.443893
 21
15.8602
  0
LINE
  5
156
100
AcDbEntity
  8
0
  6
ByLayer
 62
  256
370
   -1
100
AcDbLine
 10
0.443893
 20
15.8602
 11
1.43974
 21
12.5773
  0
LINE
  5
157
100
AcDbEntity
  8
0
  6
ByLayer
 62
  256
370
   -1
100
AcDbLine
 10
1.43974
 20
12.5773
 11
1.6273
 21
12.1245
  0
LINE
  5
158
100
AcDbEntity
  8
0
  6
ByLayer
 62
  256
370
   -1
100
AcDbLine
 10
1.6273
 20
12.1245
 11
3.24448
 21
9.09901
  0
LINE
  5
159
100
AcDbEntity
  8
0
  6
ByLayer
 62
  256
370
   -1
100
AcDbLine
 10
3.24448
 20
9.09901
 11
3.51675
 21
8.69153
  0
LINE
  5
15A
100
AcDbEntity
  8
0
  6
ByLayer
 62
  256
370
   -1
100
AcDbLine
 10
3.51675
 20
8.69153
 11
5.6931
 21
6.03964
  0
LINE
  5
15B
100
AcDbEntity
  8
0
  6
ByLayer
 62
  256
370
   -1
100
AcDbLine
 10
5.6931
 20
6.03964
 11
6.03964
 21
5.6931
  0
LINE
  5
15C
100
AcDbEntity
  8
0
  6
ByLayer
 62
  256
370
   -1
100
AcDbLine
 10
6.03964
 20
5.6931
 11
8.69153
 21
3.51675
  0
LINE
  5
15D
100
AcDbEntity
  8
0
  6
ByLayer
 62
  256
370
   -1
100
AcDbLine
 10
8.69153
 20
3.51675
 11
9.09901
 21
3.24448
  0
LINE
  5
15E
100
AcDbEntity
  8
0
  6
ByLayer
 62
  256
370
   -1
100
AcDbLine
 10
9.09901
 20
3.24448
 11
12.1245
 21
1.6273
  0
LINE
  5
15F
100
AcDbEntity
  8
0
  6
ByLayer
 62
  256
370
   -1
100
AcDbLine
 10
12.1245
 20
1.6273
 11
12.5773
 21
1.43974
  0
LINE
  5
160
100
AcDbEntity
  8
0
  6
ByLayer
 62
  256
370
   -1
100
AcDbLine
 10
12.5773
 20
1.43974
 11
15.8602
 21
0.443893
  0
LINE
  5
161
100
AcDbEntity
  8
0
  6
ByLayer
 62
  256
370
   -1
100
AcDbLine
 10
15.8602
 20
0.443893
 11
16.3409
 21
0.348282
  0
LINE
  5
162
100
AcDbEntity
  8
0
  6
ByLayer
 62
  256
370
   -1
100
AcDbLine
 10
16.3409
 20
0.348282
 11
19.7549
 21
0.0120239
  0
LINE
  5
163
100
AcDbEntity
  8
0
  6
ByLayer
 62
  256
370
   -1
100
AcDbLine
 10
19.7549
 20
0.0120239
 11
19.8796
 21
0.0498505
  0
LINE
  5
164
100
AcDbEntity
  8
0
  6
ByLayer
 62
  256
370
   -1
100
AcDbLine
 10
19.8796
 20
0.0498505
 11
20
 21
0
  0
LINE
  5
165
100
AcDbEntity
  8
0
  6
ByLayer
 62
  256
370
   -1
100
AcDbLine
 10
20
 20
0
 11
43
 21
0
  0
LINE
  5
166
100
AcDbEntity
  8
0
  6
ByLayer
 62
  256
370
   -1
100
AcDbLine
 10
43
 20
0
 11
43.1204
 21
0.0498505
  0
LINE
  5
167
100
AcDbEntity
  8
0
  6
ByLayer
 62
  256
370
   -1
100
AcDbLine
 10
39.0433
 20
33.2961
 11
38.4888
 21
34.3334
  0
LINE
  5
168
100
AcDbEntity
  8
0
  6
ByLayer
 62
  256
370
   -1
100
AcDbLine
 10
38.4888
 20
34.3334
 11
37.7426
 21
35.2426
  0
LINE
  5
169
100
AcDbEntity
  8
0
  6
ByLayer
 62
  256
370
   -1
100
AcDbLine
 10
37.7426
 20
35.2426
 11
36.8334
 21
35.9888
  0
LINE
  5
16A
100
AcDbEntity
  8
0
  6
ByLayer
 62
  256
370
   -1
100
AcDbLine
 10
36.8334
 20
35.9888
 11
35.7961
 21
36.5433
  0
LINE
  5
16B
100
AcDbEntity
  8
0
  6
ByLayer
 62
  256
370
   -1
100
AcDbLine
 10
35.7961
 20
36.5433
 11
34.6705
 21
36.8847
  0
LINE
  5
16C
100
AcDbEntity
  8
0
  6
ByLayer
 62
  256
370
   -1
100
AcDbLine
 10
34.6705
 20
36.8847
 11
33.5
 21
37
  0
LINE
  5
16D
100
AcDbEntity
  8
0
  6
ByLayer
 62
  256
370
   -1
100
AcDbLine
 10
33.5
 20
37
 11
32.3295
 21
36.8847
  0
LINE
  5
16E
100
AcDbEntity
  8
0
  6
ByLayer
 62
  256
370
   -1
100
AcDbLine
 10
32.3295
 20
36.8847
 11
31.2039
 21
36.5433
  0
LINE
  5
16F
100
AcDbEntity
  8
0
  6
ByLayer
 62
  256
370
   -1
100
AcDbLine
 10
31.2039
 20
36.5433
 11
30.1666
 21
35.9888
  0
LINE
  5
170
100
AcDbEntity
  8
0
  6
ByLayer
 62
  256
370
   -1
100
AcDbLine
 10
30.1666
 20
35.9888
 11
29.2574
 21
35.2426
  0
LINE
  5
171
100
AcDbEntity
  8
0
  6
ByLayer
 62
  256
370
   -1
100
AcDbLine
 10
29.2574
 20
35.2426
 11
28.5112
 21
34.3334
  0
LINE
  5
172
100
AcDbEntity
  8
0
  6
ByLayer
 62
  256
370
   -1
100
AcDbLine
 10
28.5112
 20
34.3334
 11
27.9567
 21
33.2961
  0
LINE
  5
173
100
AcDbEntity
  8
0
  6
ByLayer
 62
  256
370
   -1
100
AcDbLine
 10
27.9567
 20
33.2961
 11
27.6153
 21
32.1705
  0
LINE
  5
174
100
AcDbEntity
  8
0
  6
ByLayer
 62
  256
370
   -1
100
AcDbLine
 10
27.6153
 20
32.1705
 11
27.5
 21
31
  0
LINE
  5
175
100
AcDbEntity
  8
0
  6
ByLayer
 62
  256
370
   -1
100
AcDbLine
 10
27.5
 20
31
 11
27.5
 21
2.5
  0
LINE
  5
176
100
AcDbEntity
  8
0
  6
ByLayer
 62
  256
370
   -1
100
AcDbLine
 10
27.5
 20
2.5
 11
20
 21
2.5
  0
LINE
  5
177
100
AcDbEntity
  8
0
  6
ByLayer
 62
  256
370
   -1
100
AcDbLine
 10
20
 20
2.5
 11
17
 21
2.79547
  0
LINE
  5
178
100
AcDbEntity
  8
0
  6
ByLayer
 62
  256
370
   -1
100
AcDbLine
 10
17
 20
2.79547
 11
17
 21
11
  0
LINE
  5
179
100
AcDbEntity
  8
0
  6
ByLayer
 62
  256
370
   -1
100
AcDbLine
 10
17
 20
11
 11
16
 21
11
  0
LINE
  5
17A
100
AcDbEntity
  8
0
  6
ByLayer
 62
  256
370
   -1
100
AcDbLine
 10
16
 20
11
 11
16
 21
3.01399
  0
LINE
  5
17B
100
AcDbEntity
  8
0
  6
ByLayer
 62
  256
370
   -1
100
AcDbLine
 10
16
 20
3.01399
 11
13.303
 21
3.83211
  0
LINE
  5
17C
100
AcDbEntity
  8
0
  6
ByLayer
 62
  256
370
   -1
100
AcDbLine
 10
13.303
 20
3.83211
 11
10.2775
 21
5.44928
  0
LINE
  5
17D
100
AcDbEntity
  8
0
  6
ByLayer
 62
  256
370
   -1
100
AcDbLine
 10
10.2775
 20
5.44928
 11
7.62563
 21
7.62563
  0
LINE
  5
17E
100
AcDbEntity
  8
0
  6
ByLayer
 62
  256
370
   -1
100
AcDbLine
 10
7.62563
 20
7.62563
 11
5.44928
 21
10.2775
  0
LINE
  5
17F
100
AcDbEntity
  8
0
  6
ByLayer
 62
  256
370
   -1
100
AcDbLine
 10
5.44928
 20
10.2775
 11
3.83211
 21
13.303
  0
LINE
  5
180
100
AcDbEntity
  8
0
  6
ByLayer
 62
  256
370
   -1
100
AcDbLine
 10
3.83211
 20
13.303
 11
2.83624
 21
16.5859
  0
LINE
  5
181
100
AcDbEntity
  8
0
  6
ByLayer
 62
  256
370
   -1
100
AcDbLine
 10
2.83624
 20
16.5859
 11
2.5
 21
20
  0
LINE
  5
182
100
AcDbEntity
  8
0
  6
ByLayer
 62
  256
370
   -1
100
AcDbLine
 10
2.5
 20
20
 11
2.5
 21
58
  0
LINE
  5
183
100
AcDbEntity
  8
0
  6
ByLayer
 62
  256
370
   -1
100
AcDbLine
 10
2.5
 20
58
 11
2.6441
 21
59.4632
  0
LINE
  5
184
100
AcDbEntity
  8
0
  6
ByLayer
 62
  256
370
   -1
100
AcDbLine
 10
2.6441
 20
59.4632
 11
3.07089
 21
60.8701
  0
LINE
  5
185
100
AcDbEntity
  8
0
  6
ByLayer
 62
  256
370
   -1
100
AcDbLine
 10
3.07089
 20
60.8701
 11
3.76398
 21
62.1668
  0
LINE
  5
186
100
AcDbEntity
  8
0
  6
ByLayer
 62
  256
370
   -1
100
AcDbLine
 10
3.76398
 20
62.1668
 11
4.69669
 21
63.3033
  0
LINE
  5
187
100
AcDbEntity
  8
0
  6
ByLayer
 62
  256
370
   -1
100
AcDbLine
 10
4.69669
 20
63.3033
 11
5.83322
 21
64.236
  0
LINE
  5
188
100
AcDbEntity
  8
0
  6
ByLayer
 62
  256
370
   -1
100
AcDbLine
 10
5.83322
 20
64.236
 11
7.12987
 21
64.92910000000001
  0
LINE
  5
189
100
AcDbEntity
  8
0
  6
ByLayer
 62
  256
370
   -1
100
AcDbLine
 10
7.12987
 20
64.92910000000001
 11
8.536820000000001
 21
65.35590000000001
  0
LINE
  5
18A
100
AcDbEntity
  8
0
  6
ByLayer
 62
  256
370
   -1
100
AcDbLine
 10
8.536820000000001
 20
65.35590000000001
 11
10
 21
65.5
  0
LINE
  5
18B
100
AcDbEntity
  8
0
  6
ByLayer
 62
  256
370
   -1
100
AcDbLine
 10
10
 20
65.5
 11
13.8845
 21
65.5
  0
LINE
  5
18C
100
AcDbEntity
  8
0
  6
ByLayer
 62
  256
370
   -1
100
AcDbLine
 10
13.8845
 20
65.5
 11
13.8843
 21
65.49769999999999
  0
LINE
  5
18D
100
AcDbEntity
  8
0
  6
ByLayer
 62
  256
370
   -1
100
AcDbLine
 10
13.8843
 20
65.49769999999999
 11
13.7218
 21
65.2997
  0
LINE
  5
18E
100
AcDbEntity
  8
0
  6
ByLayer
 62
  256
370
   -1
100
AcDbLine
 10
13.7218
 20
65.2997
 11
13.6365
 21
65.0183
  0
LINE
  5
18F
100
AcDbEntity
  8
0
  6
ByLayer
 62
  256
370
   -1
100
AcDbLine
 10
13.6365
 20
65.0183
 11
13.6616
 21
64.76349999999999
  0
LINE
  5
190
100
AcDbEntity
  8
0
  6
ByLayer
 62
  256
370
   -1
100
AcDbLine
 10
13.6616
 20
64.76349999999999
 11
13.5408
 21
64.5377
  0
LINE
  5
191
100
AcDbEntity
  8
0
  6
ByLayer
 62
  256
370
   -1
100
AcDbLine
 10
13.5408
 20
64.5377
 11
13.512
 21
64.245
  0
LINE
  5
192
100
AcDbEntity
  8
0
  6
ByLayer
 62
  256
370
   -1
100
AcDbLine
 10
13.512
 20
64.245
 11
13.5499
 21
64.1204
  0
LINE
  5
193
100
AcDbEntity
  8
0
  6
ByLayer
 62
  256
370
   -1
100
AcDbLine
 10
13.5499
 20
64.1204
 11
13.5
 21
64
  0
LINE
  5
194
100
AcDbEntity
  8
0
  6
ByLayer
 62
  256
370
   -1
100
AcDbLine
 10
13.5
 20
64
 11
13.5499
 21
63.8796
  0
LINE
  5
195
100
AcDbEntity
  8
0
  6
ByLayer
 62
  256
370
   -1
100
AcDbLine
 10
13.5499
 20
63.8796
 11
13.512
 21
63.7549
  0
LINE
  5
196
100
AcDbEntity
  8
0
  6
ByLayer
 62
  256
370
   -1
100
AcDbLine
 10
13.512
 20
63.7549
 11
13.5408
 21
63.4623
  0
LINE
  5
197
100
AcDbEntity
  8
0
  6
ByLayer
 62
  256
370
   -1
100
AcDbLine
 10
13.5408
 20
63.4623
 11
13.6616
 21
63.2365
  0
LINE
  5
198
100
AcDbEntity
  8
0
  6
ByLayer
 62
  256
370
   -1
100
AcDbLine
 10
13.6616
 20
63.2365
 11
13.6365
 21
62.9816
  0
LINE
  5
199
100
AcDbEntity
  8
0
  6
ByLayer
 62
  256
370
   -1
100
AcDbLine
 10
13.6365
 20
62.9816
 11
13.7218
 21
62.7003
  0
LINE
  5
19A
100
AcDbEntity
  8
0
  6
ByLayer
 62
  256
370
   -1
100
AcDbLine
 10
13.7218
 20
62.7003
 11
13.8843
 21
62.5023
  0
LINE
  5
19B
100
AcDbEntity
  8
0
  6
ByLayer
 62
  256
370
   -1
100
AcDbLine
 10
13.8843
 20
62.5023
 11
13.9094
 21
62.2475
  0
LINE
  5
19C
100
AcDbEntity
  8
0
  6
ByLayer
 62
  256
370
   -1
100
AcDbLine
 10
13.9094
 20
62.2475
 11
14.048
 21
61.9881
  0
LINE
  5
19D
100
AcDbEntity
  8
0
  6
ByLayer
 62
  256
370
   -1
100
AcDbLine
 10
14.048
 20
61.9881
 11
14.2459
 21
61.8257
  0
LINE
  5
19E
100
AcDbEntity
  8
0
  6
ByLayer
 62
  256
370
   -1
100
AcDbLine
 10
14.2459
 20
61.8257
 11
14.3203
 21
61.5807
  0
LINE
  5
19F
100
AcDbEntity
  8
0
  6
ByLayer
 62
  256
370
   -1
100
AcDbLine
 10
14.3203
 20
61.5807
 11
14.5068
 21
61.3533
  0
LINE
  5
1A0
100
AcDbEntity
  8
0
  6
ByLayer
 62
  256
370
   -1
100
AcDbLine
 10
14.5068
 20
61.3533
 11
14.6217
 21
61.2919
  0
LINE
  5
1A1
100
AcDbEntity
  8
0
  6
ByLayer
 62
  256
370
   -1
100
AcDbLine
 10
14.6217
 20
61.2919
 11
14.6716
 21
61.1716
  0
LINE
  5
1A2
100
AcDbEntity
  8
0
  6
ByLayer
 62
  256
370
   -1
100
AcDbLine
 10
14.6716
 20
61.1716
 11
14.7919
 21
61.1217
  0
LINE
  5
1A3
100
AcDbEntity
  8
0
  6
ByLayer
 62
  256
370
   -1
100
AcDbLine
 10
14.7919
 20
61.1217
 11
14.8533
 21
61.0068
  0
LINE
  5
1A4
100
AcDbEntity
  8
0
  6
ByLayer
 62
  256
370
   -1
100
AcDbLine
 10
14.8533
 20
61.0068
 11
15.0807
 21
60.8203
  0
LINE
  5
1A5
100
AcDbEntity
  8
0
  6
ByLayer
 62
  256
370
   -1
100
AcDbLine
 10
15.0807
 20
60.8203
 11
15.3257
 21
60.7459
  0
LINE
  5
1A6
100
AcDbEntity
  8
0
  6
ByLayer
 62
  256
370
   -1
100
AcDbLine
 10
15.3257
 20
60.7459
 11
15.4881
 21
60.548
  0
LINE
  5
1A7
100
AcDbEntity
  8
0
  6
ByLayer
 62
  256
370
   -1
100
AcDbLine
 10
15.4881
 20
60.548
 11
15.7475
 21
60.4094
  0
LINE
  5
1A8
100
AcDbEntity
  8
0
  6
ByLayer
 62
  256
370
   -1
100
AcDbLine
 10
15.7475
 20
60.4094
 11
16.0023
 21
60.3843
  0
LINE
  5
1A9
100
AcDbEntity
  8
0
  6
ByLayer
 62
  256
370
   -1
100
AcDbLine
 10
16.0023
 20
60.3843
 11
16.2003
 21
60.2218
  0
LINE
  5
1AA
100
AcDbEntity
  8
0
  6
ByLayer
 62
  256
370
   -1
100
AcDbLine
 10
16.2003
 20
60.2218
 11
16.4816
 21
60.1365
  0
LINE
  5
1AB
100
AcDbEntity
  8
0
  6
ByLayer
 62
  256
370
   -1
100
AcDbLine
 10
16.4816
 20
60.1365
 11
16.7365
 21
60.1616
  0
LINE
  5
1AC
100
AcDbEntity
  8
0
  6
ByLayer
 62
  256
370
   -1
100
AcDbLine
 10
16.7365
 20
60.1616
 11
16.9623
 21
60.0408
  0
LINE
  5
1AD
100
AcDbEntity
  8
0
  6
ByLayer
 62
  256
370
   -1
100
AcDbLine
 10
16.9623
 20
60.0408
 11
17.2549
 21
60.012
  0
LINE
  5
1AE
100
AcDbEntity
  8
0
  6
ByLayer
 62
  256
370
   -1
100
AcDbLine
 10
17.2549
 20
60.012
 11
17.3796
 21
60.0499
  0
LINE
  5
1AF
100
AcDbEntity
  8
0
  6
ByLayer
 62
  256
370
   -1
100
AcDbLine
 10
17.3796
 20
60.0499
 11
17.5
 21
60
  0
LINE
  5
1B0
100
AcDbEntity
  8
0
  6
ByLayer
 62
  256
370
   -1
100
AcDbLine
 10
17.5
 20
60
 11
17.6204
 21
60.0499
  0
LINE
  5
1B1
100
AcDbEntity
  8
0
  6
ByLayer
 62
  256
370
   -1
100
AcDbLine
 10
17.6204
 20
60.0499
 11
17.745
 21
60.012
  0
LINE
  5
1B2
100
AcDbEntity
  8
0
  6
ByLayer
 62
  256
370
   -1
100
AcDbLine
 10
17.745
 20
60.012
 11
18.0377
 21
60.0408
  0
LINE
  5
1B3
100
AcDbEntity
  8
0
  6
ByLayer
 62
  256
370
   -1
100
AcDbLine
 10
18.0377
 20
60.0408
 11
18.2635
 21
60.1616
  0
LINE
  5
1B4
100
AcDbEntity
  8
0
  6
ByLayer
 62
  256
370
   -1
100
AcDbLine
 10
18.2635
 20
60.1616
 11
18.5183
 21
60.1365
  0
LINE
  5
1B5
100
AcDbEntity
  8
0
  6
ByLayer
 62
  256
370
   -1
100
AcDbLine
 10
18.5183
 20
60.1365
 11
18.7997
 21
60.2218
  0
LINE
  5
1B6
100
AcDbEntity
  8
0
  6
ByLayer
 62
  256
370
   -1
100
AcDbLine
 10
18.7997
 20
60.2218
 11
18.9977
 21
60.3843
  0
LINE
  5
1B7
100
AcDbEntity
  8
0
  6
ByLayer
 62
  256
370
   -1
100
AcDbLine
 10
18.9977
 20
60.3843
 11
19.2525
 21
60.4094
  0
LINE
  5
1B8
100
AcDbEntity
  8
0
  6
ByLayer
 62
  256
370
   -1
100
AcDbLine
 10
19.2525
 20
60.4094
 11
19.5118
 21
60.548
  0
LINE
  5
1B9
100
AcDbEntity
  8
0
  6
ByLayer
 62
  256
370
   -1
100
AcDbLine
 10
19.5118
 20
60.548
 11
19.6743
 21
60.7459
  0
LINE
  5
1BA
100
AcDbEntity
  8
0
  6
ByLayer
 62
  256
370
   -1
100
AcDbLine
 10
19.6743
 20
60.7459
 11
19.9193
 21
60.8203
  0
LINE
  5
1BB
100
AcDbEntity
  8
0
  6
ByLayer
 62
  256
370
   -1
100
AcDbLine
 10
19.9193
 20
60.8203
 11
20.1466
 21
61.0068
  0
LINE
  5
1BC
100
AcDbEntity
  8
0
  6
ByLayer
 62
  256
370
   -1
100
AcDbLine
 10
20.1466
 20
61.0068
 11
20.2081
 21
61.1217
  0
LINE
  5
1BD
100
AcDbEntity
  8
0
  6
ByLayer
 62
  256
370
   -1
100
AcDbLine
 10
20.2081
 20
61.1217
 11
20.3284
 21
61.1716
  0
LINE
  5
1BE
100
AcDbEntity
  8
0
  6
ByLayer
 62
  256
370
   -1
100
AcDbLine
 10
20.3284
 20
61.1716
 11
20.3783
 21
61.2919
  0
LINE
  5
1BF
100
AcDbEntity
  8
0
  6
ByLayer
 62
  256
370
   -1
100
AcDbLine
 10
20.3783
 20
61.2919
 11
20.4932
 21
61.3533
  0
LINE
  5
1C0
100
AcDbEntity
  8
0
  6
ByLayer
 62
  256
370
   -1
100
AcDbLine
 10
20.4932
 20
61.3533
 11
20.6797
 21
61.5807
  0
LINE
  5
1C1
100
AcDbEntity
  8
0
  6
ByLayer
 62
  256
370
   -1
100
AcDbLine
 10
20.6797
 20
61.5807
 11
20.7541
 21
61.8257
  0
LINE
  5
1C2
100
AcDbEntity
  8
0
  6
ByLayer
 62
  256
370
   -1
100
AcDbLine
 10
20.7541
 20
61.8257
 11
20.952
 21
61.9881
  0
LINE
  5
1C3
100
AcDbEntity
  8
0
  6
ByLayer
 62
  256
370
   -1
100
AcDbLine
 10
20.952
 20
61.9881
 11
21.0906
 21
62.2475
  0
LINE
  5
1C4
100
AcDbEntity
  8
0
  6
ByLayer
 62
  256
370
   -1
100
AcDbLine
 10
21.0906
 20
62.2475
 11
21.1157
 21
62.5023
  0
LINE
  5
1C5
100
AcDbEntity
  8
0
  6
ByLayer
 62
  256
370
   -1
100
AcDbLine
 10
21.1157
 20
62.5023
 11
21.2782
 21
62.7003
  0
LINE
  5
1C6
100
AcDbEntity
  8
0
  6
ByLayer
 62
  256
370
   -1
100
AcDbLine
 10
21.2782
 20
62.7003
 11
21.3635
 21
62.9816
  0
LINE
  5
1C7
100
AcDbEntity
  8
0
  6
ByLayer
 62
  256
370
   -1
100
AcDbLine
 10
21.3635
 20
62.9816
 11
21.3617
 21
63
  0
LINE
  5
1C8
100
AcDbEntity
  8
0
  6
ByLayer
 62
  256
370
   -1
100
AcDbLine
 10
21.3617
 20
63
 11
18.6104
 21
63
  0
LINE
  5
1C9
100
AcDbEntity
  8
0
  6
ByLayer
 62
  256
370
   -1
100
AcDbLine
 10
18.6104
 20
63
 11
18.5607
 21
62.9393
  0
LINE
  5
1CA
100
AcDbEntity
  8
0
  6
ByLayer
 62
  256
370
   -1
100
AcDbLine
 10
18.5607
 20
62.9393
 11
18.3333
 21
62.7528
  0
LINE
  5
1CB
100
AcDbEntity
  8
0
  6
ByLayer
 62
  256
370
   -1
100
AcDbLine
 10
18.3333
 20
62.7528
 11
18.074
 21
62.6142
  0
LINE
  5
1CC
100
AcDbEntity
  8
0
  6
ByLayer
 62
  256
370
   -1
100
AcDbLine
 10
18.074
 20
62.6142
 11
17.7926
 21
62.5288
  0
LINE
  5
1CD
100
AcDbEntity
  8
0
  6
ByLayer
 62
  256
370
   -1
100
AcDbLine
 10
17.7926
 20
62.5288
 11
17.5
 21
62.5
  0
LINE
  5
1CE
100
AcDbEntity
  8
0
  6
ByLayer
 62
  256
370
   -1
100
AcDbLine
 10
17.5
 20
62.5
 11
17.2074
 21
62.5288
  0
LINE
  5
1CF
100
AcDbEntity
  8
0
  6
ByLayer
 62
  256
370
   -1
100
AcDbLine
 10
17.2074
 20
62.5288
 11
16.926
 21
62.6142
  0
LINE
  5
1D0
100
AcDbEntity
  8
0
  6
ByLayer
 62
  256
370
   -1
100
AcDbLine
 10
16.926
 20
62.6142
 11
16.6666
 21
62.7528
  0
LINE
  5
1D1
100
AcDbEntity
  8
0
  6
ByLayer
 62
  256
370
   -1
100
AcDbLine
 10
16.6666
 20
62.7528
 11
16.4393
 21
62.9393
  0
LINE
  5
1D2
100
AcDbEntity
  8
0
  6
ByLayer
 62
  256
370
   -1
100
AcDbLine
 10
16.4393
 20
62.9393
 11
16.2528
 21
63.1666
  0
LINE
  5
1D3
100
AcDbEntity
  8
0
  6
ByLayer
 62
  256
370
   -1
100
AcDbLine
 10
16.2528
 20
63.1666
 11
16.1142
 21
63.426
  0
LINE
  5
1D4
100
AcDbEntity
  8
0
  6
ByLayer
 62
  256
370
   -1
100
AcDbLine
 10
16.1142
 20
63.426
 11
16.0288
 21
63.7074
  0
LINE
  5
1D5
100
AcDbEntity
  8
0
  6
ByLayer
 62
  256
370
   -1
100
AcDbLine
 10
16.0288
 20
63.7074
 11
16
 21
64
  0
LINE
  5
1D6
100
AcDbEntity
  8
0
  6
ByLayer
 62
  256
370
   -1
100
AcDbLine
 10
16
 20
64
 11
16.0288
 21
64.29259999999999
  0
LINE
  5
1D7
100
AcDbEntity
  8
0
  6
ByLayer
 62
  256
370
   -1
100
AcDbLine
 10
16.0288
 20
64.29259999999999
 11
16.1142
 21
64.574
  0
LINE
  5
1D8
100
AcDbEntity
  8
0
  6
ByLayer
 62
  256
370
   -1
100
AcDbLine
 10
16.1142
 20
64.574
 11
16.2528
 21
64.83329999999999
  0
LINE
  5
1D9
100
AcDbEntity
  8
0
  6
ByLayer
 62
  256
370
   -1
100
AcDbLine
 10
16.2528
 20
64.83329999999999
 11
16.4393
 21
65.0607
  0
LINE
  5
1DA
100
AcDbEntity
  8
0
  6
ByLayer
 62
  256
370
   -1
100
AcDbLine
 10
16.4393
 20
65.0607
 11
16.6666
 21
65.24720000000001
  0
LINE
  5
1DB
100
AcDbEntity
  8
0
  6
ByLayer
 62
  256
370
   -1
100
AcDbLine
 10
16.6666
 20
65.24720000000001
 11
16.926
 21
65.3858
  0
LINE
  5
1DC
100
AcDbEntity
  8
0
  6
ByLayer
 62
  256
370
   -1
100
AcDbLine
 10
16.926
 20
65.3858
 11
17.2074
 21
65.4712
  0
LINE
  5
1DD
100
AcDbEntity
  8
0
  6
ByLayer
 62
  256
370
   -1
100
AcDbLine
 10
17.2074
 20
65.4712
 11
17.5
 21
65.5
  0
LINE
  5
1DE
100
AcDbEntity
  8
0
  6
ByLayer
 62
  256
370
   -1
100
AcDbLine
 10
17.5
 20
65.5
 11
28.5
 21
65.5
  0
LINE
  5
1DF
100
AcDbEntity
  8
0
  6
ByLayer
 62
  256
370
   -1
100
AcDbLine
 10
28.5
 20
65.5
 11
28.5
 21
58
  0
LINE
  5
1E0
100
AcDbEntity
  8
0
  6
ByLayer
 62
  256
370
   -1
100
AcDbLine
 10
28.5
 20
58
 11
36
 21
58
  0
LINE
  5
1E1
100
AcDbEntity
  8
0
  6
ByLayer
 62
  256
370
   -1
100
AcDbLine
 10
36
 20
58
 11
36
 21
54
  0
LINE
  5
1E2
100
AcDbEntity
  8
0
  6
ByLayer
 62
  256
370
   -1
100
AcDbLine
 10
36
 20
54
 11
37.5
 21
54
  0
LINE
  5
1E3
100
AcDbEntity
  8
0
  6
ByLayer
 62
  256
370
   -1
100
AcDbLine
 10
37.5
 20
54
 11
37.5
 21
65.5
  0
LINE
  5
1E4
100
AcDbEntity
  8
0
  6
ByLayer
 62
  256
370
   -1
100
AcDbLine
 10
37.5
 20
65.5
 11
42
 21
65.5
  0
LINE
  5
1E5
100
AcDbEntity
  8
0
  6
ByLayer
 62
  256
370
   -1
100
AcDbLine
 10
42
 20
65.5
 11
42
 21
45
  0
LINE
  5
1E6
100
AcDbEntity
  8
0
  6
ByLayer
 62
  256
370
   -1
100
AcDbLine
 10
42
 20
45
 11
43.5
 21
45
  0
LINE
  5
1E7
100
AcDbEntity
  8
0
  6
ByLayer
 62
  256
370
   -1
100
AcDbLine
 10
43.5
 20
45
 11
43.5
 21
37
  0
LINE
  5
1E8
100
AcDbEntity
  8
0
  6
ByLayer
 62
  256
370
   -1
100
AcDbLine
 10
43.5
 20
37
 11
54.5
 21
37
  0
LINE
  5
1E9
100
AcDbEntity
  8
0
  6
ByLayer
 62
  256
370
   -1
100
AcDbLine
 10
54.5
 20
37
 11
54.5
 21
45
  0
LINE
  5
1EA
100
AcDbEntity
  8
0
  6
ByLayer
 62
  256
370
   -1
100
AcDbLine
 10
54.5
 20
45
 11
62
 21
45
  0
LINE
  5
1EB
100
AcDbEntity
  8
0
  6
ByLayer
 62
  256
370
   -1
100
AcDbLine
 10
62
 20
45
 11
62
 21
65.5
  0
LINE
  5
1EC
100
AcDbEntity
  8
0
  6
ByLayer
 62
  256
370
   -1
100
AcDbLine
 10
62
 20
65.5
 11
76
 21
65.5
  0
LINE
  5
1ED
100
AcDbEntity
  8
0
  6
ByLayer
 62
  256
370
   -1
100
AcDbLine
 10
76
 20
65.5
 11
76
 21
64
  0
LINE
  5
1EE
100
AcDbEntity
  8
0
  6
ByLayer
 62
  256
370
   -1
100
AcDbLine
 10
76
 20
64
 11
77
 21
64
  0
LINE
  5
1EF
100
AcDbEntity
  8
0
  6
ByLayer
 62
  256
370
   -1
100
AcDbLine
 10
77
 20
64
 11
77
 21
65.5
  0
LINE
  5
1F0
100
AcDbEntity
  8
0
  6
ByLayer
 62
  256
370
   -1
100
AcDbLine
 10
77
 20
65.5
 11
87
 21
65.5
  0
LINE
  5
1F1
100
AcDbEntity
  8
0
  6
ByLayer
 62
  256
370
   -1
100
AcDbLine
 10
87
 20
65.5
 11
88.4632
 21
65.35590000000001
  0
LINE
  5
1F2
100
AcDbEntity
  8
0
  6
ByLayer
 62
  256
370
   -1
100
AcDbLine
 10
88.4632
 20
65.35590000000001
 11
89.87009999999999
 21
64.92910000000001
  0
LINE
  5
1F3
100
AcDbEntity
  8
0
  6
ByLayer
 62
  256
370
   -1
100
AcDbLine
 10
89.87009999999999
 20
64.92910000000001
 11
91.16679999999999
 21
64.236
  0
LINE
  5
1F4
100
AcDbEntity
  8
0
  6
ByLayer
 62
  256
370
   -1
100
AcDbLine
 10
91.16679999999999
 20
64.236
 11
92.30329999999999
 21
63.3033
  0
LINE
  5
1F5
100
AcDbEntity
  8
0
  6
ByLayer
 62
  256
370
   -1
100
AcDbLine
 10
92.30329999999999
 20
63.3033
 11
93.236
 21
62.1668
  0
LINE
  5
1F6
100
AcDbEntity
  8
0
  6
ByLayer
 62
  256
370
   -1
100
AcDbLine
 10
93.236
 20
62.1668
 11
93.92910000000001
 21
60.8701
  0
LINE
  5
1F7
100
AcDbEntity
  8
0
  6
ByLayer
 62
  256
370
   -1
100
AcDbLine
 10
93.92910000000001
 20
60.8701
 11
94.1707
 21
60.0735
  0
LINE
  5
1F8
100
AcDbEntity
  8
0
  6
ByLayer
 62
  256
370
   -1
100
AcDbLine
 10
94.1707
 20
60.0735
 11
94.0607
 21
59.9393
  0
LINE
  5
1F9
100
AcDbEntity
  8
0
  6
ByLayer
 62
  256
370
   -1
100
AcDbLine
 10
94.0607
 20
59.9393
 11
93.83329999999999
 21
59.7528
  0
LINE
  5
1FA
100
AcDbEntity
  8
0
  6
ByLayer
 62
  256
370
   -1
100
AcDbLine
 10
93.83329999999999
 20
59.7528
 11
93.574
 21
59.6142
  0
LINE
  5
1FB
100
AcDbEntity
  8
0
  6
ByLayer
 62
  256
370
   -1
100
AcDbLine
 10
93.574
 20
59.6142
 11
93.29259999999999
 21
59.5288
  0
LINE
  5
1FC
100
AcDbEntity
  8
0
  6
ByLayer
 62
  256
370
   -1
100
AcDbLine
 10
93.29259999999999
 20
59.5288
 11
93
 21
59.5
  0
LINE
  5
1FD
100
AcDbEntity
  8
0
  6
ByLayer
 62
  256
370
   -1
100
AcDbLine
 10
93
 20
59.5
 11
92.70740000000001
 21
59.5288
  0
LINE
  5
1FE
100
AcDbEntity
  8
0
  6
ByLayer
 62
  256
370
   -1
100
AcDbLine
 10
92.70740000000001
 20
59.5288
 11
92.426
 21
59.6142
  0
LINE
  5
1FF
100
AcDbEntity
  8
0
  6
ByLayer
 62
  256
370
   -1
100
AcDbLine
 10
92.426
 20
59.6142
 11
92.1666
 21
59.7528
  0
LINE
  5
200
100
AcDbEntity
  8
0
  6
ByLayer
 62
  256
370
   -1
100
AcDbLine
 10
92.1666
 20
59.7528
 11
91.9393
 21
59.9393
  0
LINE
  5
201
100
AcDbEntity
  8
0
  6
ByLayer
 62
  256
370
   -1
100
AcDbLine
 10
91.9393
 20
59.9393
 11
91.75279999999999
 21
60.1666
  0
LINE
  5
202
100
AcDbEntity
  8
0
  6
ByLayer
 62
  256
370
   -1
100
AcDbLine
 10
91.75279999999999
 20
60.1666
 11
91.6142
 21
60.426
  0
LINE
  5
203
100
AcDbEntity
  8
0
  6
ByLayer
 62
  256
370
   -1
100
AcDbLine
 10
91.6142
 20
60.426
 11
91.5288
 21
60.7074
  0
LINE
  5
204
100
AcDbEntity
  8
0
  6
ByLayer
 62
  256
370
   -1
100
AcDbLine
 10
91.5288
 20
60.7074
 11
91.5
 21
61
  0
LINE
  5
205
100
AcDbEntity
  8
0
  6
ByLayer
 62
  256
370
   -1
100
AcDbLine
 10
91.5
 20
61
 11
91.5077
 21
61.0781
  0
LINE
  5
206
100
AcDbEntity
  8
0
  6
ByLayer
 62
  256
370
   -1
100
AcDbLine
 10
91.5077
 20
61.0781
 11
89.5622
 21
63.0235
  0
LINE
  5
207
100
AcDbEntity
  8
0
  6
ByLayer
 62
  256
370
   -1
100
AcDbLine
 10
89.5622
 20
63.0235
 11
89.548
 21
63.0118
  0
LINE
  5
208
100
AcDbEntity
  8
0
  6
ByLayer
 62
  256
370
   -1
100
AcDbLine
 10
89.548
 20
63.0118
 11
89.40940000000001
 21
62.7525
  0
LINE
  5
209
100
AcDbEntity
  8
0
  6
ByLayer
 62
  256
370
   -1
100
AcDbLine
 10
89.40940000000001
 20
62.7525
 11
89.3843
 21
62.4977
  0
LINE
  5
20A
100
AcDbEntity
  8
0
  6
ByLayer
 62
  256
370
   -1
100
AcDbLine
 10
89.3843
 20
62.4977
 11
89.2218
 21
62.2997
  0
LINE
  5
20B
100
AcDbEntity
  8
0
  6
ByLayer
 62
  256
370
   -1
100
AcDbLine
 10
89.2218
 20
62.2997
 11
89.1365
 21
62.0183
  0
LINE
  5
20C
100
AcDbEntity
  8
0
  6
ByLayer
 62
  256
370
   -1
100
AcDbLine
 10
89.1365
 20
62.0183
 11
89.16160000000001
 21
61.7635
  0
LINE
  5
20D
100
AcDbEntity
  8
0
  6
ByLayer
 62
  256
370
   -1
100
AcDbLine
 10
89.16160000000001
 20
61.7635
 11
89.0408
 21
61.5377
  0
LINE
  5
20E
100
AcDbEntity
  8
0
  6
ByLayer
 62
  256
370
   -1
100
AcDbLine
 10
89.0408
 20
61.5377
 11
89.012
 21
61.245
  0
LINE
  5
20F
100
AcDbEntity
  8
0
  6
ByLayer
 62
  256
370
   -1
100
AcDbLine
 10
89.012
 20
61.245
 11
89.04989999999999
 21
61.1203
  0
LINE
  5
210
100
AcDbEntity
  8
0
  6
ByLayer
 62
  256
370
   -1
100
AcDbLine
 10
89.04989999999999
 20
61.1203
 11
89
 21
61
  0
LINE
  5
211
100
AcDbEntity
  8
0
  6
ByLayer
 62
  256
370
   -1
100
AcDbLine
 10
89
 20
61
 11
89.04989999999999
 21
60.8796
  0
LINE
  5
212
100
AcDbEntity
  8
0
  6
ByLayer
 62
  256
370
   -1
100
AcDbLine
 10
89.04989999999999
 20
60.8796
 11
89.012
 21
60.7549
  0
LINE
  5
213
100
AcDbEntity
  8
0
  6
ByLayer
 62
  256
370
   -1
100
AcDbLine
 10
89.012
 20
60.7549
 11
89.0408
 21
60.4623
  0
LINE
  5
214
100
AcDbEntity
  8
0
  6
ByLayer
 62
  256
370
   -1
100
AcDbLine
 10
89.0408
 20
60.4623
 11
89.16160000000001
 21
60.2365
  0
LINE
  5
215
100
AcDbEntity
  8
0
  6
ByLayer
 62
  256
370
   -1
100
AcDbLine
 10
89.16160000000001
 20
60.2365
 11
89.1365
 21
59.9816
  0
LINE
  5
216
100
AcDbEntity
  8
0
  6
ByLayer
 62
  256
370
   -1
100
AcDbLine
 10
89.1365
 20
59.9816
 11
89.2218
 21
59.7003
  0
LINE
  5
217
100
AcDbEntity
  8
0
  6
ByLayer
 62
  256
370
   -1
100
AcDbLine
 10
89.2218
 20
59.7003
 11
89.3843
 21
59.5023
  0
LINE
  5
218
100
AcDbEntity
  8
0
  6
ByLayer
 62
  256
370
   -1
100
AcDbLine
 10
89.3843
 20
59.5023
 11
89.40940000000001
 21
59.2475
  0
LINE
  5
219
100
AcDbEntity
  8
0
  6
ByLayer
 62
  256
370
   -1
100
AcDbLine
 10
89.40940000000001
 20
59.2475
 11
89.548
 21
58.9881
  0
LINE
  5
21A
100
AcDbEntity
  8
0
  6
ByLayer
 62
  256
370
   -1
100
AcDbLine
 10
89.548
 20
58.9881
 11
89.74590000000001
 21
58.8257
  0
LINE
  5
21B
100
AcDbEntity
  8
0
  6
ByLayer
 62
  256
370
   -1
100
AcDbLine
 10
89.74590000000001
 20
58.8257
 11
89.8203
 21
58.5807
  0
LINE
  5
21C
100
AcDbEntity
  8
0
  6
ByLayer
 62
  256
370
   -1
100
AcDbLine
 10
89.8203
 20
58.5807
 11
90.0068
 21
58.3533
  0
LINE
  5
21D
100
AcDbEntity
  8
0
  6
ByLayer
 62
  256
370
   -1
100
AcDbLine
 10
90.0068
 20
58.3533
 11
90.1217
 21
58.2919
  0
LINE
  5
21E
100
AcDbEntity
  8
0
  6
ByLayer
 62
  256
370
   -1
100
AcDbLine
 10
90.1217
 20
58.2919
 11
90.1716
 21
58.1716
  0
LINE
  5
21F
100
AcDbEntity
  8
0
  6
ByLayer
 62
  256
370
   -1
100
AcDbLine
 10
90.1716
 20
58.1716
 11
90.2919
 21
58.1217
  0
LINE
  5
220
100
AcDbEntity
  8
0
  6
ByLayer
 62
  256
370
   -1
100
AcDbLine
 10
90.2919
 20
58.1217
 11
90.3533
 21
58.0068
  0
LINE
  5
221
100
AcDbEntity
  8
0
  6
ByLayer
 62
  256
370
   -1
100
AcDbLine
 10
90.3533
 20
58.0068
 11
90.58069999999999
 21
57.8203
  0
LINE
  5
222
100
AcDbEntity
  8
0
  6
ByLayer
 62
  256
370
   -1
100
AcDbLine
 10
90.58069999999999
 20
57.8203
 11
90.8257
 21
57.7459
  0
LINE
  5
223
100
AcDbEntity
  8
0
  6
ByLayer
 62
  256
370
   -1
100
AcDbLine
 10
90.8257
 20
57.7459
 11
90.9881
 21
57.548
  0
LINE
  5
224
100
AcDbEntity
  8
0
  6
ByLayer
 62
  256
370
   -1
100
AcDbLine
 10
90.9881
 20
57.548
 11
91.2475
 21
57.4094
  0
LINE
  5
225
100
AcDbEntity
  8
0
  6
ByLayer
 62
  256
370
   -1
100
AcDbLine
 10
91.2475
 20
57.4094
 11
91.50230000000001
 21
57.3843
  0
LINE
  5
226
100
AcDbEntity
  8
0
  6
ByLayer
 62
  256
370
   -1
100
AcDbLine
 10
91.50230000000001
 20
57.3843
 11
91.7003
 21
57.2218
  0
LINE
  5
227
100
AcDbEntity
  8
0
  6
ByLayer
 62
  256
370
   -1
100
AcDbLine
 10
91.7003
 20
57.2218
 11
91.9816
 21
57.1365
  0
LINE
  5
228
100
AcDbEntity
  8
0
  6
ByLayer
 62
  256
370
   -1
100
AcDbLine
 10
91.9816
 20
57.1365
 11
92.23650000000001
 21
57.1616
  0
LINE
  5
229
100
AcDbEntity
  8
0
  6
ByLayer
 62
  256
370
   -1
100
AcDbLine
 10
92.23650000000001
 20
57.1616
 11
92.4623
 21
57.0408
  0
LINE
  5
22A
100
AcDbEntity
  8
0
  6
ByLayer
 62
  256
370
   -1
100
AcDbLine
 10
92.4623
 20
57.0408
 11
92.75490000000001
 21
57.012
  0
LINE
  5
22B
100
AcDbEntity
  8
0
  6
ByLayer
 62
  256
370
   -1
100
AcDbLine
 10
92.75490000000001
 20
57.012
 11
92.8796
 21
57.0499
  0
LINE
  5
22C
100
AcDbEntity
  8
0
  6
ByLayer
 62
  256
370
   -1
100
AcDbLine
 10
92.8796
 20
57.0499
 11
93
 21
57
  0
LINE
  5
22D
100
AcDbEntity
  8
0
  6
ByLayer
 62
  256
370
   -1
100
AcDbLine
 10
93
 20
57
 11
93.1203
 21
57.0499
  0
LINE
  5
22E
100
AcDbEntity
  8
0
  6
ByLayer
 62
  256
370
   -1
100
AcDbLine
 10
93.1203
 20
57.0499
 11
93.245
 21
57.012
  0
LINE
  5
22F
100
AcDbEntity
  8
0
  6
ByLayer
 62
  256
370
   -1
100
AcDbLine
 10
93.245
 20
57.012
 11
93.5377
 21
57.0408
  0
LINE
  5
230
100
AcDbEntity
  8
0
  6
ByLayer
 62
  256
370
   -1
100
AcDbLine
 10
93.5377
 20
57.0408
 11
93.76349999999999
 21
57.1616
  0
LINE
  5
231
100
AcDbEntity
  8
0
  6
ByLayer
 62
  256
370
   -1
100
AcDbLine
 10
93.76349999999999
 20
57.1616
 11
94.0183
 21
57.1365
  0
LINE
  5
232
100
AcDbEntity
  8
0
  6
ByLayer
 62
  256
370
   -1
100
AcDbLine
 10
94.0183
 20
57.1365
 11
94.2997
 21
57.2218
  0
LINE
  5
233
100
AcDbEntity
  8
0
  6
ByLayer
 62
  256
370
   -1
100
AcDbLine
 10
94.2997
 20
57.2218
 11
94.49769999999999
 21
57.3843
  0
LINE
  5
234
100
AcDbEntity
  8
0
  6
ByLayer
 62
  256
370
   -1
100
AcDbLine
 10
94.49769999999999
 20
57.3843
 11
94.5
 21
57.3845
  0
LINE
  5
235
100
AcDbEntity
  8
0
  6
ByLayer
 62
  256
370
   -1
100
AcDbLine
 10
94.5
 20
57.3845
 11
94.5
 21
36.6155
  0
LINE
  5
236
100
AcDbEntity
  8
0
  6
ByLayer
 62
  256
370
   -1
100
AcDbLine
 10
94.5
 20
36.6155
 11
94.49769999999999
 21
36.6157
  0
LINE
  5
237
100
AcDbEntity
  8
0
  6
ByLayer
 62
  256
370
   -1
100
AcDbLine
 10
94.49769999999999
 20
36.6157
 11
94.2997
 21
36.7782
  0
LINE
  5
238
100
AcDbEntity
  8
0
  6
ByLayer
 62
  256
370
   -1
100
AcDbLine
 10
94.2997
 20
36.7782
 11
94.0183
 21
36.8635
  0
LINE
  5
239
100
AcDbEntity
  8
0
  6
ByLayer
 62
  256
370
   -1
100
AcDbLine
 10
94.0183
 20
36.8635
 11
93.76349999999999
 21
36.8384
  0
LINE
  5
23A
100
AcDbEntity
  8
0
  6
ByLayer
 62
  256
370
   -1
100
AcDbLine
 10
93.76349999999999
 20
36.8384
 11
93.5377
 21
36.9591
  0
LINE
  5
23B
100
AcDbEntity
  8
0
  6
ByLayer
 62
  256
370
   -1
100
AcDbLine
 10
93.5377
 20
36.9591
 11
93.245
 21
36.988
  0
LINE
  5
23C
100
AcDbEntity
  8
0
  6
ByLayer
 62
  256
370
   -1
100
AcDbLine
 10
93.245
 20
36.988
 11
93.1204
 21
36.9501
  0
LINE
  5
23D
100
AcDbEntity
  8
0
  6
ByLayer
 62
  256
370
   -1
100
AcDbLine
 10
93.1204
 20
36.9501
 11
93
 21
37
  0
LINE
  5
23E
100
AcDbEntity
  8
0
  6
ByLayer
 62
  256
370
   -1
100
AcDbLine
 10
93
 20
37
 11
92.8796
 21
36.9501
  0
LINE
  5
23F
100
AcDbEntity
  8
0
  6
ByLayer
 62
  256
370
   -1
100
AcDbLine
 10
92.8796
 20
36.9501
 11
92.75490000000001
 21
36.988
  0
LINE
  5
240
100
AcDbEntity
  8
0
  6
ByLayer
 62
  256
370
   -1
100
AcDbLine
 10
92.75490000000001
 20
36.988
 11
92.4623
 21
36.9591
  0
LINE
  5
241
100
AcDbEntity
  8
0
  6
ByLayer
 62
  256
370
   -1
100
AcDbLine
 10
92.4623
 20
36.9591
 11
92.23650000000001
 21
36.8384
  0
LINE
  5
242
100
AcDbEntity
  8
0
  6
ByLayer
 62
  256
370
   -1
100
AcDbLine
 10
92.23650000000001
 20
36.8384
 11
91.9816
 21
36.8635
  0
LINE
  5
243
100
AcDbEntity
  8
0
  6
ByLayer
 62
  256
370
   -1
100
AcDbLine
 10
91.9816
 20
36.8635
 11
91.7003
 21
36.7782
  0
LINE
  5
244
100
AcDbEntity
  8
0
  6
ByLayer
 62
  256
370
   -1
100
AcDbLine
 10
91.7003
 20
36.7782
 11
91.50230000000001
 21
36.6157
  0
LINE
  5
245
100
AcDbEntity
  8
0
  6
ByLayer
 62
  256
370
   -1
100
AcDbLine
 10
91.50230000000001
 20
36.6157
 11
91.2475
 21
36.5906
  0
LINE
  5
246
100
AcDbEntity
  8
0
  6
ByLayer
 62
  256
370
   -1
100
AcDbLine
 10
91.2475
 20
36.5906
 11
90.9881
 21
36.452
  0
LINE
  5
247
100
AcDbEntity
  8
0
  6
ByLayer
 62
  256
370
   -1
100
AcDbLine
 10
90.9881
 20
36.452
 11
90.8257
 21
36.2541
  0
LINE
  5
248
100
AcDbEntity
  8
0
  6
ByLayer
 62
  256
370
   -1
100
AcDbLine
 10
90.8257
 20
36.2541
 11
90.58069999999999
 21
36.1797
  0
LINE
  5
249
100
AcDbEntity
  8
0
  6
ByLayer
 62
  256
370
   -1
100
AcDbLine
 10
90.58069999999999
 20
36.1797
 11
90.3533
 21
35.9932
  0
LINE
  5
24A
100
AcDbEntity
  8
0
  6
ByLayer
 62
  256
370
   -1
100
AcDbLine
 10
90.3533
 20
35.9932
 11
90.2919
 21
35.8783
  0
LINE
  5
24B
100
AcDbEntity
  8
0
  6
ByLayer
 62
  256
370
   -1
100
AcDbLine
 10
90.2919
 20
35.8783
 11
90.1716
 21
35.8284
  0
LINE
  5
24C
100
AcDbEntity
  8
0
  6
ByLayer
 62
  256
370
   -1
100
AcDbLine
 10
90.1716
 20
35.8284
 11
90.1217
 21
35.7081
  0
LINE
  5
24D
100
AcDbEntity
  8
0
  6
ByLayer
 62
  256
370
   -1
100
AcDbLine
 10
90.1217
 20
35.7081
 11
90.0068
 21
35.6466
  0
LINE
  5
24E
100
AcDbEntity
  8
0
  6
ByLayer
 62
  256
370
   -1
100
AcDbLine
 10
90.0068
 20
35.6466
 11
89.8203
 21
35.4193
  0
LINE
  5
24F
100
AcDbEntity
  8
0
  6
ByLayer
 62
  256
370
   -1
100
AcDbLine
 10
89.8203
 20
35.4193
 11
89.74590000000001
 21
35.1743
  0
LINE
  5
250
100
AcDbEntity
  8
0
  6
ByLayer
 62
  256
370
   -1
100
AcDbLine
 10
89.74590000000001
 20
35.1743
 11
89.548
 21
35.0118
  0
LINE
  5
251
100
AcDbEntity
  8
0
  6
ByLayer
 62
  256
370
   -1
100
AcDbLine
 10
89.548
 20
35.0118
 11
89.40940000000001
 21
34.7525
  0
LINE
  5
252
100
AcDbEntity
  8
0
  6
ByLayer
 62
  256
370
   -1
100
AcDbLine
 10
89.40940000000001
 20
34.7525
 11
89.3843
 21
34.4977
  0
LINE
  5
253
100
AcDbEntity
  8
0
  6
ByLayer
 62
  256
370
   -1
100
AcDbLine
 10
89.3843
 20
34.4977
 11
89.2218
 21
34.2997
  0
LINE
  5
254
100
AcDbEntity
  8
0
  6
ByLayer
 62
  256
370
   -1
100
AcDbLine
 10
89.2218
 20
34.2997
 11
89.1365
 21
34.0183
  0
LINE
  5
255
100
AcDbEntity
  8
0
  6
ByLayer
 62
  256
370
   -1
100
AcDbLine
 10
89.1365
 20
34.0183
 11
89.16160000000001
 21
33.7635
  0
LINE
  5
256
100
AcDbEntity
  8
0
  6
ByLayer
 62
  256
370
   -1
100
AcDbLine
 10
89.16160000000001
 20
33.7635
 11
89.0408
 21
33.5377
  0
LINE
  5
257
100
AcDbEntity
  8
0
  6
ByLayer
 62
  256
370
   -1
100
AcDbLine
 10
89.0408
 20
33.5377
 11
89.012
 21
33.245
  0
LINE
  5
258
100
AcDbEntity
  8
0
  6
ByLayer
 62
  256
370
   -1
100
AcDbLine
 10
89.012
 20
33.245
 11
89.04989999999999
 21
33.1204
  0
LINE
  5
259
100
AcDbEntity
  8
0
  6
ByLayer
 62
  256
370
   -1
100
AcDbLine
 10
89.04989999999999
 20
33.1204
 11
89
 21
33
  0
LINE
  5
25A
100
AcDbEntity
  8
0
  6
ByLayer
 62
  256
370
   -1
100
AcDbLine
 10
89
 20
33
 11
89.04989999999999
 21
32.8796
  0
LINE
  5
25B
100
AcDbEntity
  8
0
  6
ByLayer
 62
  256
370
   -1
100
AcDbLine
 10
89.04989999999999
 20
32.8796
 11
89.012
 21
32.7549
  0
LINE
  5
25C
100
AcDbEntity
  8
0
  6
ByLayer
 62
  256
370
   -1
100
AcDbLine
 10
89.012
 20
32.7549
 11
89.0408
 21
32.4623
  0
LINE
  5
25D
100
AcDbEntity
  8
0
  6
ByLayer
 62
  256
370
   -1
100
AcDbLine
 10
89.0408
 20
32.4623
 11
89.16160000000001
 21
32.2365
  0
LINE
  5
25E
100
AcDbEntity
  8
0
  6
ByLayer
 62
  256
370
   -1
100
AcDbLine
 10
89.16160000000001
 20
32.2365
 11
89.1365
 21
31.9816
  0
LINE
  5
25F
100
AcDbEntity
  8
0
  6
ByLayer
 62
  256
370
   -1
100
AcDbLine
 10
89.1365
 20
31.9816
 11
89.2218
 21
31.7003
  0
LINE
  5
260
100
AcDbEntity
  8
0
  6
ByLayer
 62
  256
370
   -1
100
AcDbLine
 10
89.2218
 20
31.7003
 11
89.3843
 21
31.5023
  0
LINE
  5
261
100
AcDbEntity
  8
0
  6
ByLayer
 62
  256
370
   -1
100
AcDbLine
 10
89.3843
 20
31.5023
 11
89.40940000000001
 21
31.2475
  0
LINE
  5
262
100
AcDbEntity
  8
0
  6
ByLayer
 62
  256
370
   -1
100
AcDbLine
 10
89.40940000000001
 20
31.2475
 11
89.548
 21
30.9881
  0
LINE
  5
263
100
AcDbEntity
  8
0
  6
ByLayer
 62
  256
370
   -1
100
AcDbLine
 10
89.548
 20
30.9881
 11
89.74590000000001
 21
30.8257
  0
LINE
  5
264
100
AcDbEntity
  8
0
  6
ByLayer
 62
  256
370
   -1
100
AcDbLine
 10
89.74590000000001
 20
30.8257
 11
89.8203
 21
30.5807
  0
LINE
  5
265
100
AcDbEntity
  8
0
  6
ByLayer
 62
  256
370
   -1
100
AcDbLine
 10
89.8203
 20
30.5807
 11
90.0068
 21
30.3533
  0
LINE
  5
266
100
AcDbEntity
  8
0
  6
ByLayer
 62
  256
370
   -1
100
AcDbLine
 10
90.0068
 20
30.3533
 11
90.1217
 21
30.2919
  0
LINE
  5
267
100
AcDbEntity
  8
0
  6
ByLayer
 62
  256
370
   -1
100
AcDbLine
 10
90.1217
 20
30.2919
 11
90.1716
 21
30.1716
  0
LINE
  5
268
100
AcDbEntity
  8
0
  6
ByLayer
 62
  256
370
   -1
100
AcDbLine
 10
90.1716
 20
30.1716
 11
90.2919
 21
30.1217
  0
LINE
  5
269
100
AcDbEntity
  8
0
  6
ByLayer
 62
  256
370
   -1
100
AcDbLine
 10
90.2919
 20
30.1217
 11
90.3533
 21
30.0068
  0
LINE
  5
26A
100
AcDbEntity
  8
0
  6
ByLayer
 62
  256
370
   -1
100
AcDbLine
 10
90.3533
 20
30.0068
 11
90.58069999999999
 21
29.8203
  0
LINE
  5
26B
100
AcDbEntity
  8
0
  6
ByLayer
 62
  256
370
   -1
100
AcDbLine
 10
90.58069999999999
 20
29.8203
 11
90.8257
 21
29.7459
  0
LINE
  5
26C
100
AcDbEntity
  8
0
  6
ByLayer
 62
  256
370
   -1
100
AcDbLine
 10
90.8257
 20
29.7459
 11
90.9881
 21
29.548
  0
LINE
  5
26D
100
AcDbEntity
  8
0
  6
ByLayer
 62
  256
370
   -1
100
AcDbLine
 10
90.9881
 20
29.548
 11
91.2475
 21
29.4094
  0
LINE
  5
26E
100
AcDbEntity
  8
0
  6
ByLayer
 62
  256
370
   -1
100
AcDbLine
 10
91.2475
 20
29.4094
 11
91.50230000000001
 21
29.3843
  0
LINE
  5
26F
100
AcDbEntity
  8
0
  6
ByLayer
 62
  256
370
   -1
100
AcDbLine
 10
91.50230000000001
 20
29.3843
 11
91.7003
 21
29.2218
  0
LINE
  5
270
100
AcDbEntity
  8
0
  6
ByLayer
 62
  256
370
   -1
100
AcDbLine
 10
91.7003
 20
29.2218
 11
91.9816
 21
29.1365
  0
LINE
  5
271
100
AcDbEntity
  8
0
  6
ByLayer
 62
  256
370
   -1
100
AcDbLine
 10
91.9816
 20
29.1365
 11
92
 21
29.1383
  0
LINE
  5
272
100
AcDbEntity
  8
0
  6
ByLayer
 62
  256
370
   -1
100
AcDbLine
 10
92
 20
29.1383
 11
92
 21
31.8896
  0
LINE
  5
273
100
AcDbEntity
  8
0
  6
ByLayer
 62
  256
370
   -1
100
AcDbLine
 10
92
 20
31.8896
 11
91.9393
 21
31.9393
  0
LINE
  5
274
100
AcDbEntity
  8
0
  6
ByLayer
 62
  256
370
   -1
100
AcDbLine
 10
91.9393
 20
31.9393
 11
91.75279999999999
 21
32.1666
  0
LINE
  5
275
100
AcDbEntity
  8
0
  6
ByLayer
 62
  256
370
   -1
100
AcDbLine
 10
91.75279999999999
 20
32.1666
 11
91.6142
 21
32.426
  0
LINE
  5
276
100
AcDbEntity
  8
0
  6
ByLayer
 62
  256
370
   -1
100
AcDbLine
 10
91.6142
 20
32.426
 11
91.5288
 21
32.7074
  0
LINE
  5
277
100
AcDbEntity
  8
0
  6
ByLayer
 62
  256
370
   -1
100
AcDbLine
 10
91.5288
 20
32.7074
 11
91.5
 21
33
  0
LINE
  5
278
100
AcDbEntity
  8
0
  6
ByLayer
 62
  256
370
   -1
100
AcDbLine
 10
91.5
 20
33
 11
91.5288
 21
33.2926
  0
LINE
  5
279
100
AcDbEntity
  8
0
  6
ByLayer
 62
  256
370
   -1
100
AcDbLine
 10
91.5288
 20
33.2926
 11
91.6142
 21
33.574
  0
LINE
  5
27A
100
AcDbEntity
  8
0
  6
ByLayer
 62
  256
370
   -1
100
AcDbLine
 10
91.6142
 20
33.574
 11
91.75279999999999
 21
33.8333
  0
LINE
  5
27B
100
AcDbEntity
  8
0
  6
ByLayer
 62
  256
370
   -1
100
AcDbLine
 10
91.75279999999999
 20
33.8333
 11
91.9393
 21
34.0607
  0
LINE
  5
27C
100
AcDbEntity
  8
0
  6
ByLayer
 62
  256
370
   -1
100
AcDbLine
 10
91.9393
 20
34.0607
 11
92.1666
 21
34.2472
  0
LINE
  5
27D
100
AcDbEntity
  8
0
  6
ByLayer
 62
  256
370
   -1
100
AcDbLine
 10
92.1666
 20
34.2472
 11
92.426
 21
34.3858
  0
LINE
  5
27E
100
AcDbEntity
  8
0
  6
ByLayer
 62
  256
370
   -1
100
AcDbLine
 10
92.426
 20
34.3858
 11
92.70740000000001
 21
34.4712
  0
LINE
  5
27F
100
AcDbEntity
  8
0
  6
ByLayer
 62
  256
370
   -1
100
AcDbLine
 10
92.70740000000001
 20
34.4712
 11
93
 21
34.5
  0
LINE
  5
280
100
AcDbEntity
  8
0
  6
ByLayer
 62
  256
370
   -1
100
AcDbLine
 10
93
 20
34.5
 11
93.29259999999999
 21
34.4712
  0
LINE
  5
281
100
AcDbEntity
  8
0
  6
ByLayer
 62
  256
370
   -1
100
AcDbLine
 10
93.29259999999999
 20
34.4712
 11
93.574
 21
34.3858
  0
LINE
  5
282
100
AcDbEntity
  8
0
  6
ByLayer
 62
  256
370
   -1
100
AcDbLine
 10
93.574
 20
34.3858
 11
93.83329999999999
 21
34.2472
  0
LINE
  5
283
100
AcDbEntity
  8
0
  6
ByLayer
 62
  256
370
   -1
100
AcDbLine
 10
93.83329999999999
 20
34.2472
 11
94.0607
 21
34.0607
  0
LINE
  5
284
100
AcDbEntity
  8
0
  6
ByLayer
 62
  256
370
   -1
100
AcDbLine
 10
94.0607
 20
34.0607
 11
94.24720000000001
 21
33.8333
  0
LINE
  5
285
100
AcDbEntity
  8
0
  6
ByLayer
 62
  256
370
   -1
100
AcDbLine
 10
94.24720000000001
 20
33.8333
 11
94.3858
 21
33.574
  0
LINE
  5
286
100
AcDbEntity
  8
0
  6
ByLayer
 62
  256
370
   -1
100
AcDbLine
 10
94.3858
 20
33.574
 11
94.4712
 21
33.2926
  0
LINE
  5
287
100
AcDbEntity
  8
0
  6
ByLayer
 62
  256
370
   -1
100
AcDbLine
 10
94.4712
 20
33.2926
 11
94.5
 21
33
  0
LINE
  5
288
100
AcDbEntity
  8
0
  6
ByLayer
 62
  256
370
   -1
100
AcDbLine
 10
94.5
 20
33
 11
94.5
 21
29.9544
  0
LINE
  5
289
100
AcDbEntity
  8
0
  6
ByLayer
 62
  256
370
   -1
100
AcDbLine
 10
94.5
 20
29.9544
 11
94.21639999999999
 21
29.0195
  0
LINE
  5
28A
100
AcDbEntity
  8
0
  6
ByLayer
 62
  256
370
   -1
100
AcDbLine
 10
94.21639999999999
 20
29.0195
 11
91.44410000000001
 21
23.8329
  0
LINE
  5
28B
100
AcDbEntity
  8
0
  6
ByLayer
 62
  256
370
   -1
100
AcDbLine
 10
91.44410000000001
 20
23.8329
 11
87.7132
 21
19.2868
  0
LINE
  5
28C
100
AcDbEntity
  8
0
  6
ByLayer
 62
  256
370
   -1
100
AcDbLine
 10
87.7132
 20
19.2868
 11
83.1671
 21
15.5559
  0
LINE
  5
28D
100
AcDbEntity
  8
0
  6
ByLayer
 62
  256
370
   -1
100
AcDbLine
 10
83.1671
 20
15.5559
 11
79.5
 21
13.5958
  0
LINE
  5
28E
100
AcDbEntity
  8
0
  6
ByLayer
 62
  256
370
   -1
100
AcDbLine
 10
79.5
 20
13.5958
 11
79.5
 21
13.2371
  0
LINE
  5
28F
100
AcDbEntity
  8
0
  6
ByLayer
 62
  256
370
   -1
100
AcDbLine
 10
79.5
 20
13.2371
 11
77
 21
12.3272
  0
LINE
  5
290
100
AcDbEntity
  8
0
  6
ByLayer
 62
  256
370
   -1
100
AcDbLine
 10
77
 20
12.3272
 11
77
 21
21.5
  0
LINE
  5
291
100
AcDbEntity
  8
0
  6
ByLayer
 62
  256
370
   -1
100
AcDbLine
 10
77
 20
21.5
 11
76
 21
21.5
  0
LINE
  5
292
100
AcDbEntity
  8
0
  6
ByLayer
 62
  256
370
   -1
100
AcDbLine
 10
76
 20
21.5
 11
76
 21
19.4125
  0
LINE
  5
293
100
AcDbEntity
  8
0
  6
ByLayer
 62
  256
370
   -1
100
AcDbLine
 10
76
 20
19.4125
 11
65
 21
15.4088
  0
LINE
  5
294
100
AcDbEntity
  8
0
  6
ByLayer
 62
  256
370
   -1
100
AcDbLine
 10
65
 20
15.4088
 11
65
 21
7.95955
  0
LINE
  5
295
100
AcDbEntity
  8
0
  6
ByLayer
 62
  256
370
   -1
100
AcDbLine
 10
65
 20
7.95955
 11
61.1953
 21
6.57475
  0
LINE
  5
296
100
AcDbEntity
  8
0
  6
ByLayer
 62
  256
370
   -1
100
AcDbLine
 10
61.1953
 20
6.57475
 11
59.8381
 21
5.84929
  0
LINE
  5
297
100
AcDbEntity
  8
0
  6
ByLayer
 62
  256
370
   -1
100
AcDbLine
 10
59.8381
 20
5.84929
 11
56.02
 21
4.6911
  0
LINE
  5
298
100
AcDbEntity
  8
0
  6
ByLayer
 62
  256
370
   -1
100
AcDbLine
 10
56.02
 20
4.6911
 11
53
 21
3.5919
  0
LINE
  5
299
100
AcDbEntity
  8
0
  6
ByLayer
 62
  256
370
   -1
100
AcDbLine
 10
53
 20
3.5919
 11
53
 21
3.77499
  0
LINE
  5
29A
100
AcDbEntity
  8
0
  6
ByLayer
 62
  256
370
   -1
100
AcDbLine
 10
53
 20
3.77499
 11
51.584
 21
3.34544
  0
LINE
  5
29B
100
AcDbEntity
  8
0
  6
ByLayer
 62
  256
370
   -1
100
AcDbLine
 10
51.584
 20
3.34544
 11
43
 21
2.5
  0
LINE
  5
29C
100
AcDbEntity
  8
0
  6
ByLayer
 62
  256
370
   -1
100
AcDbLine
 10
43
 20
2.5
 11
39.5
 21
2.5
  0
LINE
  5
29D
100
AcDbEntity
  8
0
  6
ByLayer
 62
  256
370
   -1
100
AcDbLine
 10
39.5
 20
2.5
 11
39.5
 21
31
  0
LINE
  5
29E
100
AcDbEntity
  8
0
  6
ByLayer
 62
  256
370
   -1
100
AcDbLine
 10
39.5
 20
31
 11
39.3847
 21
32.1705
  0
LINE
  5
29F
100
AcDbEntity
  8
0
  6
ByLayer
 62
  256
370
   -1
100
AcDbLine
 10
39.3847
 20
32.1705
 11
39.0433
 21
33.2961
  0
LINE
  5
2A0
100
AcDbEntity
  8
0
  6
ByLayer
 62
  256
370
   -1
100
AcDbLine
 10
61
 20
37.5
 11
55
 21
37.5
  0
LINE
  5
2A1
100
AcDbEntity
  8
0
  6
ByLayer
 62
  256
370
   -1
100
AcDbLine
 10
55
 20
37.5
 11
55
 21
36
  0
LINE
  5
2A2
100
AcDbEntity
  8
0
  6
ByLayer
 62
  256
370
   -1
100
AcDbLine
 10
55
 20
36
 11
59
 21
36
  0
LINE
  5
2A3
100
AcDbEntity
  8
0
  6
ByLayer
 62
  256
370
   -1
100
AcDbLine
 10
59
 20
36
 11
59
 21
34.5
  0
LINE
  5
2A4
100
AcDbEntity
  8
0
  6
ByLayer
 62
  256
370
   -1
100
AcDbLine
 10
59
 20
34.5
 11
61
 21
34.5
  0
LINE
  5
2A5
100
AcDbEntity
  8
0
  6
ByLayer
 62
  256
370
   -1
100
AcDbLine
 10
61
 20
34.5
 11
61
 21
37.5
  0
LINE
  5
2A6
100
AcDbEntity
  8
0
  6
ByLayer
 62
  256
370
   -1
100
AcDbLine
 10
83.5
 20
41
 11
83.3175
 21
42.8533
  0
LINE
  5
2A7
100
AcDbEntity
  8
0
  6
ByLayer
 62
  256
370
   -1
100
AcDbLine
 10
83.3175
 20
42.8533
 11
82.7769
 21
44.6355
  0
LINE
  5
2A8
100
AcDbEntity
  8
0
  6
ByLayer
 62
  256
370
   -1
100
AcDbLine
 10
82.7769
 20
44.6355
 11
81.899
 21
46.2779
  0
LINE
  5
2A9
100
AcDbEntity
  8
0
  6
ByLayer
 62
  256
370
   -1
100
AcDbLine
 10
81.899
 20
46.2779
 11
80.7175
 21
47.7175
  0
LINE
  5
2AA
100
AcDbEntity
  8
0
  6
ByLayer
 62
  256
370
   -1
100
AcDbLine
 10
80.7175
 20
47.7175
 11
79.2779
 21
48.899
  0
LINE
  5
2AB
100
AcDbEntity
  8
0
  6
ByLayer
 62
  256
370
   -1
100
AcDbLine
 10
79.2779
 20
48.899
 11
77.63549999999999
 21
49.7769
  0
LINE
  5
2AC
100
AcDbEntity
  8
0
  6
ByLayer
 62
  256
370
   -1
100
AcDbLine
 10
77.63549999999999
 20
49.7769
 11
75.8533
 21
50.3175
  0
LINE
  5
2AD
100
AcDbEntity
  8
0
  6
ByLayer
 62
  256
370
   -1
100
AcDbLine
 10
75.8533
 20
50.3175
 11
74
 21
50.5
  0
LINE
  5
2AE
100
AcDbEntity
  8
0
  6
ByLayer
 62
  256
370
   -1
100
AcDbLine
 10
74
 20
50.5
 11
72.14660000000001
 21
50.3175
  0
LINE
  5
2AF
100
AcDbEntity
  8
0
  6
ByLayer
 62
  256
370
   -1
100
AcDbLine
 10
72.14660000000001
 20
50.3175
 11
70.36450000000001
 21
49.7769
  0
LINE
  5
2B0
100
AcDbEntity
  8
0
  6
ByLayer
 62
  256
370
   -1
100
AcDbLine
 10
70.36450000000001
 20
49.7769
 11
68.7221
 21
48.899
  0
LINE
  5
2B1
100
AcDbEntity
  8
0
  6
ByLayer
 62
  256
370
   -1
100
AcDbLine
 10
68.7221
 20
48.899
 11
67.2825
 21
47.7175
  0
LINE
  5
2B2
100
AcDbEntity
  8
0
  6
ByLayer
 62
  256
370
   -1
100
AcDbLine
 10
67.2825
 20
47.7175
 11
66.101
 21
46.2779
  0
LINE
  5
2B3
100
AcDbEntity
  8
0
  6
ByLayer
 62
  256
370
   -1
100
AcDbLine
 10
66.101
 20
46.2779
 11
65.2231
 21
44.6355
  0
LINE
  5
2B4
100
AcDbEntity
  8
0
  6
ByLayer
 62
  256
370
   -1
100
AcDbLine
 10
65.2231
 20
44.6355
 11
64.6825
 21
42.8533
  0
LINE
  5
2B5
100
AcDbEntity
  8
0
  6
ByLayer
 62
  256
370
   -1
100
AcDbLine
 10
64.6825
 20
42.8533
 11
64.5
 21
41
  0
LINE
  5
2B6
100
AcDbEntity
  8
0
  6
ByLayer
 62
  256
370
   -1
100
AcDbLine
 10
64.5
 20
41
 11
64.6825
 21
39.1466
  0
LINE
  5
2B7
100
AcDbEntity
  8
0
  6
ByLayer
 62
  256
370
   -1
100
AcDbLine
 10
64.6825
 20
39.1466
 11
65.2231
 21
37.3645
  0
LINE
  5
2B8
100
AcDbEntity
  8
0
  6
ByLayer
 62
  256
370
   -1
100
AcDbLine
 10
65.2231
 20
37.3645
 11
66.101
 21
35.7221
  0
LINE
  5
2B9
100
AcDbEntity
  8
0
  6
ByLayer
 62
  256
370
   -1
100
AcDbLine
 10
66.101
 20
35.7221
 11
67.2825
 21
34.2825
  0
LINE
  5
2BA
100
AcDbEntity
  8
0
  6
ByLayer
 62
  256
370
   -1
100
AcDbLine
 10
67.2825
 20
34.2825
 11
68.7221
 21
33.101
  0
LINE
  5
2BB
100
AcDbEntity
  8
0
  6
ByLayer
 62
  256
370
   -1
100
AcDbLine
 10
68.7221
 20
33.101
 11
70.36450000000001
 21
32.2231
  0
LINE
  5
2BC
100
AcDbEntity
  8
0
  6
ByLayer
 62
  256
370
   -1
100
AcDbLine
 10
70.36450000000001
 20
32.2231
 11
72.14660000000001
 21
31.6825
  0
LINE
  5
2BD
100
AcDbEntity
  8
0
  6
ByLayer
 62
  256
370
   -1
100
AcDbLine
 10
72.14660000000001
 20
31.6825
 11
74
 21
31.5
  0
LINE
  5
2BE
100
AcDbEntity
  8
0
  6
ByLayer
 62
  256
370
   -1
100
AcDbLine
 10
74
 20
31.5
 11
75.8533
 21
31.6825
  0
LINE
  5
2BF
100
AcDbEntity
  8
0
  6
ByLayer
 62
  256
370
   -1
100
AcDbLine
 10
75.8533
 20
31.6825
 11
77.63549999999999
 21
32.2231
  0
LINE
  5
2C0
100
AcDbEntity
  8
0
  6
ByLayer
 62
  256
370
   -1
100
AcDbLine
 10
77.63549999999999
 20
32.2231
 11
79.2779
 21
33.101
  0
LINE
  5
2C1
100
AcDbEntity
  8
0
  6
ByLayer
 62
  256
370
   -1
100
AcDbLine
 10
79.2779
 20
33.101
 11
80.7175
 21
34.2825
  0
LINE
  5
2C2
100
AcDbEntity
  8
0
  6
ByLayer
 62
  256
370
   -1
100
AcDbLine
 10
80.7175
 20
34.2825
 11
81.899
 21
35.7221
  0
LINE
  5
2C3
100
AcDbEntity
  8
0
  6
ByLayer
 62
  256
370
   -1
100
AcDbLine
 10
81.899
 20
35.7221
 11
82.7769
 21
37.3645
  0
LINE
  5
2C4
100
AcDbEntity
  8
0
  6
ByLayer
 62
  256
370
   -1
100
AcDbLine
 10
82.7769
 20
37.3645
 11
83.3175
 21
39.1466
  0
LINE
  5
2C5
100
AcDbEntity
  8
0
  6
ByLayer
 62
  256
370
   -1
100
AcDbLine
 10
83.3175
 20
39.1466
 11
83.5
 21
41
  0
LINE
  5
2C6
100
AcDbEntity
  8
0
  6
ByLayer
 62
  256
370
   -1
100
AcDbLine
 10
45
 20
38.5
 11
45
 21
46.5
  0
LINE
  5
2C7
100
AcDbEntity
  8
0
  6
ByLayer
 62
  256
370
   -1
100
AcDbLine
 10
45
 20
46.5
 11
44
 21
46.5
  0
LINE
  5
2C8
100
AcDbEntity
  8
0
  6
ByLayer
 62
  256
370
   -1
100
AcDbLine
 10
44
 20
46.5
 11
44
 21
65.5
  0
LINE
  5
2C9
100
AcDbEntity
  8
0
  6
ByLayer
 62
  256
370
   -1
100
AcDbLine
 10
44
 20
65.5
 11
54.5
 21
65.5
  0
LINE
  5
2CA
100
AcDbEntity
  8
0
  6
ByLayer
 62
  256
370
   -1
100
AcDbLine
 10
54.5
 20
65.5
 11
54.5
 21
46.5
  0
LINE
  5
2CB
100
AcDbEntity
  8
0
  6
ByLayer
 62
  256
370
   -1
100
AcDbLine
 10
54.5
 20
46.5
 11
53
 21
46.5
  0
LINE
  5
2CC
100
AcDbEntity
  8
0
  6
ByLayer
 62
  256
370
   -1
100
AcDbLine
 10
53
 20
46.5
 11
53
 21
38.5
  0
LINE
  5
2CD
100
AcDbEntity
  8
0
  6
ByLayer
 62
  256
370
   -1
100
AcDbLine
 10
53
 20
38.5
 11
45
 21
38.5
  0
LINE
  5
2CE
100
AcDbEntity
  8
0
  6
ByLayer
 62
  256
370
   -1
100
AcDbLine
 10
56.5
 20
46.5
 11
56.5
 21
65.5
  0
LINE
  5
2CF
100
AcDbEntity
  8
0
  6
ByLayer
 62
  256
370
   -1
100
AcDbLine
 10
56.5
 20
65.5
 11
60.5
 21
65.5
  0
LINE
  5
2D0
100
AcDbEntity
  8
0
  6
ByLayer
 62
  256
370
   -1
100
AcDbLine
 10
60.5
 20
65.5
 11
60.5
 21
46.5
  0
LINE
  5
2D1
100
AcDbEntity
  8
0
  6
ByLayer
 62
  256
370
   -1
100
AcDbLine
 10
60.5
 20
46.5
 11
56.5
 21
46.5
  0
LINE
  5
2D2
100
AcDbEntity
  8
0
  6
ByLayer
 62
  256
370
   -1
100
AcDbLine
 10
35.9749
 20
33.4749
 11
36.4101
 21
32.9445
  0
LINE
  5
2D3
100
AcDbEntity
  8
0
  6
ByLayer
 62
  256
370
   -1
100
AcDbLine
 10
36.4101
 20
32.9445
 11
36.7336
 21
32.3394
  0
LINE
  5
2D4
100
AcDbEntity
  8
0
  6
ByLayer
 62
  256
370
   -1
100
AcDbLine
 10
36.7336
 20
32.3394
 11
36.9327
 21
31.6828
  0
LINE
  5
2D5
100
AcDbEntity
  8
0
  6
ByLayer
 62
  256
370
   -1
100
AcDbLine
 10
36.9327
 20
31.6828
 11
37
 21
31
  0
LINE
  5
2D6
100
AcDbEntity
  8
0
  6
ByLayer
 62
  256
370
   -1
100
AcDbLine
 10
37
 20
31
 11
37
 21
5
  0
LINE
  5
2D7
100
AcDbEntity
  8
0
  6
ByLayer
 62
  256
370
   -1
100
AcDbLine
 10
37
 20
5
 11
30
 21
5
  0
LINE
  5
2D8
100
AcDbEntity
  8
0
  6
ByLayer
 62
  256
370
   -1
100
AcDbLine
 10
30
 20
5
 11
30
 21
31
  0
LINE
  5
2D9
100
AcDbEntity
  8
0
  6
ByLayer
 62
  256
370
   -1
100
AcDbLine
 10
30
 20
31
 11
30.0672
 21
31.6828
  0
LINE
  5
2DA
100
AcDbEntity
  8
0
  6
ByLayer
 62
  256
370
   -1
100
AcDbLine
 10
30.0672
 20
31.6828
 11
30.2664
 21
32.3394
  0
LINE
  5
2DB
100
AcDbEntity
  8
0
  6
ByLayer
 62
  256
370
   -1
100
AcDbLine
 10
30.2664
 20
32.3394
 11
30.5898
 21
32.9445
  0
LINE
  5
2DC
100
AcDbEntity
  8
0
  6
ByLayer
 62
  256
370
   -1
100
AcDbLine
 10
30.5898
 20
32.9445
 11
31.0251
 21
33.4749
  0
LINE
  5
2DD
100
AcDbEntity
  8
0
  6
ByLayer
 62
  256
370
   -1
100
AcDbLine
 10
31.0251
 20
33.4749
 11
31.5555
 21
33.9101
  0
LINE
  5
2DE
100
AcDbEntity
  8
0
  6
ByLayer
 62
  256
370
   -1
100
AcDbLine
 10
31.5555
 20
33.9101
 11
32.1606
 21
34.2336
  0
LINE
  5
2DF
100
AcDbEntity
  8
0
  6
ByLayer
 62
  256
370
   -1
100
AcDbLine
 10
32.1606
 20
34.2336
 11
32.8172
 21
34.4327
  0
LINE
  5
2E0
100
AcDbEntity
  8
0
  6
ByLayer
 62
  256
370
   -1
100
AcDbLine
 10
32.8172
 20
34.4327
 11
33.5
 21
34.5
  0
LINE
  5
2E1
100
AcDbEntity
  8
0
  6
ByLayer
 62
  256
370
   -1
100
AcDbLine
 10
33.5
 20
34.5
 11
34.1828
 21
34.4327
  0
LINE
  5
2E2
100
AcDbEntity
  8
0
  6
ByLayer
 62
  256
370
   -1
100
AcDbLine
 10
34.1828
 20
34.4327
 11
34.8394
 21
34.2336
  0
LINE
  5
2E3
100
AcDbEntity
  8
0
  6
ByLayer
 62
  256
370
   -1
100
AcDbLine
 10
34.8394
 20
34.2336
 11
35.4445
 21
33.9101
  0
LINE
  5
2E4
100
AcDbEntity
  8
0
  6
ByLayer
 62
  256
370
   -1
100
AcDbLine
 10
35.4445
 20
33.9101
 11
35.9749
 21
33.4749
  0
DIMENSION
  5
2E5
100
AcDbEntity
  8
kóty
  6
ByLayer
 62
  256
370
   -1
100
AcDbDimension
  2
*D17
 10
85.68432000000031
 20
68
 30
0
 11
83.80932000000031
 21
49.75
 31
0
 70
   32
 71
    5
  3
Standard
 53
0
210
0
220
0
230
1
100
AcDbAlignedDimension
 13
74.00000000000001
 23
31.5
 33
0
 14
72.22224000000027
 24
68
 34
0
 50
90
100
AcDbRotatedDimension
  0
DIMENSION
  5
2E6
100
AcDbEntity
  8
kóty
  6
ByLayer
 62
  256
370
   -1
100
AcDbDimension
  2
*D18
 10
97
 20
27.1060800000001
 30
0
 11
80.75
 21
28.9810800000001
 31
0
 70
   32
 71
    5
  3
Standard
 53
0
210
0
220
0
230
1
100
AcDbAlignedDimension
 13
64.5
 23
40.99999999999998
 33
0
 14
97
 24
42.20544000000015
 34
0
100
AcDbRotatedDimension
  0
ENDSEC
  0
SECTION
  2
OBJECTS
  0
DICTIONARY
  5
C
330
0
100
AcDbDictionary
281
    1
  3
ACAD_GROUP
350
D
  0
DICTIONARY
  5
D
330
C
100
AcDbDictionary
281
    1
  0
ENDSEC
  0
EOF
